<ttFont>
          <CharString index="0">
            rmoveto
            21 hlineto
            15 11 5 10 9 hvcurveto
            45 65 33 -65 rlineto
            -10 5 11 -5 15 -25 callsubr
            13 7 5 8 1 hvcurveto
            5 -2 6 -3 6 vhcurveto
            -45 92 rlineto
            15 -9 -13 6 -22 -15 callsubr
            -21 -17 -6 -15 -11 hvcurveto
            -64 -92 -3 -6 -5 -8 -1 -4 rlinecurve
            -7 6 -5 13 vhcurveto
            return
          </CharString>
          <CharString index="1">
            -107 callgsubr
            endchar
          </CharString>
          <CharString index="2">
            31 14 7 13 9 hvcurveto
            73 99 8 7 3 callsubr
            -16 callsubr
            -10 vhcurveto
            -39 -80 -12 -5 callsubr
            return
          </CharString>
          <CharString index="3">
            -1 4 3 -1 4 hhcurveto
            8 6 4 10 7 hvcurveto
            19 12 9 5 11 33 52 -37 41 hhcurveto
            39 28 23 46 18 hvcurveto
            2 5 2 4 5 vvcurveto
            8 -4 4 -12 4 vhcurveto
            -7 3 rlineto
            2 -5 10 callgsubr
            -8 -7 -5 -11 -7 hvcurveto
            -18 -12 -10 -5 -12 hhcurveto
            1 -33 -51 36 -40 hhcurveto
            -39 -28 -22 -47 -18 hvcurveto
            -2 -5 -1 -5 -4 vvcurveto
            -6 3 -6 11 -4 vhcurveto
            return
          </CharString>
          <CharString index="4">
            rmoveto
            12 hlineto
            22 14 5 16 11 hvcurveto
            65 91 rlineto
            5 7 4 6 4 vvcurveto
            9 1 -7 5 -12 hhcurveto
            -22 hlineto
            -16 -12 -5 -11 -7 hvcurveto
            -46 -64 -32 64 rlineto
            11 -7 -9 5 -15 hhcurveto
            -21 hlineto
            -13 -8 -5 -8 -1 hvcurveto
            -4 3 -8 2 -6 vhcurveto
            45 -91 rlineto
            -16 8 15 -5 21 hhcurveto
            return
          </CharString>
          <CharString index="5">
            rmoveto
            166 100 113 245 25 hvcurveto
            245 26 -92 111 -151 34 callsubr
            -245 -26 92 -113 150 hhcurveto
            10 92 rmoveto
            -93 -41 78 188 20 hvcurveto
            189 19 57 74 94 hhcurveto
            92 41 -74 -189 -19 hvcurveto
            -188 -20 -57 -78 -93 hhcurveto
            return
          </CharString>
          <CharString index="6">
            rmoveto
            128 77 94 173 18 hvcurveto
            174 18 -57 96 -128 hhcurveto
            -127 -79 -97 -173 -18 hvcurveto
            -173 -18 58 -94 128 hhcurveto
            8 86 rmoveto
            -62 -20 55 127 13 hvcurveto
            128 13 33 55 62 hhcurveto
            62 21 -56 -127 -13 hvcurveto
            -127 -14 -34 -55 -61 hhcurveto
            return
          </CharString>
          <CharString index="7">
            rmoveto
            71 54 44 68 7 hvcurveto
            15 2 -9 6 -14 hhcurveto
            -14 -4 -8 -14 -7 hvcurveto
            -23 -12 -22 -15 -43 hhcurveto
            -43 -19 14 23 -8 hvcurveto
            15 -4 -3 8 -14 hhcurveto
            -15 -10 -6 -15 -2 hvcurveto
            -68 -7 46 -44 70 hhcurveto
            return
          </CharString>
          <CharString index="8">
            rmoveto
            15 -26 callsubr
            46 425 2 22 0 22 -3 22 rlinecurve
            5 3 5 -21 6 -22 8 -21 rlinecurve
            180 -436 rlineto
            -14 6 13 -5 20 hhcurveto
            18 hlineto
            30 -6 callgsubr
            69 654 rlineto
            16 1 -13 9 -30 -9 callsubr
            -45 -415 -2 -23 0 -23 3 -23 rlinecurve
            -5 -2 -6 22 -7 22 -9 23 rlinecurve
            -171 422 rlineto
            17 -7 -14 5 -20 -61 callgsubr
            return
          </CharString>
          <CharString index="9">
            rmoveto
            37 27 17 28 7 -32 callsubr
            -7 -6 -4 -12 hhcurveto
            -14 -9 10 37 4 hvcurveto
            9 98 14 119 16 155 rrcurveto
            16 -12 9 -32 vhcurveto
            -10 hlineto
            -30 -17 -7 -18 -2 hvcurveto
            -3 -20 -18 -175 -12 -118 -2 -25 -2 -30 -3 -25 rrcurveto
            -95 -6 48 -16 42 hhcurveto
            return
          </CharString>
          <CharString index="10">
            rmoveto
            -11 hlineto
            -32 12 callsubr
            -33 -313 rlineto
            -38 -28 -37 -29 -40 hhcurveto
            -51 -26 29 49 5 hvcurveto
            32 302 rlineto
            16 1 -67 callgsubr
            -1 hvcurveto
            -33 -314 rlineto
            -98 -10 48 -55 96 hhcurveto
            51 49 22 41 38 hvcurveto
            -1 -12 rlineto
            -135 -14 -36 -49 -84 -87 -50 35 -11 hhcurveto
            -5 -8 -8 9 callgsubr
            -1 -15 -10 vvcurveto
            -28 1 76 -28 99 hhcurveto
            138 67 73 209 21 hvcurveto
            43 403 -28 callgsubr
            -32 hhcurveto
            return
          </CharString>
          <CharString index="11">
            rmoveto
            -17 hlineto
            -21 -18 -4 -13 -4 hvcurveto
            -93 -262 -9 -27 -8 -34 -10 -29 rlinecurve
            -5 hlineto
            -2 30 -4 32 -3 28 -34 261 rcurveline
            14 -2 -15 4 -21 hhcurveto
            -23 hlineto
            -29 -14 -7 -12 -1 hvcurveto
            -1 -4 1 -6 2 -9 80 -419 rcurveline
            2 -12 9 -3 10 -1 -91 -225 rcurveline
            -5 -11 -1 -3 -3 35 callgsubr
            -6 27 hhcurveto
            21 hlineto
            22 18 5 16 7 hvcurveto
            259 675 rlineto
            3 9 2 4 5 vvcurveto
            11 2 -13 7 -31 hhcurveto
            return
          </CharString>
          <CharString index="12">
            -11 hlineto
            -32 -14 callgsubr
            -2 hvcurveto
            -38 -360 rlineto
            -35 -23 -31 -24 -33 hhcurveto
            -43 -18 28 50 5 hvcurveto
            35 341 rlineto
            -37 callgsubr
            -37 -352 rlineto
            -97 -10 33 -59 87 hhcurveto
            52 1 47 29 34 47 -4 -36 rcurveline
            -110 -12 -43 -50 -70 -75 -41 43 -11 hhcurveto
            -9 -6 -19 -21 -3 hvcurveto
            -9 0 -12 3 -11 vhcurveto
            -27 6 62 -29 80 hhcurveto
            134 68 84 201 20 hvcurveto
            return
          </CharString>
          <CharString index="13">
            rmoveto
            34 hlineto
            22 17 5 12 4 hvcurveto
            92 286 5 23 6 23 5 24 rlinecurve
            4 hlineto
            1 -24 0 -23 2 -23 31 -286 32 callsubr
            23 hhcurveto
            33 hlineto
            22 17 5 12 3 hvcurveto
            153 474 2 6 1 7 1 4 rlinecurve
            11 1 -13 8 -31 hhcurveto
            -32 -19 -5 -12 -3 hvcurveto
            -83 -299 -8 -27 -7 -34 -7 -29 rlinecurve
            -5 hlineto
            30 -2 26 -1 36 vhcurveto
            -31 296 rlineto
            13 -2 -14 5 -22 hhcurveto
            -21 hlineto
            -22 -17 -5 -13 -3 hvcurveto
            -92 -295 -8 -30 -8 -34 -8 -30 rlinecurve
            -5 hlineto
            29 -1 37 -2 25 vhcurveto
            -20 299 rlineto
            12 -1 -16 5 -34 hhcurveto
            -34 -15 -8 -14 hvcurveto
            -1 -4 1 -11 1 -7 53 -466 32 callsubr
            22 hhcurveto
            endchar
          </CharString>
          <CharString index="14">
            rmoveto
            38 hlineto
            21 18 5 12 3 hvcurveto
            123 402 32 127 5 -127 41 -402 rlineto
            -12 1 16 -5 21 hhcurveto
            38 hlineto
            22 17 5 12 4 hvcurveto
            198 653 2 5 0 5 1 3 rlinecurve
            13 1 -13 8 -32 hhcurveto
            -14 hlineto
            -28 -17 -6 -14 -4 hvcurveto
            -115 -450 -13 -49 -7 -31 -12 -43 rlinecurve
            -1 32 -1 50 -3 42 -41 451 rcurveline
            14 -1 -16 4 -22 hhcurveto
            -26 hlineto
            -23 -15 -4 -14 -4 hvcurveto
            -130 -450 -11 -40 -12 -42 -11 -43 rlinecurve
            -1 36 1 40 -4 47 -31 450 rcurveline
            14 -1 -17 6 -27 hhcurveto
            -17 hlineto
            -33 -13 -8 -13 -2 hvcurveto
            -3 -1 -5 1 -5 vhcurveto
            77 -653 rlineto
            -12 1 15 -5 22 hhcurveto
            endchar
          </CharString>
          <CharString index="15">
            rmoveto
            29 -21 47 -24 -4 -4 -1 -3 -5 vhcurveto
            -26 -18 rlineto
            -7 24 callgsubr
            2 -12 26 -19 -29 vvcurveto
            -18 -13 -12 -19 -10 -12 3 7 -12 vhcurveto
            16 -29 -28 10 -39 hhcurveto
            -127 -79 -97 -173 -18 hvcurveto
            -173 -18 58 -94 128 hhcurveto
            128 77 94 173 18 hvcurveto
            8 84 -8 67 -27 46 rrcurveto
            61 5 27 36 49 vvcurveto
            -276 -468 rmoveto
            -62 -20 55 127 13 hvcurveto
            128 13 33 55 62 hhcurveto
            62 21 -56 -127 -13 hvcurveto
            -127 -14 -34 -55 -61 hhcurveto
            return
          </CharString>
          <CharString index="16">
            rmoveto
            -31 callsubr
            hvcurveto
            6 10 12 29 hhcurveto
            19 16 -8 -17 hvcurveto
            -44 -63 -18 -25 vvcurveto
            -9 26 -10 13 vhcurveto
            return
          </CharString>
          <CharString index="17">
            rmoveto
            -1 4 3 -1 3 hhcurveto
            7 5 4 10 7 hvcurveto
            19 10 9 5 10 30 47 -37 38 hhcurveto
            34 26 23 46 17 hvcurveto
            2 5 1 4 5 vvcurveto
            8 -3 4 -10 4 vhcurveto
            -8 3 rlineto
            2 -4 -3 1 -3 hhcurveto
            -8 -6 -5 -11 -6 hvcurveto
            -18 -11 -9 -5 -11 hhcurveto
            1 -30 -46 36 -37 hhcurveto
            -35 -26 -22 -47 -16 hvcurveto
            -2 -5 -1 -5 -4 vvcurveto
            -6 3 -6 9 -4 vhcurveto
            return
          </CharString>
          <CharString index="18">
            rmoveto
            -8 hlineto
            -34 -6 -18 -31 -10 hvcurveto
            23 -18 -34 31 -52 hhcurveto
            -102 -76 -98 -167 -17 hvcurveto
            -129 -14 25 -135 117 hhcurveto
            43 42 22 50 31 hvcurveto
            -2 -18 rlineto
            -131 -13 -36 -51 -71 -71 -36 41 -11 hhcurveto
            -17 -5 -47 -18 6 hvcurveto
            -27 9 54 -34 84 hhcurveto
            123 67 79 215 22 hvcurveto
            45 421 rlineto
            14 -9 8 -26 vhcurveto
            -84 -170 rmoveto
            -17 -166 rlineto
            -76 -26 -39 -25 -28 hhcurveto
            -63 -6 87 92 10 hvcurveto
            111 12 30 66 68 hhcurveto
            34 21 -13 callsubr
          </CharString>
          <CharString index="19">
            rmoveto
            20 -26 callsubr
            29 270 rlineto
            51 hlineto
            52 18 -19 -62 14 hvcurveto
            38 -195 rlineto
            -12 2 16 -7 23 hhcurveto
            23 hlineto
            31 15 7 12 1 hvcurveto
            3 0 5 -2 6 vhcurveto
            -41 195 -12 58 -16 45 -28 15 rlinecurve
            1 4 58 29 43 53 9 87 rlinecurve
            133 15 -68 50 -125 hhcurveto
            -153 hlineto
            -22 -10 -10 -23 -2 hvcurveto
            -69 -644 rlineto
            -16 -1 12 -9 31 hhcurveto
            105 391 rmoveto
            23 219 rlineto
            83 hlineto
            49 30 -32 -75 -8 hvcurveto
            -64 -7 -40 -48 -42 hhcurveto
            return
          </CharString>
          <CharString index="20">
            rmoveto
            52 67 30 111 12 hvcurveto
            60 571 -64 callgsubr
            -2 hvcurveto
            -59 -566 rlineto
            -48 -5 -16 -13 -19 -20 -8 5 -6 hhcurveto
            -16 -13 -42 -12 -1 hvcurveto
            -30 -3 41 -6 37 hhcurveto
            endchar
          </CharString>
          <CharString index="21">
            rmoveto
            54 86 28 29 2 hvcurveto
            16 2 -15 42 -16 hhcurveto
            -3 -6 -4 -4 -7 hvcurveto
            -9 -17 -26 -12 -39 hhcurveto
            -77 -25 54 132 13 hvcurveto
            131 14 43 48 70 hhcurveto
            36 24 -14 -8 13 hvcurveto
            -3 6 4 -3 3 hhcurveto
            14 26 43 18 1 hvcurveto
            28 4 -65 25 -64 hhcurveto
            -127 -90 -67 -200 -20 hvcurveto
            -190 -20 62 -80 140 hhcurveto
            endchar
          </CharString>
          <CharString index="22">
            rmoveto
            23 hlineto
            30 14 9 16 1 hvcurveto
            -79 callgsubr
            return
          </CharString>
          <CharString index="23">
            599 -105 callgsubr
            return
          </CharString>
          <CharString index="24">
            -75 callsubr
            -1 hvcurveto
            -69 -63 callsubr
            return
          </CharString>
          <CharString index="25">
            168 -7 rmoveto
            48 46 28 51 32 hvcurveto
            -63 8 40 -16 36 hhcurveto
            36 28 18 4 callsubr
            -12 -7 -7 -18 callsubr
            -15 -8 10 37 2 hvcurveto
            15 150 28 251 21 201 rrcurveto
            16 1 -13 9 -31 -9 callsubr
            -26 -243 rlineto
            25 -22 -27 20 -46 hhcurveto
            -100 -75 -96 -170 -18 hvcurveto
            -165 -17 50 -106 93 hhcurveto
            return
          </CharString>
          <CharString index="26">
            rmoveto
            27 58 65 87 20 -12 13 -26 hvcurveto
            -13 hlineto
            -30 -13 -14 -21 hvcurveto
            -78 -24 -34 -21 vvcurveto
            -14 20 -3 13 vhcurveto
            return
          </CharString>
          <CharString index="27">
            rmoveto
            30 14 8 12 6 hvcurveto
            43 81 14 27 9 vvcurveto
            10 -13 4 -31 -29 -29 -5 -22 -6 vhcurveto
            -21 -80 -6 -23 -9 vvcurveto
            -9 6 -3 22 vhcurveto
            return
          </CharString>
          <CharString index="28">
            30 3 callgsubr
            -5 vhcurveto
            -26 24 callsubr
            -7 -6 vvcurveto
            1 -12 26 -19 -29 vvcurveto
            -16 -11 -17 -32 vhcurveto
            return
          </CharString>
          <CharString index="29">
            rmoveto
            54 38 36 52 6 hvcurveto
            53 6 -31 37 -54 hhcurveto
            -52 -39 -37 -53 -5 hvcurveto
            -52 -6 31 -36 52 hhcurveto
            5 43 rmoveto
            -28 -14 16 29 3 hvcurveto
            29 4 17 17 28 hhcurveto
            28 14 -17 -29 -3 hvcurveto
            -29 -3 -18 -16 -28 hhcurveto
            return
          </CharString>
          <CharString index="30">
            rmoveto
            35 29 14 29 6 hvcurveto
            16 5 0 31 -13 -7 -7 -4 -16 hhcurveto
            -19 -13 10 40 4 hvcurveto
            63 599 -37 callsubr
            -64 -605 rlineto
            -102 -11 57 -28 53 hhcurveto
            return
          </CharString>
          <CharString index="31">
            27 hlineto
            20 16 4 13 5 hvcurveto
            53 152 rlineto
            200 hlineto
            return
          </CharString>
          <CharString index="32">
            hlineto
            -31 -45 callgsubr
            return
          </CharString>
          <CharString index="33">
            -45 rmoveto
            -165 -75 -149 -182 -162 93 -44 100 38 72 15 35 27 hvcurveto
            12 16 4 20 18 vvcurveto
            16 -5 13 -11 vhcurveto
            -16 -37 -47 -71 hhcurveto
            -62 -41 29 106 3 hvcurveto
            2 vlineto
            -80 callgsubr
            -82 -243 rmoveto
            -47 hlineto
            86 12 33 71 75 hhcurveto
            36 20 -26 -35 -73 -66 -23 -63 hvcurveto
            endchar
          </CharString>
          <CharString index="34">
            rmoveto
            47 33 17 47 15 -6 11 -10 hvcurveto
            -22 callsubr
            37 hlineto
            38 11 52 14 14 -3 5 -13 hvcurveto
            -60 20 callsubr
            -12 9 -31 vhcurveto
            -11 hlineto
            -30 -16 -7 -18 -2 hvcurveto
            -11 -102 rlineto
            -29 hlineto
            -25 -4 -34 -21 -19 5 -11 15 hvcurveto
            29 hlineto
            -21 -198 -11 -107 -25 vvcurveto
            -86 59 -29 52 vhcurveto
            return
          </CharString>
          <CharString index="35">
            174 hlineto
            157 106 98 252 26 hvcurveto
            251 26 -84 99 -157 hhcurveto
            -174 hlineto
            -21 -10 -10 -23 -2 hvcurveto
            -68 -634 rlineto
            -23 -2 8 -10 21 hhcurveto
            90 92 rmoveto
            55 516 rlineto
            91 hlineto
            87 48 -70 -188 -19 hvcurveto
            -189 -20 -64 -69 -87 hhcurveto
            return
          </CharString>
          <CharString index="36">
            83 -2 -99 callsubr
            return
          </CharString>
          <CharString index="37">
            rmoveto
            126 60 83 128 13 hvcurveto
            50 473 5 callgsubr
            -23 hlineto
            -30 -14 -22 callgsubr
            -50 -473 rlineto
            -81 -9 -27 -36 -58 -26 -18 9 -9 hhcurveto
            -16 -1 -17 -46 -3 -20 rrcurveto
            -23 -2 54 -13 42 hhcurveto
            endchar
          </CharString>
          <CharString index="38">
            rmoveto
            47 27 23 43 12 -3 11 -8 hvcurveto
            -49 callsubr
            26 18 21 185 7 61 hvcurveto
            105 11 -51 46 -68 hhcurveto
            -54 -46 -30 -38 -30 hvcurveto
            27 266 rlineto
            16 3 -12 9 -30 hhcurveto
            -18 -11 callgsubr
            -74 -705 -65 callsubr
            17 hlineto
            30 -6 callgsubr
            37 360 rlineto
            21 11 34 38 42 hhcurveto
            43 16 -29 -50 -6 hvcurveto
            -20 -195 rlineto
            -4 -40 -2 -22 -12 vvcurveto
            -78 46 -20 41 vhcurveto
            return
          </CharString>
          <CharString index="39">
            -98 -102 callgsubr
            return
          </CharString>
          <CharString index="40">
            36 86 90 117 13 hvcurveto
            20 2 -15 13 -30 -15 callsubr
            -32 -16 -14 -22 -3 hvcurveto
            -7 -73 -21 -48 -23 -41 rrcurveto
            -6 -9 -5 -10 -6 vvcurveto
            -13 -1 20 -4 13 hhcurveto
            return
          </CharString>
          <CharString index="41">
            6 callgsubr
            -34 callgsubr
            -377 hlineto
            -15 -8 9 callsubr
            -3 -20 rlineto
            -25 -2 5 -11 15 hhcurveto
            135 hlineto
            -62 -585 -65 callsubr
            return
          </CharString>
          <CharString index="42">
            -60 callsubr
            31 hhcurveto
            return
          </CharString>
          <CharString index="43">
            rmoveto
            6 10 12 29 hhcurveto
            19 16 -8 -17 hvcurveto
            -44 -63 -18 -25 vvcurveto
            -9 26 -10 13 -31 callsubr
            vhcurveto
            return
          </CharString>
          <CharString index="44">
            -654 -65 callsubr
            return
          </CharString>
          <CharString index="45">
            rmoveto
            203 hlineto
            9 4 6 15 2 hvcurveto
            1 7 rlineto
            15 1 -3 6 -9 hhcurveto
            -140 hlineto
            97 125 61 70 16 26 4 39 rlinecurve
            61 6 -40 39 -70 hhcurveto
            -44 -61 -20 -26 -3 hvcurveto
            -11 -2 12 -22 9 10 24 29 45 hhcurveto
            36 21 -19 -34 -4 hvcurveto
            -2 -23 -9 -16 -28 -35 -153 -190 rcurveline
            -1 -2 -1 -3 -1 -4 rrcurveto
            -13 -1 4 -20 7 hhcurveto
            return
          </CharString>
          <CharString index="46">
            -68 callsubr
            -136 -752 rmoveto
            -104 callgsubr
            endchar
          </CharString>
          <CharString index="47">
            -50 callsubr
            -9 return
          </CharString>
          <CharString index="48">
            rmoveto
            9 21 12 10 13 hvcurveto
            18 15 15 18 27 vvcurveto
            48 -47 19 -41 -35 -44 -15 -13 -12 18 -24 8 vhcurveto
            6 10 14 32 hhcurveto
            17 15 -8 -16 -14 -11 -10 -20 -10 hvcurveto
            -14 -8 -9 -5 -7 vvcurveto
            -10 16 -11 23 vhcurveto
            return
          </CharString>
          <CharString index="49">
            185 378 rmoveto
            59 71 28 135 14 hvcurveto
            137 15 -65 29 -60 hhcurveto
            -61 -70 -29 -137 -15 hvcurveto
            -135 -14 67 -28 59 hhcurveto
            -32 -384 rmoveto
            21 hlineto
            17 12 7 15 9 hvcurveto
            359 665 2 5 2 3 1 4 rlinecurve
            7 -6 5 -14 vhcurveto
            -20 hlineto
            -17 -13 -6 -16 -8 hvcurveto
            -358 -662 rlineto
            -5 -7 -1 -4 -3 vvcurveto
            -7 -1 7 -6 13 hhcurveto
            38 448 rmoveto
            -45 -1 49 50 4 hvcurveto
            49 6 12 53 46 hhcurveto
            46 0 -53 -49 -5 hvcurveto
            -50 -4 -14 -49 -45 hhcurveto
            296 -448 rmoveto
            59 73 28 135 14 hvcurveto
            136 14 -66 29 -60 hhcurveto
            -60 -71 -29 -136 -14 hvcurveto
            -135 -14 66 -28 59 hhcurveto
            return
          </CharString>
          <CharString index="50">
            rmoveto
            23 33 rlineto
            5 7 2 4 5 vvcurveto
            12 -23 14 -11 -5 -6 -3 -6 -4 vhcurveto
            -17 -25 rlineto
            20 -27 -34 10 -42 hhcurveto
            -127 -79 -97 -173 -18 hvcurveto
            -9 -85 10 -66 27 -45 -22 -31 rcurveline
            -4 -7 -3 -3 -5 vvcurveto
            -13 23 -14 11 5 6 2 7 4 vhcurveto
            16 23 rlineto
            -20 27 35 -10 42 hhcurveto
            128 77 94 173 18 hvcurveto
            9 86 -10 67 -27 46 rrcurveto
            -256 -198 rmoveto
            128 13 33 55 62 hhcurveto
            24 19 -9 -18 12 hvcurveto
            -166 -242 -2 24 2 29 3 33 rlinecurve
            178 hmoveto
            -127 -14 -34 -55 -61 hhcurveto
            -25 -18 9 19 -12 hvcurveto
            167 242 2 -24 -1 -29 -4 -35 rlinecurve
            endchar
          </CharString>
          <CharString index="51">
            -68 callsubr
            7 -759 -102 callsubr
            endchar
          </CharString>
          <CharString index="52">
            -132 rmoveto
            21 31 callgsubr
            9 hvcurveto
            39 52 27 -53 rlineto
            -9 7 9 -5 16 18 callsubr
            3 -3 8 -3 8 vhcurveto
            -40 68 rlineto
            14 -9 -13 7 -22 hhcurveto
            -12 hlineto
            -24 -13 -7 -14 -12 hvcurveto
            -55 -68 rlineto
            -5 -8 -4 -8 -3 vvcurveto
            -9 -1 6 -4 13 hhcurveto
            return
          </CharString>
          <CharString index="53">
            29 344 611 rmoveto
            74 31 -36 10 hhcurveto
            18 31 47 20 36 callsubr
            -81 36 -81 hhcurveto
            -19 hlineto
            3 31 rlineto
            21 2 -8 9 -21 hhcurveto
            -18 -10 -9 -21 -2 hvcurveto
            -3 -32 -1 -7 -129 -31 -75 -114 -22 -208 rlinecurve
            -21 -205 51 -113 123 -28 -1 -7 rcurveline
            -5 -44 rlineto
            -21 -2 8 -9 21 hhcurveto
            18 10 9 21 2 hvcurveto
            5 44 rlineto
            12 hlineto
            79 109 21 54 5 hvcurveto
            31 289 rlineto
            23 2 -9 10 -20 hhcurveto
            -118 hlineto
            -15 -9 9 callsubr
            -2 -20 4 callgsubr
            41 hlineto
            -22 -202 rlineto
            -6 -22 -24 -3 -30 hhcurveto
            return
          </CharString>
          <CharString index="54">
            857 -59 callsubr
            -211 -105 -102 callgsubr
            return
          </CharString>
          <CharString index="55">
            9 -23 callsubr
            return
          </CharString>
          <CharString index="56">
            -34 callsubr
            3 hvcurveto
            return
          </CharString>
          <CharString index="57">
            -62 callgsubr
            12 return
          </CharString>
          <CharString index="58">
            -7 -6 -32 callgsubr
            return
          </CharString>
          <CharString index="59">
            1 89 -2 rmoveto
            21 -26 callsubr
            32 310 rlineto
            4 hlineto
            166 -320 rlineto
            -14 7 19 -1 23 hhcurveto
            24 hlineto
            31 13 4 10 1 hvcurveto
            1 5 -1 4 -5 9 -176 322 rcurveline
            222 316 6 8 4 7 1 5 rlinecurve
            8 -12 6 -28 vhcurveto
            -28 hlineto
            -22 -19 -2 -13 -8 hvcurveto
            -214 -311 rlineto
            -4 hlineto
            33 301 -28 callgsubr
            -31 hhcurveto
            -21 -12 callsubr
            -69 -654 -4 callsubr
            return
          </CharString>
          <CharString index="60">
            68 322 700 rmoveto
            -174 hlineto
            -21 -10 -10 -23 -2 hvcurveto
            -28 -264 rlineto
            -39 hlineto
            -27 -2 -33 -31 -19 6 -9 13 hvcurveto
            39 hlineto
            -30 -278 rlineto
            -23 -2 8 -10 21 hhcurveto
            174 hlineto
            157 106 98 252 26 hvcurveto
            251 26 -84 99 -157 hhcurveto
            104 -350 rmoveto
            -189 -20 -64 -69 -87 hhcurveto
            -91 hlineto
            23 219 rlineto
            100 hlineto
            26 3 34 31 19 -6 8 -14 hvcurveto
            -99 hlineto
            22 205 rlineto
            91 hlineto
            87 48 -70 -188 -19 hvcurveto
            endchar
          </CharString>
          <CharString index="61">
            -72 180 -6 -93 callgsubr
            return
          </CharString>
          <CharString index="62">
            145 91 76 129 13 hvcurveto
            return
          </CharString>
          <CharString index="63">
            rmoveto
            25 50 62 83 20 -14 13 -26 hvcurveto
            -12 hlineto
            -32 -14 -14 -21 hvcurveto
            -61 -10 -36 -29 vvcurveto
            -13 20 -4 13 vhcurveto
            return
          </CharString>
          <CharString index="64">
            -1 rmoveto
            14 hlineto
            15 8 5 9 1 hvcurveto
            8 80 rlineto
            28 hlineto
            9 5 6 15 1 hvcurveto
            1 7 rlineto
            15 2 -4 6 -9 hhcurveto
            -27 hlineto
            26 251 rlineto
            9 1 -7 5 -15 hhcurveto
            -17 hlineto
            -11 -10 -2 -7 -4 hvcurveto
            -174 -262 -3 -7 rlineto
            -12 -1 6 -24 8 hhcurveto
            136 hlineto
            -8 -80 rlineto
            -9 -1 6 -5 16 hhcurveto
            -99 143 rmoveto
            113 173 1 -1 -5 -22 -4 -20 -3 -31 rlinecurve
            -11 -99 rlineto
            endchar
          </CharString>
          <CharString index="65">
            9 13 callgsubr
            20 rlineto
            25 3 -6 11 return
          </CharString>
          <CharString index="66">
            25 2 -5 11 -15 hhcurveto
            return
          </CharString>
          <CharString index="67">
            14 -52 callsubr
            return
          </CharString>
          <CharString index="68">
            18 callgsubr
            31 289 rlineto
            236 hlineto
            -30 -289 -65 callsubr
            22 hlineto
            31 2 callgsubr
            -31 hhcurveto
            -22 -75 callsubr
            -1 hvcurveto
            -29 -272 rlineto
            -236 hlineto
            29 272 -38 callgsubr
            -23 -12 callsubr
            -69 -654 -4 callsubr
            return
          </CharString>
          <CharString index="69">
            -10 callgsubr
            148 hmoveto
            -67 callsubr
            endchar
          </CharString>
          <CharString index="70">
            -64 callgsubr
            -1 hvcurveto
            return
          </CharString>
          <CharString index="71">
            -21 callsubr
            -3 6 -11 return
          </CharString>
          <CharString index="72">
            12 hlineto
            31 16 14 22 2 hvcurveto
            8 74 20 48 24 41 5 8 6 10 1 6 rrcurveto
            13 1 -21 4 -13 hhcurveto
            -36 -86 -89 -118 -12 hvcurveto
            -19 -2 14 -14 30 hhcurveto
            return
          </CharString>
          <CharString index="73">
            -27 callgsubr
            25 return
          </CharString>
          <CharString index="74">
            hlineto
            16 8 -63 callgsubr
            -6 11 return
          </CharString>
          <CharString index="75">
            hvcurveto
            -44 callgsubr
            return
          </CharString>
          <CharString index="76">
            -54 callgsubr
            -35 -44 -18 -13 -11 18 -24 8 return
          </CharString>
          <CharString index="77">
            -8 -14 -6 -14 hhcurveto
            -22 -27 5 38 return
          </CharString>
          <CharString index="78">
            -75 callgsubr
            endchar
          </CharString>
          <CharString index="79" raw="1">
            c105571d 0b  
          </CharString>
          <CharString index="80">
            rlineto
            112 hlineto
            16 7 10 25 2 hvcurveto
            2 17 rlineto
            25 2 -4 10 -16 hhcurveto
            -112 hlineto
            18 171 rlineto
            16 2 -11 9 -26 hhcurveto
            -10 hlineto
            -27 -11 -22 callgsubr
            -18 -171 rlineto
            -113 hlineto
            -15 -9 -10 -25 -2 hvcurveto
            -2 -17 rlineto
            -25 -2 6 -10 15 hhcurveto
            113 hlineto
            return
          </CharString>
          <CharString index="81">
            hlineto
            31 15 -52 callsubr
            return
          </CharString>
          <CharString index="82">
            hhcurveto
            22 hlineto
            return
          </CharString>
          <CharString index="83">
            -51 callgsubr
            endchar
          </CharString>
          <CharString index="84">
            16 1 hvcurveto
            return
          </CharString>
          <CharString index="85">
            -6 -11 -4 -13 hhcurveto
            -28 -15 7 30 47 12 92 20 183 hvcurveto
            return
          </CharString>
          <CharString index="86">
            -31 callgsubr
            -13 rlineto
            -25 return
          </CharString>
          <CharString index="87">
            hlineto
            30 14 -40 callgsubr
            return
          </CharString>
          <CharString index="88">
            hlineto
            -32 -15 -22 callgsubr
            return
          </CharString>
          <CharString index="89">
            -4 -11 hhcurveto
            return
          </CharString>
          <CharString index="90">
            rmoveto
            31 27 21 36 3 hvcurveto
            35 5 -23 22 -30 hhcurveto
            -31 -26 -22 -35 -5 hvcurveto
            -36 -3 22 -21 30 hhcurveto
            endchar
          </CharString>
          <CharString index="91">
            -23 -7 -20 return
          </CharString>
          <CharString index="92">
            hhcurveto
            -11 hlineto
            return
          </CharString>
          <CharString index="93">
            hlineto
            -31 -14 -8 -17 -1 hvcurveto
            -8 -73 -65 callsubr
            return
          </CharString>
          <CharString index="94">
            -19 -15 13 hvcurveto
            -3 -15 -3 -19 -3 -21 rrcurveto
            endchar
          </CharString>
          <CharString index="95">
            hlineto
            -31 -13 -9 -16 -2 hvcurveto
            return
          </CharString>
          <CharString index="96">
            11 25 2 hvcurveto
            return
          </CharString>
          <CharString index="97">
            -60 callsubr
            32 hhcurveto
            return
          </CharString>
          <CharString index="98">
            hhcurveto
            -15 -75 callsubr
            -1 hvcurveto
            return
          </CharString>
          <CharString index="99">
            rmoveto
            -188 -20 -57 -78 -93 hhcurveto
            -93 -41 78 188 20 hvcurveto
            189 19 57 74 94 hhcurveto
            92 41 -74 -189 -19 hvcurveto
            endchar
          </CharString>
          <CharString index="100">
            hlineto
            31 -40 callsubr
            return
          </CharString>
          <CharString index="101">
            13 hlineto
            30 13 14 21 hvcurveto
            78 24 34 21 vvcurveto
            14 -20 3 -13 return
          </CharString>
          <CharString index="102">
            -22 -10 vvcurveto
            -9 6 -3 18 vhcurveto
            return
          </CharString>
          <CharString index="103">
            rlineto
            -16 -1 11 -9 31 hhcurveto
            return
          </CharString>
          <CharString index="104">
            64 rmoveto
            -45 -3 49 50 6 7 callgsubr
            return
          </CharString>
          <CharString index="105">
            rlineto
            25 2 -6 11 return
          </CharString>
          <CharString index="106">
            -29 callgsubr
            -10 -19 callsubr
            -1 -10 2 -180 rlineto
            -12 2 7 -5 15 hhcurveto
            return
          </CharString>
          <CharString index="107">
            hlineto
            -27 -1 -37 -13 -18 4 -10 15 hvcurveto
            return
          </CharString>
          <CharString index="108">
            vvcurveto
            -86 59 -29 52 47 33 17 47 15 -6 11 -10 vhcurveto
            -6 -11 -4 -13 hhcurveto
            -28 -15 7 30 return
          </CharString>
          <CharString index="109">
            -30 hhcurveto
            -108 -29 107 158 return
          </CharString>
          <CharString index="110">
            11 vvcurveto
            11 -15 3 -30 -30 return
          </CharString>
          <CharString index="111">
            28 6 23 callsubr
            return
          </CharString>
          <CharString index="112">
            hvcurveto
            8 73 rlineto
            16 2 -12 9 -31 22 callsubr
            return
          </CharString>
          <CharString index="113">
            rmoveto
            36 20 -26 -35 -73 -66 -23 -63 hvcurveto
            -47 hlineto
            86 12 33 71 75 hhcurveto
            endchar
          </CharString>
          <CharString index="114">
            hvcurveto
            299 665 rlineto
            1 4 2 4 3 vvcurveto
            6 -4 2 -11 vhcurveto
            -13 hlineto
            return
          </CharString>
          <CharString index="115">
            rlineto
            23 2 -5 10 -16 hhcurveto
            return
          </CharString>
          <CharString index="116">
            -11 -25 -2 hvcurveto
            return
          </CharString>
          <CharString index="117">
            hlineto
            -16 26 callgsubr
            return
          </CharString>
          <CharString index="118">
            19 callsubr
            2 return
          </CharString>
          <CharString index="119">
            -45 callgsubr
            -2 hvcurveto
            return
          </CharString>
          <CharString index="120">
            -11 -25 -3 hvcurveto
            return
          </CharString>
          <CharString index="121">
            hlineto
            17 7 12 24 3 hvcurveto
            1 7 29 callsubr
            return
          </CharString>
          <CharString index="122">
            13 -9 32 hhcurveto
            return
          </CharString>
          <CharString index="123">
            hhcurveto
            -332 hlineto
            -16 -9 -12 -24 -2 hvcurveto
            -1 -11 rlineto
            -25 -3 return
          </CharString>
          <CharString index="124">
            rlinecurve
            95 -155 rlineto
            -8 6 7 -5 8 hhcurveto
            19 24 21 11 return
          </CharString>
          <CharString index="125">
            -25 callsubr
            12 8 5 8 1 hvcurveto
            return
          </CharString>
          <CharString index="126">
            hlineto
            16 8 -11 callsubr
            return
          </CharString>
          <CharString index="127">
            hlineto
            10 102 rlineto
            16 return
          </CharString>
          <CharString index="128">
            -81 167 -140 rmoveto
            10 hlineto
            26 13 -52 callsubr
            return
          </CharString>
          <CharString index="129">
            hhcurveto
            -22 -11 callgsubr
            -8 -73 rlineto
            -17 return
          </CharString>
          <CharString index="130">
            hvcurveto
            13 5 1 31 return
          </CharString>
          <CharString index="131">
            -18 rlineto
            -6 -4 -3 return
          </CharString>
          <CharString index="132">
            32 callgsubr
            -24 return
          </CharString>
          <CharString index="133">
            -51 callsubr
            2 20 rlineto
            25 return
          </CharString>
          <CharString index="134">
            hlineto
            16 8 9 22 2 hvcurveto
            1 7 rlineto
            22 return
          </CharString>
          <CharString index="135">
            7 13 hhcurveto
            21 27 -10 -9 return
          </CharString>
          <CharString index="136">
            rlineto
            25 2 -5 11 -16 hhcurveto
            return
          </CharString>
          <CharString index="137">
            rlineto
            25 3 -6 11 -16 hhcurveto
            return
          </CharString>
          <CharString index="138">
            7 35 callsubr
            return
          </CharString>
          <CharString index="139">
            rcurveline
            -12 1 15 -5 return
          </CharString>
          <CharString index="140">
            hhcurveto
            166 100 113 245 25 hvcurveto
            return
          </CharString>
          <CharString index="141">
            hhcurveto
            -165 -99 -110 -246 -26 hvcurveto
            return
          </CharString>
          <CharString index="142">
            9 23 3 hvcurveto
            return
          </CharString>
          <CharString index="143">
            2 hvcurveto
            29 3 return
          </CharString>
        <CharString name=".notdef">
          5 -20 hmoveto
          500 hlineto
          73 700 rlineto
          -500 hlineto
          218 -305 rmoveto
          -144 255 rlineto
          340 hlineto
          -428 -555 rmoveto
          53 510 144 -255 rlineto
          203 -255 rmoveto
          -143 255 196 255 rlineto
          -427 -555 rmoveto
          196 255 144 -255 rlineto
          endchar
        </CharString>
        <CharString name="A">
          -4 22 -2 -106 callgsubr
          endchar
        </CharString>
        <CharString name="AE">
          237 18 -2 -56 callgsubr
        </CharString>
        <CharString name="AEacute">
          237 422 759 rmoveto
          -105 callsubr
          -404 -761 -56 callgsubr
        </CharString>
        <CharString name="Aacute">
          -4 280 759 rmoveto
          -105 callsubr
          -258 -761 -106 callgsubr
          endchar
        </CharString>
        <CharString name="Abreve">
          -4 306 759 -100 callsubr
          -284 -761 -106 callgsubr
          endchar
        </CharString>
        <CharString name="Acircumflex">
          -4 210 752 -107 callsubr
          -188 -754 -106 callgsubr
          endchar
        </CharString>
        <CharString name="Adieresis">
          -4 238 776 -101 callgsubr
          -353 -778 -106 callgsubr
          endchar
        </CharString>
        <CharString name="Agrave">
          -4 321 759 -96 callgsubr
          -299 -761 -106 callgsubr
          endchar
        </CharString>
        <CharString name="Amacron">
          -4 210 785 -88 callgsubr
          -188 -787 -106 callgsubr
          endchar
        </CharString>
        <CharString name="Aogonek">
          -4 476 -101 rmoveto
          -30 callsubr
          16 5 23 10 23 hvcurveto
          23 hlineto
          26 13 7 11 1 hvcurveto
          1 5 -1 4 -1 6 -109 649 rcurveline
          15 -2 -14 7 -28 hhcurveto
          -36 hlineto
          -27 -16 -7 -15 -6 hvcurveto
          -242 -649 rlineto
          -2 -6 -2 -4 -5 35 callgsubr
          -7 28 hhcurveto
          -76 callsubr
          21 -142 rlineto
          -28 -39 -8 -43 -25 -65 callgsubr
          -305 355 -2 callgsubr
        </CharString>
        <CharString name="Aring">
          -4 301 737 -78 callsubr
          -284 -782 -106 callgsubr
          endchar
        </CharString>
        <CharString name="Aringacute">
          -4 293 819 rmoveto
          28 20 8 12 12 hvcurveto
          74 66 9 4 7 vvcurveto
          11 1 -17 3 -34 hhcurveto
          -34 -24 -6 -21 -14 hvcurveto
          -14 -22 -10 -14 -22 -36 rrcurveto
          -9 6 -3 19 vhcurveto
          175 -788 rmoveto
          -104 619 12 15 8 18 2 21 rlinecurve
          53 6 -31 37 -54 hhcurveto
          -52 -39 -37 -53 -5 hvcurveto
          -2 -20 3 -18 8 -14 -232 -621 rcurveline
          -2 -6 -2 -4 -5 35 callgsubr
          -7 28 hhcurveto
          -76 callsubr
          23 -152 rlineto
          -13 1 16 -4 19 hhcurveto
          27 hlineto
          26 13 7 11 1 hvcurveto
          1 5 -1 4 -1 6 rrcurveto
          -214 673 rmoveto
          29 4 17 17 28 hhcurveto
          28 14 -17 -29 -3 hvcurveto
          -29 -3 -18 -16 -28 hhcurveto
          -28 -14 16 29 3 hvcurveto
          -83 -450 -2 callgsubr
        </CharString>
        <CharString name="Atilde">
          -4 173 766 rmoveto
          -104 callsubr
          -141 -771 -106 callgsubr
          endchar
        </CharString>
        <CharString name="B">
          30 76 hmoveto
          176 hlineto
          148 76 68 132 14 hvcurveto
          12 113 -72 41 -35 12 rrcurveto
          4 vlineto
          51 20 48 64 7 71 rrcurveto
          106 12 -56 69 -139 hhcurveto
          -168 hlineto
          -22 -12 callgsubr
          -67 -634 rlineto
          -23 -2 7 -10 22 hhcurveto
          119 403 rmoveto
          22 208 rlineto
          93 hlineto
          63 26 -31 -69 -8 hvcurveto
          -64 -6 -40 -44 -56 hhcurveto
          -127 -314 rmoveto
          24 225 rlineto
          103 hlineto
          68 32 -37 -70 -7 hvcurveto
          -75 -8 -38 -43 -60 hhcurveto
          endchar
        </CharString>
        <CharString name="C">
          -50 284 -7 -87 callgsubr
        </CharString>
        <CharString name="CR">
          -269 endchar
        </CharString>
        <CharString name="Cacute">
          -50 298 759 rmoveto
          -105 callsubr
          -14 -766 -87 callgsubr
        </CharString>
        <CharString name="Cacute.loclPLK">
          -50 307 759 -80 callsubr
          -23 -766 -87 callgsubr
        </CharString>
        <CharString name="Ccaron">
          -50 318 757 -103 callsubr
          -34 -764 -87 callgsubr
        </CharString>
        <CharString name="Ccedilla">
          -50 452 690 rmoveto
          9 -22 -36 8 -37 hhcurveto
          -191 -85 -116 -240 -26 hvcurveto
          -21 -211 53 -113 128 -27 rrcurveto
          -20 -60 -3 -11 -8 -70 callgsubr
          14 50 rlineto
          -1 8 7 0 8 hhcurveto
          42 38 9 10 22 hvcurveto
          22 11 8 14 1 19 1 25 -8 39 -27 -11 rrcurveto
          -11 -24 -27 -10 -38 hhcurveto
          -104 -42 85 178 19 hvcurveto
          179 20 58 82 104 hhcurveto
          36 24 -9 -9 18 hvcurveto
          23 -12 17 53 2 22 2 17 -3 10 -16 6 rrcurveto
          endchar
        </CharString>
        <CharString name="Ccircumflex">
          -50 228 752 -107 callsubr
          56 -759 -87 callgsubr
        </CharString>
        <CharString name="Cdotaccent">
          -50 325 776 -105 callgsubr
          -41 -783 -87 callgsubr
        </CharString>
        <CharString name="D">
          -25 callgsubr
          endchar
        </CharString>
        <CharString name="Dcaron">
          68 322 757 -103 callsubr
          -248 -757 rmoveto
          -72 callsubr
          endchar
        </CharString>
        <CharString name="Dcroat">
          -47 callsubr
        </CharString>
        <CharString name="E">
          -52 76 hmoveto
          -104 callgsubr
          endchar
        </CharString>
        <CharString name="Eacute">
          -52 275 759 rmoveto
          -105 callsubr
          -199 -759 rmoveto
          -104 callgsubr
          endchar
        </CharString>
        <CharString name="Ebreve">
          -52 301 759 -100 callsubr
          -225 -759 rmoveto
          -104 callgsubr
          endchar
        </CharString>
        <CharString name="Ecaron">
          -52 295 757 -103 callsubr
          -219 -757 rmoveto
          -104 callgsubr
          endchar
        </CharString>
        <CharString name="Ecircumflex">
          -52 205 752 -107 callsubr
          -129 -752 rmoveto
          -104 callgsubr
          endchar
        </CharString>
        <CharString name="Edieresis">
          -52 233 776 -101 callgsubr
          -294 -776 rmoveto
          -104 callgsubr
          endchar
        </CharString>
        <CharString name="Edotaccent">
          -52 302 776 -105 callgsubr
          -226 -776 rmoveto
          -104 callgsubr
          endchar
        </CharString>
        <CharString name="Egrave">
          -52 316 759 -96 callgsubr
          -240 -759 rmoveto
          -104 callgsubr
          endchar
        </CharString>
        <CharString name="Emacron">
          -52 205 785 -88 callgsubr
          -129 -785 rmoveto
          -104 callgsubr
          endchar
        </CharString>
        <CharString name="Eng">
          81 525 702 rmoveto
          -15 -75 callsubr
          -1 hvcurveto
          -45 -415 -2 -23 0 -23 3 -23 rlinecurve
          -5 -2 -6 22 -7 22 -9 23 rlinecurve
          -171 422 rlineto
          17 -7 -14 5 -20 -61 callgsubr
          15 -26 callsubr
          46 425 2 22 0 22 -3 22 rlinecurve
          5 3 5 -21 6 -22 8 -21 rlinecurve
          181 -440 -8 -79 rlineto
          -49 -5 -16 -12 -19 -20 -8 5 -7 hhcurveto
          -16 -12 -42 -12 -1 hvcurveto
          -30 -3 41 -6 37 hhcurveto
          51 68 30 111 12 hvcurveto
          78 748 5 callgsubr
          endchar
        </CharString>
        <CharString name="Eogonek">
          -52 447 -106 rmoveto
          -30 callsubr
          20 7 30 16 29 hvcurveto
          3 6 2 9 1 11 3 20 rcurveline
          -41 callsubr
          -211 hlineto
          23 220 rlineto
          189 hlineto
          15 8 -63 callgsubr
          -6 11 -15 hhcurveto
          -188 hlineto
          21 204 rlineto
          211 26 callsubr
          2 -5 11 -15 hhcurveto
          -290 hlineto
          -22 -12 callgsubr
          -67 -634 rlineto
          -23 -2 7 -10 22 hhcurveto
          247 hlineto
          -18 -33 -6 -33 -21 -65 callgsubr
          endchar
        </CharString>
        <CharString name="Eth">
          -47 callsubr
        </CharString>
        <CharString name="Euro">
          -6 283 -7 rmoveto
          90 81 45 31 3 hvcurveto
          14 2 -16 47 -21 -14 -42 -42 -72 hhcurveto
          -68 -43 45 102 -6 hvcurveto
          212 27 callsubr
          2 -6 9 -16 hhcurveto
          -219 hlineto
          1 15 2 16 1 16 2 14 1 14 2 14 rrcurveto
          219 27 callsubr
          3 -6 9 -16 hhcurveto
          -213 hlineto
          105 28 51 46 72 68 28 -37 12 hhcurveto
          18 30 46 20 2 hvcurveto
          26 3 -68 39 -84 hhcurveto
          -139 -92 -80 -165 -40 hvcurveto
          -42 hlineto
          -16 -7 -9 -22 -3 hvcurveto
          -1 -7 rlineto
          -22 -2 6 -9 16 hhcurveto
          35 hlineto
          -6 -42 -1 -16 -2 -16 -1 -15 rlinecurve
          -34 hlineto
          -16 -8 -9 -22 32 callgsubr
          -22 -2 5 -9 16 hhcurveto
          41 hlineto
          -165 5 72 -77 142 hhcurveto
          endchar
        </CharString>
        <CharString name="F">
          -86 89 -2 6 callgsubr
          31 289 rlineto
          170 hlineto
          15 -42 callsubr
          -15 hhcurveto
          -170 hlineto
          21 204 rlineto
          185 26 callsubr
          2 -5 11 -15 hhcurveto
          -264 hlineto
          -22 -12 callgsubr
          -68 -644 -4 callsubr
          endchar
        </CharString>
        <CharString name="G">
          43 352 611 -85 callgsubr
          endchar
        </CharString>
        <CharString name="Gbreve">
          43 348 759 -100 callsubr
          4 -148 -85 callgsubr
          endchar
        </CharString>
        <CharString name="Gcircumflex">
          43 252 752 -107 callsubr
          100 -141 -85 callgsubr
          endchar
        </CharString>
        <CharString name="Gcommaaccent">
          43 352 611 -85 callgsubr
          -62 -662 rmoveto
          -13 hlineto
          -30 -13 -14 -21 hvcurveto
          -78 -24 -34 -21 vvcurveto
          -14 20 -3 13 27 58 65 87 20 -12 13 -26 vhcurveto
          endchar
        </CharString>
        <CharString name="Gdotaccent">
          43 349 776 -105 callgsubr
          3 -165 -85 callgsubr
          endchar
        </CharString>
        <CharString name="H">
          -41 callgsubr
          endchar
        </CharString>
        <CharString name="Hbar">
          92 634 565 rmoveto
          -73 hlineto
          12 112 -77 callgsubr
          -22 -75 callsubr
          -1 hvcurveto
          -12 -112 rlineto
          -236 hlineto
          12 112 -38 callgsubr
          -23 -12 callsubr
          -12 -112 rlineto
          -73 0 callsubr
          74 hlineto
          -49 -464 -4 callsubr
          11 callgsubr
          31 289 rlineto
          236 hlineto
          -30 -289 -65 callsubr
          22 -7 callsubr
          50 464 rlineto
          72 0 callgsubr
          -200 -160 rmoveto
          -236 hlineto
          9 82 rlineto
          236 hlineto
          endchar
        </CharString>
        <CharString name="Hcircumflex">
          92 259 752 -107 callsubr
          -170 -754 -39 callsubr
          endchar
        </CharString>
        <CharString name="I">
          -247 92 -2 -85 callsubr
          endchar
        </CharString>
        <CharString name="IJ">
          108 92 -2 -85 callsubr
          239 -5 -70 callsubr
        </CharString>
        <CharString name="Iacute">
          -247 158 759 rmoveto
          -105 callsubr
          -66 -761 -85 callsubr
          endchar
        </CharString>
        <CharString name="Iacute_J.loclNLD">
          108 158 759 rmoveto
          -105 callsubr
          349 hmoveto
          -105 callsubr
          -415 -761 -85 callsubr
          239 -5 -70 callsubr
        </CharString>
        <CharString name="Ibreve">
          -247 184 759 -100 callsubr
          -92 -761 -85 callsubr
          endchar
        </CharString>
        <CharString name="Icircumflex">
          -247 88 752 -107 callsubr
          4 -754 -85 callsubr
          endchar
        </CharString>
        <CharString name="Idieresis">
          -247 116 776 -101 callgsubr
          -161 -778 -85 callsubr
          endchar
        </CharString>
        <CharString name="Idotaccent">
          -247 185 776 -105 callgsubr
          -93 -778 -85 callsubr
          endchar
        </CharString>
        <CharString name="Igrave">
          -247 199 759 -96 callgsubr
          -107 -761 -85 callsubr
          endchar
        </CharString>
        <CharString name="Imacron">
          -247 88 785 -88 callgsubr
          4 -787 -85 callsubr
          endchar
        </CharString>
        <CharString name="Iogonek">
          -247 219 -104 rmoveto
          -30 callsubr
          20 7 30 16 29 hvcurveto
          2 3 1 4 4 vvcurveto
          -79 callgsubr
          1 hlineto
          -17 -32 -5 -31 -20 -65 callgsubr
          endchar
        </CharString>
        <CharString name="Itilde">
          -247 64 766 rmoveto
          -81 callgsubr
          37 -771 -85 callsubr
          endchar
        </CharString>
        <CharString name="J">
          -154 69 -7 -70 callsubr
        </CharString>
        <CharString name="Jcircumflex">
          -154 175 752 -107 callsubr
          -106 -759 -70 callsubr
        </CharString>
        <CharString name="K">
          -48 callsubr
          endchar
        </CharString>
        <CharString name="Kcommaaccent">
          -48 callsubr
          104 -234 -81 callsubr
          endchar
        </CharString>
        <CharString name="L">
          -101 76 hmoveto
          -71 callgsubr
          endchar
        </CharString>
        <CharString name="Lacute">
          -101 157 760 rmoveto
          -105 callsubr
          -81 -760 rmoveto
          -71 callgsubr
          endchar
        </CharString>
        <CharString name="Lcaron">
          -101 76 hmoveto
          -71 callgsubr
          250 522 -44 callsubr
          endchar
        </CharString>
        <CharString name="Lcommaaccent">
          -101 76 hmoveto
          -71 callgsubr
          89 -236 -81 callsubr
          endchar
        </CharString>
        <CharString name="Ldot">
          -101 76 hmoveto
          -71 callgsubr
          226 303 -17 callsubr
        </CharString>
        <CharString name="Lslash">
          -101 353 92 rmoveto
          -190 hlineto
          35 331 rlineto
          2 1 2 2 3 vvcurveto
          1 -2 1 -1 1 vhcurveto
          26 245 -77 callgsubr
          -22 -12 callsubr
          -68 -644 rlineto
          -23 -2 7 -10 22 hhcurveto
          270 -33 callsubr
          -16 hhcurveto
          -151 338 rmoveto
          0 0 -1 0 vhcurveto
          -1 vlineto
          -104 -57 rmoveto
          0 0 0 0 vhcurveto
          -1 vlineto
          endchar
        </CharString>
        <CharString name="M">
          180 328 234 rmoveto
          29 hlineto
          14 8 5 12 7 hvcurveto
          126 203 12 20 12 21 10 21 rlinecurve
          4 -1 -6 -23 -5 -21 -2 -23 rlinecurve
          -44 -425 -62 callgsubr
          11 -9 31 hhcurveto
          19 hlineto
          31 14 -40 callgsubr
          68 21 callgsubr
          2 -12 9 -31 hhcurveto
          -24 hlineto
          -24 -13 -7 -14 -10 hvcurveto
          -179 -290 -10 -16 -7 -16 -5 -16 rlinecurve
          -2 16 -3 16 -6 16 -120 290 rcurveline
          14 -6 -13 7 -23 -61 callgsubr
          18 hlineto
          31 14 -40 callgsubr
          45 425 2 23 0 21 -1 23 rlinecurve
          4 1 7 -21 6 -21 8 -20 rlinecurve
          83 -203 rlineto
          -12 5 7 -5 14 hhcurveto
          endchar
        </CharString>
        <CharString name="N">
          81 -71 callsubr
          endchar
        </CharString>
        <CharString name="NULL">
          -509 endchar
        </CharString>
        <CharString name="Nacute">
          81 320 759 rmoveto
          -105 callsubr
          -237 -761 -99 callsubr
          endchar
        </CharString>
        <CharString name="Nacute.loclPLK">
          81 329 759 -80 callsubr
          -246 -761 -99 callsubr
          endchar
        </CharString>
        <CharString name="Ncaron">
          81 340 757 -103 callsubr
          -257 -759 -99 callsubr
          endchar
        </CharString>
        <CharString name="Ncommaaccent">
          81 -71 callsubr
          144 -234 -81 callsubr
          endchar
        </CharString>
        <CharString name="Ntilde">
          81 213 766 rmoveto
          -104 callsubr
          -120 -771 -99 callsubr
          endchar
        </CharString>
        <CharString name="O">
          90 272 -7 -102 callsubr
          endchar
        </CharString>
        <CharString name="OE">
          314 808 700 rmoveto
          -294 hlineto
          -22 -12 callgsubr
          -2 -23 rlineto
          44 -33 -47 19 -60 hhcurveto
          -159 -97 -112 -244 -26 hvcurveto
          -245 -26 91 -113 144 hhcurveto
          58 50 19 36 42 hvcurveto
          -2 -15 rlineto
          -23 -2 7 -10 22 hhcurveto
          295 hlineto
          15 8 13 callgsubr
          20 rlineto
          25 3 -5 11 -16 hhcurveto
          -215 hlineto
          23 220 rlineto
          193 hlineto
          15 -42 callsubr
          -15 hhcurveto
          -193 hlineto
          21 204 rlineto
          215 -33 callsubr
          -15 hhcurveto
          -356 -349 -8 callsubr
        </CharString>
        <CharString name="Oacute">
          90 328 759 rmoveto
          -105 callsubr
          -56 -766 -102 callsubr
          endchar
        </CharString>
        <CharString name="Oacute.loclPLK">
          90 337 759 -80 callsubr
          -65 -766 -102 callsubr
          endchar
        </CharString>
        <CharString name="Obreve">
          90 354 759 -100 callsubr
          -82 -766 -102 callsubr
          endchar
        </CharString>
        <CharString name="Ocircumflex">
          90 258 752 -107 callsubr
          14 -759 -102 callsubr
          endchar
        </CharString>
        <CharString name="Odieresis">
          90 286 776 -101 callgsubr
          -151 -783 -102 callsubr
          endchar
        </CharString>
        <CharString name="Ograve">
          90 369 759 -96 callgsubr
          -97 -766 -102 callsubr
          endchar
        </CharString>
        <CharString name="Ohorn">
          90 620 711 -92 callgsubr
          endchar
        </CharString>
        <CharString name="Ohungarumlaut">
          90 270 759 -82 callgsubr
          -136 -766 -102 callsubr
          endchar
        </CharString>
        <CharString name="Omacron">
          90 258 785 -88 callgsubr
          14 -792 -102 callsubr
          endchar
        </CharString>
        <CharString name="Oslash">
          90 512 633 -58 callgsubr
        </CharString>
        <CharString name="Oslashacute">
          90 324 759 rmoveto
          -105 callsubr
          188 -126 -58 callgsubr
        </CharString>
        <CharString name="Otilde">
          90 221 766 rmoveto
          -104 callsubr
          61 -776 -102 callsubr
          endchar
        </CharString>
        <CharString name="P">
          90 -2 rmoveto
          20 hlineto
          31 14 -40 callgsubr
          28 265 rlineto
          98 hlineto
          43 138 23 186 19 hvcurveto
          176 19 -114 27 -70 hhcurveto
          -168 hlineto
          -21 -10 -35 callgsubr
          -68 -644 rlineto
          -16 -1 12 -9 31 hhcurveto
          104 381 rmoveto
          24 229 rlineto
          85 hlineto
          36 45 -20 -91 -10 hvcurveto
          -99 -10 -50 -19 -30 hhcurveto
          endchar
        </CharString>
        <CharString name="Q">
          90 489 -166 rmoveto
          25 34 62 13 3 hvcurveto
          1 7 -4 5 -7 4 -183 84 rcurveline
          1 3 111 38 70 110 22 190 rlinecurve
          244 25 -84 113 -158 hhcurveto
          -174 -91 -112 -245 -25 hvcurveto
          -19 -181 39 -100 88 -55 rrcurveto
          -44 69 243 -136 14 hhcurveto
          -208 250 rmoveto
          -93 -42 77 189 21 hvcurveto
          188 19 58 76 93 hhcurveto
          91 42 -76 -188 -19 hvcurveto
          -188 -21 -58 -78 -91 hhcurveto
          endchar
        </CharString>
        <CharString name="R">
          4 86 -2 -50 callgsubr
        </CharString>
        <CharString name="Racute">
          4 280 759 rmoveto
          -105 callsubr
          -194 -761 -50 callgsubr
        </CharString>
        <CharString name="Rcaron">
          4 300 757 -103 callsubr
          -214 -759 -50 callgsubr
        </CharString>
        <CharString name="Rcommaaccent">
          4 86 -2 -88 callsubr
          -90 -625 -81 callsubr
          endchar
        </CharString>
        <CharString name="S">
          -46 callsubr
          endchar
        </CharString>
        <CharString name="Sacute">
          -72 255 759 rmoveto
          -105 callsubr
          -75 -765 -93 callgsubr
          endchar
        </CharString>
        <CharString name="Sacute.loclPLK">
          -72 264 759 -80 callsubr
          -84 -765 -93 callgsubr
          endchar
        </CharString>
        <CharString name="Scaron">
          -72 275 757 -103 callsubr
          -95 -763 -93 callgsubr
          endchar
        </CharString>
        <CharString name="Scedilla">
          -72 269 397 rmoveto
          -59 34 -40 33 56 vvcurveto
          68 53 29 60 27 31 -7 -13 30 vhcurveto
          -2 6 7 -3 5 hhcurveto
          17 17 53 18 7 -3 6 -8 5 hvcurveto
          19 -32 -60 10 -49 hhcurveto
          -124 -84 -82 -127 -95 64 -51 73 -44 hvcurveto
          49 -29 42 -31 -58 vvcurveto
          -76 -52 -29 -63 -44 -41 9 26 -38 vhcurveto
          3 -4 -4 3 -6 hhcurveto
          -18 -13 -43 -24 -18 13 -8 12 -6 hvcurveto
          35 -25 42 -9 46 -2 rrcurveto
          -18 -55 -3 -10 -8 -70 callgsubr
          15 51 rlineto
          123 9 72 81 129 vvcurveto
          93 -60 48 -71 42 vhcurveto
          endchar
        </CharString>
        <CharString name="Scircumflex">
          -72 185 752 -107 callsubr
          -5 -758 -93 callgsubr
          endchar
        </CharString>
        <CharString name="Scommaaccent">
          -46 callsubr
          -36 -230 -81 callsubr
          endchar
        </CharString>
        <CharString name="T">
          -55 188 -2 -66 callsubr
          endchar
        </CharString>
        <CharString name="Tbar">
          -55 461 700 rmoveto
          -377 hlineto
          -15 -8 9 callsubr
          -3 -20 rlineto
          -25 -2 5 -11 15 hhcurveto
          135 hlineto
          -23 -216 rlineto
          -131 0 callsubr
          132 hlineto
          -31 -291 -65 callsubr
          22 -16 callgsubr
          291 rlineto
          122 0 callgsubr
          -123 hlineto
          23 216 rlineto
          133 hlineto
          16 -42 callsubr
          -16 hhcurveto
          endchar
        </CharString>
        <CharString name="Tcaron">
          -55 274 757 -103 callsubr
          -86 -759 -66 callsubr
          endchar
        </CharString>
        <CharString name="Thorn">
          84 -2 rmoveto
          21 hlineto
          31 14 -40 callgsubr
          15 147 rlineto
          98 hlineto
          43 138 24 186 20 hvcurveto
          176 18 -114 26 -71 hhcurveto
          -88 hlineto
          10 95 -77 callgsubr
          -21 -11 callgsubr
          -68 -63 callsubr
          93 263 rmoveto
          24 229 rlineto
          83 hlineto
          37 44 -19 -91 -9 hvcurveto
          -99 -11 -50 -20 -29 hhcurveto
          endchar
        </CharString>
        <CharString name="U">
          74 264 -7 rmoveto
          -45 callsubr
          51 479 -77 callgsubr
          -21 -99 callgsubr
          endchar
        </CharString>
        <CharString name="Uacute">
          74 319 759 rmoveto
          -105 callsubr
          -55 -766 rmoveto
          -45 callsubr
          51 479 -77 callgsubr
          -21 -99 callgsubr
          endchar
        </CharString>
        <CharString name="Ubreve">
          74 345 759 -100 callsubr
          -81 -766 rmoveto
          -45 callsubr
          51 479 -77 callgsubr
          -21 -99 callgsubr
          endchar
        </CharString>
        <CharString name="Ucircumflex">
          74 249 752 -107 callsubr
          15 -759 rmoveto
          -45 callsubr
          51 479 -77 callgsubr
          -21 -99 callgsubr
          endchar
        </CharString>
        <CharString name="Udieresis">
          74 277 776 -101 callgsubr
          -150 -783 rmoveto
          -45 callsubr
          51 479 -77 callgsubr
          -21 -99 callgsubr
          endchar
        </CharString>
        <CharString name="Ugrave">
          74 360 759 -96 callgsubr
          -96 -766 rmoveto
          -45 callsubr
          51 479 -77 callgsubr
          -21 -99 callgsubr
          endchar
        </CharString>
        <CharString name="Uhorn">
          74 646 757 rmoveto
          -79 callsubr
          -36 -99 callgsubr
          -45 callsubr
          50 469 rlineto
          57 8 26 34 48 vvcurveto
          endchar
        </CharString>
        <CharString name="Uhungarumlaut">
          74 261 759 -82 callgsubr
          -135 -766 rmoveto
          -45 callsubr
          51 479 -77 callgsubr
          -21 -99 callgsubr
          endchar
        </CharString>
        <CharString name="Umacron">
          74 249 785 -88 callgsubr
          15 -792 rmoveto
          -45 callsubr
          51 479 -77 callgsubr
          -21 -99 callgsubr
          endchar
        </CharString>
        <CharString name="Uogonek">
          74 522 702 rmoveto
          -21 -99 callgsubr
          23 22 2 4 21 hvcurveto
          -13 -28 -4 -27 -18 -65 callgsubr
          -30 callsubr
          20 7 29 15 28 hvcurveto
          66 33 41 61 8 83 51 479 rcurveline
          -76 callgsubr
          endchar
        </CharString>
        <CharString name="Uring">
          74 340 737 -78 callsubr
          -81 -787 rmoveto
          -45 callsubr
          51 479 -77 callgsubr
          -21 -99 callgsubr
          endchar
        </CharString>
        <CharString name="Utilde">
          74 212 766 rmoveto
          -104 callsubr
          62 -776 rmoveto
          -45 callsubr
          51 479 -77 callgsubr
          -21 -99 callgsubr
          endchar
        </CharString>
        <CharString name="V">
          -1 204 -2 rmoveto
          46 hlineto
          22 18 4 13 4 hvcurveto
          238 653 rlineto
          2 7 2 4 5 vvcurveto
          11 1 -13 7 -31 hhcurveto
          -19 hlineto
          -22 -17 -5 -15 -6 hvcurveto
          -174 -508 -16 -57 rlineto
          -3 hlineto
          -2 56 -67 509 rlineto
          15 -2 -16 5 -22 hhcurveto
          -21 hlineto
          -31 -15 -7 -11 -1 hvcurveto
          -5 1 -4 1 -6 vhcurveto
          104 -654 rlineto
          -13 2 15 -4 22 hhcurveto
          endchar
        </CharString>
        <CharString name="W">
          243 177 -2 -93 callsubr
        </CharString>
        <CharString name="Wacute">
          243 405 759 rmoveto
          -105 callsubr
          -228 -761 -93 callsubr
        </CharString>
        <CharString name="Wcircumflex">
          243 335 752 -107 callsubr
          -158 -754 -93 callsubr
        </CharString>
        <CharString name="Wdieresis">
          243 363 776 -101 callgsubr
          -323 -778 -93 callsubr
        </CharString>
        <CharString name="Wgrave">
          243 446 759 -96 callgsubr
          -269 -761 -93 callsubr
        </CharString>
        <CharString name="X">
          -3 36 -2 rmoveto
          24 hlineto
          21 17 1 15 8 hvcurveto
          151 270 89 -270 rlineto
          -13 4 16 -3 21 hhcurveto
          27 hlineto
          33 15 6 12 1 hvcurveto
          1 5 -3 6 -3 9 -129 328 rcurveline
          184 300 5 9 3 6 1 5 rlinecurve
          12 1 -15 6 -32 hhcurveto
          -23 hlineto
          -21 -17 -2 -14 -8 hvcurveto
          -133 -240 -76 240 rlineto
          14 -4 -17 2 -20 hhcurveto
          -28 hlineto
          -33 -14 -7 -11 -1 hvcurveto
          -1 -5 3 -7 3 -8 116 -296 rcurveline
          -201 -332 -5 -10 -4 -5 -1 -5 rlinecurve
          -12 -1 13 -6 33 hhcurveto
          endchar
        </CharString>
        <CharString name="Y">
          -25 204 -2 -91 callgsubr
          endchar
        </CharString>
        <CharString name="Y.loclGUA">
          -11 441 702 -97 callsubr
          endchar
        </CharString>
        <CharString name="Yacute">
          -25 269 759 rmoveto
          -105 callsubr
          -65 -761 -91 callgsubr
          endchar
        </CharString>
        <CharString name="Yacute.loclGUA">
          -11 277 759 rmoveto
          -105 callsubr
          164 -57 -97 callsubr
          endchar
        </CharString>
        <CharString name="Ycircumflex">
          -25 199 752 -107 callsubr
          5 -754 -91 callgsubr
          endchar
        </CharString>
        <CharString name="Ycircumflex.loclGUA">
          -11 207 752 -107 callsubr
          234 -50 -97 callsubr
          endchar
        </CharString>
        <CharString name="Ydieresis">
          -25 227 776 -101 callgsubr
          -160 -778 -91 callgsubr
          endchar
        </CharString>
        <CharString name="Ydieresis.loclGUA">
          -11 235 776 -101 callgsubr
          69 -74 -97 callsubr
          endchar
        </CharString>
        <CharString name="Ygrave">
          -25 310 759 -96 callgsubr
          -106 -761 -91 callgsubr
          endchar
        </CharString>
        <CharString name="Ygrave.loclGUA">
          -11 318 759 -96 callgsubr
          123 -57 -97 callsubr
          endchar
        </CharString>
        <CharString name="Z">
          -2 30 -59 callgsubr
          endchar
        </CharString>
        <CharString name="Zacute">
          -2 283 759 rmoveto
          -105 callsubr
          -253 -759 rmoveto
          -90 callgsubr
          endchar
        </CharString>
        <CharString name="Zacute.loclPLK">
          -2 292 759 -80 callsubr
          -262 -759 rmoveto
          -90 callgsubr
          endchar
        </CharString>
        <CharString name="Zcaron">
          -2 303 757 -103 callsubr
          -273 -757 rmoveto
          -90 callgsubr
          endchar
        </CharString>
        <CharString name="Zdotaccent">
          -2 310 776 -105 callgsubr
          -280 -776 rmoveto
          -90 callgsubr
          endchar
        </CharString>
        <CharString name="a">
          -28 168 -8 -106 callsubr
        </CharString>
        <CharString name="aacute">
          -28 243 582 rmoveto
          -105 callsubr
          -75 -590 -106 callsubr
        </CharString>
        <CharString name="abreve">
          -28 269 -86 callgsubr
          -101 -590 -106 callsubr
        </CharString>
        <CharString name="acircumflex">
          -28 173 575 -107 callsubr
          -5 -83 callgsubr
        </CharString>
        <CharString name="acute">
          -253 71 582 rmoveto
          -105 callsubr
          endchar
        </CharString>
        <CharString name="acute.loclPLK">
          -253 80 582 -80 callsubr
          endchar
        </CharString>
        <CharString name="acutecomb">
          -509 18 582 rmoveto
          -105 callsubr
          endchar
        </CharString>
        <CharString name="adieresis">
          -28 201 599 -101 callgsubr
          -170 -607 -106 callsubr
        </CharString>
        <CharString name="ae">
          155 149 -7 -60 callgsubr
        </CharString>
        <CharString name="aeacute">
          155 343 582 rmoveto
          -105 callsubr
          -194 -589 -60 callgsubr
        </CharString>
        <CharString name="agrave">
          -28 284 582 -96 callgsubr
          -116 -590 -106 callsubr
        </CharString>
        <CharString name="amacron">
          -28 173 608 -88 callgsubr
          -5 -616 -106 callsubr
        </CharString>
        <CharString name="ampersand">
          11 485 413 rmoveto
          -46 20 callsubr
          2 -9 9 -25 hhcurveto
          -20 hlineto
          -25 -45 callgsubr
          -3 hvcurveto
          -22 -102 rlineto
          -80 hlineto
          -59 -23 60 50 5 hvcurveto
          41 4 22 57 57 21 15 -8 5 hhcurveto
          14 16 42 17 1 hvcurveto
          27 3 -47 8 -34 hhcurveto
          -98 -72 -59 -111 -12 hvcurveto
          -8 -73 27 -52 43 -22 -1 -4 rcurveline
          -61 -20 -42 -64 -11 -99 rrcurveto
          -148 -15 74 -62 100 hhcurveto
          57 45 20 23 42 hvcurveto
          -33 18 29 -10 35 hhcurveto
          24 48 3 33 4 hvcurveto
          8 1 -4 46 -14 -6 -6 -4 -15 hhcurveto
          -20 -10 13 51 5 hvcurveto
          20 185 rlineto
          47 hlineto
          15 8 13 callgsubr
          13 -18 callgsubr
          -361 -208 rmoveto
          91 10 36 32 69 hhcurveto
          85 hlineto
          -21 -197 -1 -7 0 -7 1 -7 rlinecurve
          -18 -38 -32 -13 -33 hhcurveto
          -48 -37 30 96 9 hvcurveto
          endchar
        </CharString>
        <CharString name="aogonek">
          -28 471 -116 rmoveto
          -30 callsubr
          19 7 29 14 28 hvcurveto
          28 8 16 21 32 vvcurveto
          13 -3 12 -8 vhcurveto
          -6 -7 -18 callsubr
          -14 -10 9 32 2 hvcurveto
          7 68 12 106 10 97 rrcurveto
          4 37 8 63 12 vvcurveto
          14 -9 8 -26 vhcurveto
          -8 hlineto
          -34 -6 -18 -31 -10 hvcurveto
          23 -18 -32 31 -56 hhcurveto
          -100 -76 -98 -167 -17 hvcurveto
          -132 -14 26 -141 113 hhcurveto
          48 44 24 63 32 hvcurveto
          4 -53 26 -22 28 -8 rrcurveto
          -21 -35 -6 -36 -22 -65 callgsubr
          -155 471 rmoveto
          -17 -166 rlineto
          -79 -23 -38 -31 -34 hhcurveto
          -62 -5 99 89 10 hvcurveto
          111 12 31 66 66 hhcurveto
          36 20 -13 callsubr
        </CharString>
        <CharString name="approxequal">
          -71 220 285 rmoveto
          -10 30 31 -11 25 hhcurveto
          42 31 22 47 19 hvcurveto
          3 7 1 5 3 vvcurveto
          -1 6 -3 4 -7 4 -8 4 rcurveline
          -15 9 -7 -9 -11 -12 rrcurveto
          -19 -13 -12 -7 -13 hhcurveto
          -21 -27 10 9 -27 hvcurveto
          10 -30 -31 11 -25 hhcurveto
          -43 -30 -22 -47 -19 hvcurveto
          -3 -6 -1 -5 -4 vvcurveto
          1 -5 3 -5 7 -4 8 -4 rcurveline
          14 -8 8 8 10 13 rrcurveto
          18 14 12 28 callsubr
          27 hvcurveto
          -15 -169 rmoveto
          -10 30 31 -11 25 hhcurveto
          42 27 callgsubr
          5 -3 5 -8 4 vhcurveto
          -7 4 -15 8 -8 -8 -10 -13 rlinecurve
          -19 -14 -12 -6 -13 hhcurveto
          -21 -26 9 10 -28 hvcurveto
          10 -30 -31 11 -25 hhcurveto
          -42 -30 -22 -47 -20 hvcurveto
          -3 -7 -1 -5 -3 vvcurveto
          1 -6 3 -4 7 -4 8 -4 rcurveline
          15 -9 7 9 11 12 rrcurveto
          19 14 11 28 callsubr
          28 hvcurveto
          endchar
        </CharString>
        <CharString name="aring">
          -28 264 -46 callgsubr
          -101 -611 -106 callsubr
        </CharString>
        <CharString name="aringacute">
          -28 283 772 rmoveto
          -105 callsubr
          -19 -212 -78 callsubr
          -101 -611 -106 callsubr
        </CharString>
        <CharString name="arrowdown">
          20 499 328 rmoveto
          -210 -192 59 547 rlineto
          16 1 -9 9 -24 hhcurveto
          -12 hlineto
          -24 -12 -22 callgsubr
          -57 -545 -163 187 -10 11 -10 -1 -2 -19 rlinecurve
          -7 -60 -2 -20 3 -6 12 -12 rlinecurve
          190 -214 rlineto
          -6 5 4 -1 8 hhcurveto
          9 4 2 5 6 hvcurveto
          236 214 14 13 4 8 1 18 rlinecurve
          7 62 1 13 -9 8 -12 -12 rlinecurve
          endchar
        </CharString>
        <CharString name="arrowleft">
          91 576 301 rmoveto
          -438 hlineto
          184 202 rlineto
          15 13 1 11 -22 hhcurveto
          -57 hlineto
          -16 -11 -4 -12 -11 hvcurveto
          -210 -230 rlineto
          -6 -6 -2 -5 -6 vvcurveto
          -1 -10 1 -4 4 -5 162 -230 rcurveline
          -12 8 11 -5 16 hhcurveto
          51 hlineto
          20 3 12 14 -10 hvcurveto
          -136 194 rlineto
          438 hlineto
          16 10 10 24 2 hvcurveto
          1 13 rlineto
          24 2 -7 10 -16 hhcurveto
          endchar
        </CharString>
        <CharString name="arrowright">
          91 593 283 rmoveto
          -161 230 rlineto
          12 -9 -11 4 -16 hhcurveto
          -51 hlineto
          -19 -4 -11 -15 10 hvcurveto
          137 -194 rlineto
          -439 hlineto
          -16 -9 -10 -24 -3 hvcurveto
          -1 -12 rlineto
          -24 -2 7 -11 16 hhcurveto
          438 hlineto
          -183 -202 rlineto
          -15 -14 0 -11 22 hhcurveto
          56 hlineto
          16 11 5 12 11 hvcurveto
          210 230 rlineto
          6 5 2 5 6 vvcurveto
          1 10 -1 4 -4 6 rrcurveto
          endchar
        </CharString>
        <CharString name="arrowup">
          -4 506 487 rmoveto
          -190 214 rlineto
          6 -5 -4 1 -8 hhcurveto
          -9 -4 -2 -5 -6 hvcurveto
          -236 -214 -14 -13 -4 -8 -1 -18 rlinecurve
          -7 -62 -1 -13 9 -8 12 12 rlinecurve
          208 191 -57 -547 rlineto
          -16 -1 9 -8 24 hhcurveto
          12 hlineto
          24 11 8 16 2 hvcurveto
          57 545 163 -186 10 -11 10 1 2 19 rlinecurve
          7 59 2 21 -3 6 -12 12 rlinecurve
          endchar
        </CharString>
        <CharString name="asciicircum">
          -149 336 353 rmoveto
          -71 309 rlineto
          17 -4 -9 6 -16 hhcurveto
          -23 hlineto
          -15 -11 -6 -17 -8 hvcurveto
          -135 -309 rlineto
          -3 -5 -1 -5 -4 vvcurveto
          -12 -1 7 -8 16 hhcurveto
          14 hlineto
          19 13 8 17 7 hvcurveto
          102 252 46 -252 rlineto
          -17 3 13 -8 18 hhcurveto
          13 hlineto
          18 8 8 12 1 hvcurveto
          4 -1 5 5 vvcurveto
          endchar
        </CharString>
        <CharString name="asciitilde">
          -72 297 223 rmoveto
          43 27 callgsubr
          -1 5 -3 5 -7 3 -8 5 rcurveline
          -14 8 -8 -8 -10 -13 rrcurveto
          -19 -14 -12 -6 -13 hhcurveto
          -21 -26 9 9 -28 hvcurveto
          11 -30 -31 10 -25 hhcurveto
          -42 -31 -21 -48 -19 hvcurveto
          -3 -6 -1 -5 -3 vvcurveto
          1 -6 3 -4 7 -4 8 -4 rcurveline
          15 -9 7 9 11 12 rrcurveto
          19 13 12 28 callsubr
          28 hvcurveto
          -10 29 32 -11 24 hhcurveto
          endchar
        </CharString>
        <CharString name="asterisk">
          -210 95 429 rmoveto
          6 7 4 7 6 hvcurveto
          61 82 44 -82 rlineto
          -7 4 6 -4 6 hhcurveto
          10 16 11 10 2 hvcurveto
          1 5 -2 5 -3 6 -47 87 rcurveline
          81 30 11 5 6 4 1 9 rlinecurve
          16 2 -9 11 -11 hhcurveto
          -4 -4 0 -3 -6 hvcurveto
          -73 -26 9 87 rlineto
          16 2 -6 7 -16 hhcurveto
          -16 -8 -7 -16 -1 hvcurveto
          -10 -87 -68 26 rlineto
          3 -5 -5 0 -3 hhcurveto
          -12 -10 -13 -15 -2 hvcurveto
          -1 -8 6 -4 10 -5 72 -30 rcurveline
          -63 -87 -5 -6 -2 -5 -1 -5 rlinecurve
          -10 -1 14 -11 11 hhcurveto
          endchar
        </CharString>
        <CharString name="at">
          283 442 706 rmoveto
          -219 -168 -206 -262 -215 112 -148 165 44 99 11 39 18 -5 8 -9 hvcurveto
          -18 -32 -29 -74 hhcurveto
          -136 -89 127 187 238 144 185 183 138 93 -109 -171 -137 -55 -125 -59 -10 -22 4 33 hvcurveto
          28 27 288 10 vvcurveto
          13 -8 9 -21 vhcurveto
          -8 hlineto
          -25 -4 -8 -32 -10 hvcurveto
          18 -15 -31 26 -43 hhcurveto
          -103 -68 -111 -158 -139 65 -43 52 44 38 24 48 26 hvcurveto
          -46 7 32 -26 50 hhcurveto
          116 82 144 178 201 -114 128 -171 hvcurveto
          -1 -491 rmoveto
          -66 -23 -32 -21 -25 hhcurveto
          -33 -25 27 88 102 23 88 75 27 20 -14 -12 12 hvcurveto
          -8 -36 -8 -105 -3 -51 rrcurveto
          endchar
        </CharString>
        <CharString name="atilde">
          -28 136 589 rmoveto
          -104 callsubr
          42 -600 -106 callsubr
        </CharString>
        <CharString name="b">
          249 -7 rmoveto
          94 73 106 165 17 hvcurveto
          171 18 -55 95 -100 hhcurveto
          -47 -31 -20 -25 -26 hvcurveto
          26 243 -77 callgsubr
          -16 -75 callsubr
          -1 hvcurveto
          -75 28 callgsubr
          29 hhcurveto
          8 hlineto
          20 13 3 13 6 hvcurveto
          15 53 rlineto
          -48 24 40 -26 45 hhcurveto
          -20 87 rmoveto
          -29 -27 22 37 -18 hvcurveto
          29 268 rlineto
          23 21 27 13 28 hhcurveto
          57 22 -57 -121 -13 hvcurveto
          -121 -13 -32 -64 -52 hhcurveto
          endchar
        </CharString>
        <CharString name="backslash">
          -220 217 -21 rmoveto
          19 hlineto
          18 10 8 12 2 hvcurveto
          4 -1 5 10 vvcurveto
          -130 660 rlineto
          17 -3 -11 7 -18 hhcurveto
          -19 hlineto
          -17 -9 -8 -11 -2 hvcurveto
          -4 0 -3 2 -13 vhcurveto
          129 -660 rlineto
          -16 2 10 -8 18 hhcurveto
          endchar
        </CharString>
        <CharString name="bar">
          -309 159 769 rmoveto
          -12 hlineto
          -22 -10 -8 -16 -2 hvcurveto
          -90 -860 rlineto
          -16 -1 8 -8 22 hhcurveto
          12 hlineto
          22 10 8 -23 callsubr
          91 860 rlineto
          16 2 -9 8 -22 hhcurveto
          endchar
        </CharString>
        <CharString name="baraccent">
          -192 65 281 -88 callgsubr
          endchar
        </CharString>
        <CharString name="baraccentlong">
          8 566 359 rmoveto
          -602 0 callsubr
          602 0 callgsubr
          endchar
        </CharString>
        <CharString name="baraccentmedium">
          -92 393 359 rmoveto
          -363 0 callsubr
          363 0 callgsubr
          endchar
        </CharString>
        <CharString name="braceleft">
          -260 130 -138 rmoveto
          43 hlineto
          16 8 9 23 2 hvcurveto
          1 7 rlineto
          23 3 -6 9 -15 hhcurveto
          -13 hlineto
          -24 -5 20 35 4 hvcurveto
          19 186 9 86 -42 44 -19 10 rlinecurve
          23 14 50 44 9 84 19 187 rcurveline
          35 4 9 19 26 hhcurveto
          11 hlineto
          15 8 35 callsubr
          7 vlineto
          23 2 -6 9 -16 hhcurveto
          -43 hlineto
          -35 -52 -29 -87 -9 hvcurveto
          -19 -180 -6 -60 -11 -35 -37 -17 rlinecurve
          -18 -8 -10 -10 -3 -20 -1 -14 rcurveline
          -2 -20 8 -10 16 -8 33 -17 4 -36 -6 -59 -19 -180 rcurveline
          -89 -9 46 -27 35 hhcurveto
          endchar
        </CharString>
        <CharString name="braceright">
          -260 -4 -138 rmoveto
          43 hlineto
          35 52 27 89 9 hvcurveto
          19 180 6 59 11 36 37 17 rlinecurve
          18 8 11 10 2 20 1 14 rcurveline
          2 20 -8 10 -16 8 -33 17 -4 35 6 60 19 180 rcurveline
          87 9 -46 29 -35 hhcurveto
          -43 hlineto
          -16 -8 -9 -23 -2 hvcurveto
          -7 vlineto
          -23 -3 6 -9 15 hhcurveto
          11 hlineto
          26 4 -19 -35 -4 hvcurveto
          -19 -187 -9 -84 42 -44 20 -14 rlinecurve
          -22 -10 -52 -44 -9 -86 -20 -186 rcurveline
          -35 -3 -8 -20 -25 hhcurveto
          -12 hlineto
          -15 -8 -9 -23 -3 hvcurveto
          -1 -7 rlineto
          -23 -2 6 -9 16 hhcurveto
          endchar
        </CharString>
        <CharString name="bracketleft">
          -270 29 -138 rmoveto
          104 hlineto
          16 6 35 callsubr
          7 vlineto
          23 3 -5 10 -16 hhcurveto
          -49 hlineto
          80 762 rlineto
          49 hlineto
          16 31 callsubr
          8 vlineto
          23 2 -4 9 -16 hhcurveto
          -104 hlineto
          -21 -12 callgsubr
          -88 -840 rlineto
          -23 -2 7 -10 21 hhcurveto
          endchar
        </CharString>
        <CharString name="bracketright">
          -270 21 -138 rmoveto
          104 hlineto
          21 9 10 23 3 hvcurveto
          88 840 rlineto
          23 2 -7 10 -21 hhcurveto
          -104 hlineto
          -15 -7 -9 -23 -3 hvcurveto
          -8 vlineto
          -23 -3 6 -9 15 hhcurveto
          50 hlineto
          -80 -762 rlineto
          -50 hlineto
          -15 -8 -35 callgsubr
          -7 vlineto
          -23 -2 5 -9 15 hhcurveto
          endchar
        </CharString>
        <CharString name="breve">
          -253 160 -86 callgsubr
          endchar
        </CharString>
        <CharString name="brokenbar">
          -309 159 770 rmoveto
          -12 hlineto
          -22 -10 -22 callgsubr
          -12 -108 -23 -206 -11 vvcurveto
          -15 7 -9 23 vhcurveto
          11 hlineto
          22 10 -40 callgsubr
          11 109 23 205 10 vvcurveto
          16 -6 9 -23 vhcurveto
          -56 -537 rmoveto
          -12 hlineto
          -23 -10 -22 callgsubr
          -11 -108 -23 -202 -13 vvcurveto
          -16 6 -9 23 vhcurveto
          12 hlineto
          22 10 -40 callgsubr
          11 107 23 205 11 vvcurveto
          16 -7 9 -22 vhcurveto
          endchar
        </CharString>
        <CharString name="bullet">
          -211 143 200 rmoveto
          64 56 40 86 10 hvcurveto
          86 9 -49 41 -64 hhcurveto
          -64 -57 -41 -86 -9 hvcurveto
          -86 -9 49 -40 64 hhcurveto
          endchar
        </CharString>
        <CharString name="c">
          -101 225 -7 -86 callsubr
        </CharString>
        <CharString name="cacute">
          -101 243 582 rmoveto
          -105 callsubr
          -18 -589 -86 callsubr
        </CharString>
        <CharString name="cacute.loclPLK">
          -101 252 582 -80 callsubr
          -27 -589 -86 callsubr
        </CharString>
        <CharString name="caron">
          -253 153 580 -103 callsubr
          endchar
        </CharString>
        <CharString name="caron.alt">
          -253 108 522 -44 callsubr
          endchar
        </CharString>
        <CharString name="ccaron">
          -101 263 580 -103 callsubr
          -38 -587 -86 callsubr
        </CharString>
        <CharString name="ccedilla">
          -101 280 530 rmoveto
          -127 -90 -67 -200 -20 hvcurveto
          -18 -174 50 -82 117 -12 rrcurveto
          -18 -56 -3 -10 -8 -70 callgsubr
          14 50 54 4 71 26 2 26 rlinecurve
          16 2 -15 42 -16 hhcurveto
          -3 -6 -4 -4 -7 hvcurveto
          -9 -17 -26 -12 -39 hhcurveto
          -77 -25 54 132 13 hvcurveto
          131 14 43 48 70 hhcurveto
          36 24 -14 -8 13 hvcurveto
          -3 6 4 -3 3 hhcurveto
          14 26 43 18 1 hvcurveto
          28 4 -65 25 -64 hhcurveto
          endchar
        </CharString>
        <CharString name="ccircumflex">
          -101 173 575 -107 callsubr
          52 -582 -86 callsubr
        </CharString>
        <CharString name="cdotaccent">
          -101 270 -84 callsubr
          -45 -606 -86 callsubr
        </CharString>
        <CharString name="cedilla">
          -253 151 -56 rmoveto
          17 59 rlineto
          -48 hlineto
          -21 -63 -3 -11 -8 -70 callgsubr
          endchar
        </CharString>
        <CharString name="cent">
          -69 287 530 rmoveto
          3 32 rlineto
          14 -4 6 -14 vhcurveto
          -6 hlineto
          -14 -5 -6 -14 -2 hvcurveto
          -4 -34 -106 -13 -74 -73 -18 -179 rlinecurve
          -18 -171 48 -82 112 -15 -5 -47 rcurveline
          -14 3 -6 15 vhcurveto
          6 hlineto
          13 6 7 13 2 hvcurveto
          5 45 54 2 81 27 2 28 rlinecurve
          16 2 -15 42 -16 hhcurveto
          -3 -6 -4 -4 -7 hvcurveto
          -9 -17 -26 -12 -39 hhcurveto
          -1 hlineto
          39 365 rlineto
          36 24 -14 -8 13 hvcurveto
          -3 6 4 -3 3 hhcurveto
          14 26 43 18 1 hvcurveto
          4 27 -61 24 -61 2 rrcurveto
          -92 -442 rmoveto
          -42 20 -12 55 10 102 11 99 27 52 43 19 rrcurveto
          endchar
        </CharString>
        <CharString name="circumflex">
          -253 65 575 -107 callsubr
          endchar
        </CharString>
        <CharString name="colon">
          -321 97 402 rmoveto
          23 hlineto
          31 13 8 17 2 5 callsubr
          -2 12 -8 31 hhcurveto
          -42 -404 29 callgsubr
          2 hvcurveto
          8 73 rlineto
          17 1 -11 8 -32 hhcurveto
          -22 -14 callsubr
          endchar
        </CharString>
        <CharString name="comma">
          -321 -2 -119 -13 callgsubr
        </CharString>
        <CharString name="commaaccentinvert">
          -156 194 767 rmoveto
          -27 -58 -65 -87 -20 12 -13 26 hvcurveto
          -6 callsubr
          vhcurveto
          endchar
        </CharString>
        <CharString name="copyright">
          -26 callgsubr
          11 94 rmoveto
          41 59 23 22 7 -12 29 -13 hvcurveto
          -6 -24 -27 -45 hhcurveto
          -58 -28 49 106 107 28 49 59 hvcurveto
          44 19 -25 5 hhcurveto
          10 16 29 12 18 -51 19 -42 -100 -51 -69 -140 -143 48 -66 101 hvcurveto
          endchar
        </CharString>
        <CharString name="currency">
          -47 77 122 rmoveto
          7 8 4 7 8 hvcurveto
          26 24 rlineto
          -20 24 30 -11 34 hhcurveto
          36 32 11 20 28 hvcurveto
          21 -23 rlineto
          -8 7 7 -4 7 hhcurveto
          8 7 4 6 6 hvcurveto
          11 10 6 6 5 9 1 5 rlinecurve
          1 8 -3 7 -7 8 -26 29 rcurveline
          18 29 13 33 4 36 4 36 -6 34 -12 29 33 31 rcurveline
          9 8 4 7 1 8 1 7 -3 5 -6 7 -9 10 rcurveline
          7 -6 -8 3 -6 hhcurveto
          -7 -8 -4 -7 -7 hvcurveto
          -29 -25 rlineto
          19 -23 -30 13 -35 hhcurveto
          -34 -32 -13 -20 -28 hvcurveto
          -22 26 rlineto
          8 -7 -7 4 -8 hhcurveto
          -6 -8 -4 -5 -6 hvcurveto
          -12 -13 -6 -6 -3 -7 -1 -5 rlinecurve
          -1 -8 3 -8 6 -7 28 -29 rcurveline
          -20 -29 -12 -35 -4 -37 -4 -36 6 -34 12 -28 -32 -29 rcurveline
          -8 -8 -5 -8 -1 -7 rrcurveto
          -8 2 -6 6 -6 vhcurveto
          8 -10 rlineto
          -6 7 7 -4 6 hhcurveto
          145 80 rmoveto
          -46 -34 38 72 7 hvcurveto
          72 8 42 40 47 hhcurveto
          47 33 -40 -72 -8 hvcurveto
          -72 -7 -42 -38 -47 hhcurveto
          endchar
        </CharString>
        <CharString name="d">
          -28 -82 callsubr
          39 87 -24 callsubr
        </CharString>
        <CharString name="dagger">
          21 callsubr
          56 534 -27 callsubr
          -57 -534 rlineto
          -16 -1 10 -9 26 hhcurveto
          endchar
        </CharString>
        <CharString name="daggerdbl">
          21 callsubr
          18 170 rlineto
          111 11 callsubr
          16 29 callsubr
          -111 hlineto
          29 276 -27 callsubr
          -30 -276 rlineto
          -113 hlineto
          -15 26 callgsubr
          -16 rlineto
          -25 -2 5 -11 15 hhcurveto
          113 hlineto
          -18 -170 rlineto
          -16 -1 10 -9 26 hhcurveto
          endchar
        </CharString>
        <CharString name="dcaron">
          -28 -82 callsubr
          355 529 -44 callsubr
          -316 -442 -24 callsubr
        </CharString>
        <CharString name="dcroat">
          -28 500 671 rmoveto
          -46 hlineto
          6 57 -28 callgsubr
          -31 -9 callsubr
          -6 -57 rlineto
          -47 hlineto
          -15 -7 -35 callgsubr
          -1 -11 rlineto
          -23 -2 6 -10 15 hhcurveto
          46 hlineto
          -12 -109 rlineto
          25 -22 -27 20 -46 hhcurveto
          -100 -75 -96 -170 -18 hvcurveto
          -165 -17 50 -106 93 hhcurveto
          48 46 28 51 32 hvcurveto
          -63 8 40 -16 36 hhcurveto
          36 28 18 4 callsubr
          -12 -7 -7 -18 callsubr
          -15 -8 10 37 2 hvcurveto
          12 118 20 181 18 169 rrcurveto
          46 hlineto
          16 7 10 23 2 hvcurveto
          2 11 8 callsubr
          -207 -530 rmoveto
          -38 -25 -31 -23 -30 hhcurveto
          -52 -19 65 119 13 hvcurveto
          120 12 35 59 58 hhcurveto
          28 23 -13 -23 17 hvcurveto
          endchar
        </CharString>
        <CharString name="degree">
          -233 157 442 rmoveto
          61 50 47 85 9 hvcurveto
          85 9 -40 48 -61 hhcurveto
          -61 -50 -48 -85 -9 hvcurveto
          -85 -9 40 -47 61 hhcurveto
          5 50 rmoveto
          -32 -19 28 54 6 hvcurveto
          53 6 23 30 32 hhcurveto
          32 19 -30 -53 -6 hvcurveto
          -54 -6 -23 -28 -32 hhcurveto
          endchar
        </CharString>
        <CharString name="dieresis">
          -253 95 599 -101 callgsubr
          endchar
        </CharString>
        <CharString name="divide">
          -61 229 353 rmoveto
          7 hlineto
          31 14 -40 callgsubr
          6 57 rlineto
          16 1 -11 9 -31 hhcurveto
          -7 hlineto
          -32 -13 -9 -16 -2 hvcurveto
          -5 -57 -62 callgsubr
          11 -9 31 hhcurveto
          -185 -163 rmoveto
          346 hlineto
          18 7 30 callgsubr
          24 2 -5 11 -18 hhcurveto
          -346 hlineto
          -17 -9 -11 -24 25 callsubr
          -2 6 -12 17 hhcurveto
          148 -192 rmoveto
          7 hlineto
          31 14 -40 callgsubr
          6 57 -77 callgsubr
          -7 -75 callsubr
          -1 hvcurveto
          -6 -57 -65 callsubr
          endchar
        </CharString>
        <CharString name="dollar">
          -69 180 -70 rmoveto
          6 hlineto
          13 8 6 14 1 hvcurveto
          5 46 rlineto
          115 14 68 78 118 vvcurveto
          98 -58 50 -83 45 vhcurveto
          23 218 rlineto
          29 29 -8 -12 28 hvcurveto
          -2 6 7 -3 5 hhcurveto
          17 17 53 18 7 -3 6 -8 5 hvcurveto
          -26 15 -47 11 -43 2 1 10 0 12 1 7 rrcurveto
          13 -4 7 -12 vhcurveto
          -7 hlineto
          -15 -5 -6 -14 -2 hvcurveto
          -3 -29 rlineto
          -111 -9 -76 -78 -112 vvcurveto
          -108 73 -49 71 -41 vhcurveto
          -24 -224 rlineto
          -52 -38 10 25 -37 hvcurveto
          3 -4 -4 3 -6 hhcurveto
          -18 -13 -43 -24 -18 12 -8 13 -6 hvcurveto
          39 -27 46 -8 53 -1 rrcurveto
          -2 -20 -2 -20 -4 vvcurveto
          -14 3 -6 14 vhcurveto
          32 494 rmoveto
          -35 25 -20 28 39 vvcurveto
          55 32 30 44 11 vhcurveto
          -10 -517 rmoveto
          20 191 rlineto
          30 -22 20 -28 -40 vvcurveto
          -57 -29 -32 -41 -12 vhcurveto
          endchar
        </CharString>
        <CharString name="dotaccent">
          -253 165 -84 callsubr
          endchar
        </CharString>
        <CharString name="dotbelowcomb">
          -509 -46 -183 -105 callgsubr
          endchar
        </CharString>
        <CharString name="dotlessi">
          -255 136 -4 -98 callsubr
          endchar
        </CharString>
        <CharString name="e">
          -55 149 216 -100 callgsubr
          endchar
        </CharString>
        <CharString name="eacute">
          -55 254 582 rmoveto
          -105 callsubr
          -105 -366 -100 callgsubr
          endchar
        </CharString>
        <CharString name="ebreve">
          -55 280 -86 callgsubr
          -131 -366 -100 callgsubr
          endchar
        </CharString>
        <CharString name="ecaron">
          -55 230 601 rmoveto
          -16 8 15 -5 21 hhcurveto
          12 hlineto
          22 14 5 16 11 hvcurveto
          65 91 rlineto
          5 7 4 6 4 vvcurveto
          9 1 -7 5 -12 hhcurveto
          -22 hlineto
          -16 -12 -5 -11 -7 hvcurveto
          -46 -64 -32 64 rlineto
          11 -7 -9 5 -15 hhcurveto
          -21 hlineto
          -13 -8 -5 -8 -1 hvcurveto
          -4 3 -8 2 -6 vhcurveto
          -36 -476 -100 callgsubr
          endchar
        </CharString>
        <CharString name="ecircumflex">
          -55 184 575 -107 callsubr
          -35 -359 -100 callgsubr
          endchar
        </CharString>
        <CharString name="edieresis">
          -55 212 599 -101 callgsubr
          -200 -383 -100 callgsubr
          endchar
        </CharString>
        <CharString name="edotaccent">
          -55 281 -84 callsubr
          -132 -383 -100 callgsubr
          endchar
        </CharString>
        <CharString name="egrave">
          -55 295 582 -96 callgsubr
          -146 -366 -100 callgsubr
          endchar
        </CharString>
        <CharString name="eight">
          -50 200 -7 rmoveto
          122 82 82 121 12 hvcurveto
          11 103 -44 46 -53 32 52 26 46 48 9 85 rrcurveto
          113 11 -73 58 -96 hhcurveto
          -104 -81 -64 -114 -12 hvcurveto
          -8 -81 30 -44 41 -31 -55 -27 -52 -52 -10 -100 rrcurveto
          -128 -13 69 -73 116 hhcurveto
          60 425 rmoveto
          -45 25 -37 27 7 64 rrcurveto
          60 6 37 27 41 hhcurveto
          41 31 -27 -62 -6 hvcurveto
          -6 -53 -29 -35 -40 -26 rrcurveto
          -51 -339 rmoveto
          -49 -36 36 84 8 hvcurveto
          7 67 30 37 43 28 55 -29 54 -26 -10 -82 rrcurveto
          -68 -6 -44 -47 -52 hhcurveto
          endchar
        </CharString>
        <CharString name="ellipsis">
          43 56 -2 rmoveto
          21 hlineto
          31 13 9 16 3 hvcurveto
          7 73 rlineto
          17 2 -12 8 -31 hhcurveto
          -21 hlineto
          -31 -13 -8 -17 -2 hvcurveto
          -8 -73 -65 callsubr
          183 hmoveto
          20 hlineto
          32 13 9 16 3 hvcurveto
          7 73 rlineto
          17 2 -12 8 -31 hhcurveto
          -21 -14 callsubr
          183 hmoveto
          21 -20 callsubr
          8 73 rlineto
          17 2 -12 8 -31 hhcurveto
          -21 -14 callsubr
          endchar
        </CharString>
        <CharString name="emacron">
          -55 184 608 -88 callgsubr
          -35 -392 -100 callgsubr
          endchar
        </CharString>
        <CharString name="emdash">
          377 18 225 rmoveto
          843 15 callgsubr
          -843 -8 callgsubr
        </CharString>
        <CharString name="endash">
          -66 18 225 rmoveto
          400 15 callgsubr
          -400 -8 callgsubr
        </CharString>
        <CharString name="eng">
          242 -212 rmoveto
          52 68 30 111 12 hvcurveto
          48 450 rlineto
          95 10 -38 56 -79 hhcurveto
          -52 -48 -31 -45 -33 hvcurveto
          33 -3 4 35 -27 hhcurveto
          -14 -61 -6 -20 -2 hvcurveto
          -1 -9 6 -34 -9 -87 -37 -343 rcurveline
          -16 -1 12 -9 30 hhcurveto
          18 -20 callsubr
          38 360 rlineto
          34 20 31 25 32 hhcurveto
          41 15 -28 -51 -5 hvcurveto
          -43 -429 rlineto
          -48 -5 -16 -13 -19 -21 -7 5 -7 hhcurveto
          -16 -12 -42 -12 -1 hvcurveto
          -30 -3 41 -6 36 hhcurveto
          endchar
        </CharString>
        <CharString name="eogonek">
          -55 427 -79 rmoveto
          -30 callsubr
          19 6 28 14 27 hvcurveto
          4 3 4 4 3 4 rrcurveto
          12 16 4 20 18 vvcurveto
          16 -5 13 -11 vhcurveto
          -16 -37 -47 -71 hhcurveto
          -62 -41 29 106 3 hvcurveto
          2 vlineto
          -80 callgsubr
          -165 -75 -149 -182 -162 93 -44 100 15 19 2 5 20 hvcurveto
          -8 -23 -3 -22 -15 -65 callgsubr
          -153 523 6 callsubr
        </CharString>
        <CharString name="equal">
          -60 60 270 rmoveto
          332 14 callgsubr
          -332 hlineto
          -16 -9 -11 -24 19 callgsubr
          6 -12 17 hhcurveto
          -18 -169 rmoveto
          332 14 callsubr
          -332 hlineto
          -17 -9 -11 -25 19 callgsubr
          7 -12 16 hhcurveto
          endchar
        </CharString>
        <CharString name="estimated">
          106 156 355 rmoveto
          437 hlineto
          227 -127 125 -154 -159 -131 -125 -227 -232 135 -130 163 81 77 39 65 55 vhcurveto
          6 8 4 7 6 vvcurveto
          12 -14 16 -16 -8 -7 -6 -9 -6 vhcurveto
          -52 -38 -74 -31 -60 hhcurveto
          -64 -57 22 45 -43 hvcurveto
          156 542 rmoveto
          56 54 -23 -44 41 hvcurveto
          -185 -307 187 vlineto
          43 41 55 22 60 hhcurveto
          endchar
        </CharString>
        <CharString name="eth">
          -32 445 636 rmoveto
          9 -7 26 -18 -4 -42 -6 -5 -30 vhcurveto
          -12 18 -9 13 -10 12 rrcurveto
          7 -7 -8 4 -13 hhcurveto
          -14 -13 -2 -1 -11 hvcurveto
          -12 -2 -5 -5 -1 -7 -1 -9 13 -19 12 -20 -64 -9 rcurveline
          -12 -2 -6 -5 -1 -7 rrcurveto
          -16 -1 12 -19 16 hhcurveto
          2 2 1 10 75 hvcurveto
          13 -26 12 -28 8 -28 rrcurveto
          4 -15 -16 2 -19 hhcurveto
          -125 -73 -95 -171 -18 hvcurveto
          -173 -18 65 -94 121 hhcurveto
          135 70 94 174 18 hvcurveto
          13 130 -27 117 -51 107 57 7 rcurveline
          11 1 7 5 1 8 rrcurveto
          -117 -375 rmoveto
          -127 -14 -34 -55 -61 hhcurveto
          -62 -21 55 127 13 hvcurveto
          126 14 32 54 62 hhcurveto
          62 22 -55 -125 -13 hvcurveto
          endchar
        </CharString>
        <CharString name="exclam">
          -263 105 208 rmoveto
          8 hlineto
          29 7 9 16 3 hvcurveto
          27 148 28 149 26 148 rrcurveto
          15 2 -14 9 -28 hhcurveto
          -30 -75 callsubr
          -1 hvcurveto
          -47 -444 rlineto
          -16 -1 7 -9 29 hhcurveto
          -30 -210 29 callgsubr
          2 hvcurveto
          8 73 rlineto
          17 1 -12 8 -31 hhcurveto
          -22 hlineto
          -31 -14 -8 -17 -1 20 callgsubr
          11 -9 32 hhcurveto
          endchar
        </CharString>
        <CharString name="exclamdown">
          -263 140 402 rmoveto
          23 hlineto
          31 14 8 17 1 5 callsubr
          -1 11 -8 31 hhcurveto
          -82 -581 rmoveto
          30 hlineto
          31 13 -40 callgsubr
          47 444 rlineto
          16 1 -6 9 -29 hhcurveto
          -9 hlineto
          -29 -7 -9 -16 -2 hvcurveto
          -29 -149 -51 -273 -3 -24 rrcurveto
          -15 -1 14 -8 28 hhcurveto
          endchar
        </CharString>
        <CharString name="f">
          -223 102 -2 -4 callgsubr
          44 415 rlineto
          57 hlineto
          16 8 -9 callgsubr
          -57 -73 callgsubr
          endchar
        </CharString>
        <CharString name="f_f">
          63 544 757 rmoveto
          -56 -69 -27 -110 -12 hvcurveto
          -10 -97 rlineto
          -183 -73 callgsubr
          -23 callgsubr
          44 415 rlineto
          184 hlineto
          -45 -415 rlineto
          12 callgsubr
          -23 callgsubr
          44 415 rlineto
          57 hlineto
          16 8 -9 callgsubr
          -57 hlineto
          10 92 rlineto
          48 5 17 9 22 17 8 -6 8 hhcurveto
          16 13 47 8 1 hvcurveto
          26 3 -46 10 -30 hhcurveto
          endchar
        </CharString>
        <CharString name="f_t">
          75 524 438 rmoveto
          38 11 52 14 14 -3 5 -13 hvcurveto
          -60 20 callsubr
          -12 9 -31 vhcurveto
          -11 hlineto
          -30 -16 -7 -18 -2 hvcurveto
          -11 -102 rlineto
          -29 hlineto
          -1 hlineto
          -150 -73 callgsubr
          -23 callgsubr
          44 415 rlineto
          180 hlineto
          -21 -198 -11 -107 -25 1 callsubr
          47 12 92 20 183 hvcurveto
          endchar
        </CharString>
        <CharString name="fi">
          31 486 85 -3 callgsubr
          -14 -9 10 37 4 hvcurveto
          9 98 14 119 16 155 rrcurveto
          16 -12 7 -32 vhcurveto
          -223 -73 callgsubr
          -23 callgsubr
          44 415 rlineto
          167 hlineto
          -27 -251 -2 -25 -2 -30 -3 -25 rlinecurve
          -95 -6 48 -16 42 hhcurveto
          37 27 17 28 7 -32 callsubr
          hhcurveto
          -37 617 -69 callgsubr
        </CharString>
        <CharString name="five">
          -50 171 -7 rmoveto
          103 120 50 169 18 hvcurveto
          168 17 -106 47 -109 hhcurveto
          -35 hlineto
          32 188 rlineto
          191 hlineto
          16 8 10 23 3 hvcurveto
          1 16 30 callsubr
          -254 hlineto
          -23 -11 -10 -23 -4 hvcurveto
          -48 -292 rlineto
          -23 -3 6 -10 24 hhcurveto
          80 hlineto
          95 43 -45 -85 -8 hvcurveto
          -88 -10 -59 -45 -63 -72 -35 36 -14 hhcurveto
          -15 -30 -39 -19 -2 hvcurveto
          -29 -3 66 -35 100 hhcurveto
          endchar
        </CharString>
        <CharString name="fl">
          47 102 -2 -4 callgsubr
          44 415 rlineto
          57 hlineto
          16 8 -9 callgsubr
          -57 -73 callgsubr
          340 -5 -20 callgsubr
        </CharString>
        <CharString name="florin">
          -180 272 757 rmoveto
          -65 -75 -29 -112 -14 hvcurveto
          -12 -93 rlineto
          -34 hlineto
          -27 -4 -35 -23 -17 3 -10 15 hvcurveto
          34 hlineto
          -86 -621 rlineto
          -15 11 -9 32 vhcurveto
          11 hlineto
          29 17 8 16 2 hvcurveto
          87 621 rlineto
          55 hlineto
          38 14 52 14 14 -3 5 -13 hvcurveto
          -79 hlineto
          12 87 rlineto
          51 7 20 11 29 27 10 -6 5 hhcurveto
          14 17 46 11 31 -51 3 -26 hvcurveto
          endchar
        </CharString>
        <CharString name="four">
          -50 284 -2 rmoveto
          24 hlineto
          27 13 -40 callgsubr
          14 137 rlineto
          48 hlineto
          16 8 10 26 2 hvcurveto
          1 13 rlineto
          25 4 -6 11 -16 hhcurveto
          -47 hlineto
          45 432 rlineto
          16 1 -11 9 -27 hhcurveto
          -29 hlineto
          -18 -17 -3 -13 -8 hvcurveto
          -300 -452 -2 -3 -1 -3 -1 -5 rlinecurve
          -21 -2 10 -42 13 hhcurveto
          235 hlineto
          -14 -137 -62 callgsubr
          11 -9 27 hhcurveto
          -171 247 rmoveto
          195 298 3 -2 -9 -38 -7 -34 -6 -54 rlinecurve
          -18 -170 rlineto
          endchar
        </CharString>
        <CharString name="fraction">
          -245 378 701 rmoveto
          -22 hlineto
          -16 -11 -8 -13 -9 hvcurveto
          -436 -660 rlineto
          -3 -5 -1 -5 -3 vvcurveto
          -5 4 -3 11 vhcurveto
          22 hlineto
          16 10 7 14 10 hvcurveto
          435 660 rlineto
          4 5 1 4 2 vvcurveto
          6 -5 4 -10 vhcurveto
          endchar
        </CharString>
        <CharString name="g">
          -38 400 525 -89 callsubr
        </CharString>
        <CharString name="g.ss01">
          -38 183 -212 -95 callgsubr
        </CharString>
        <CharString name="gbreve">
          -38 261 -86 callgsubr
          139 -57 -89 callsubr
        </CharString>
        <CharString name="gbreve.ss01">
          -38 275 -86 callgsubr
          -92 -794 -95 callgsubr
        </CharString>
        <CharString name="gcircumflex">
          -38 165 575 -107 callsubr
          235 -50 -89 callsubr
        </CharString>
        <CharString name="gcircumflex.ss01">
          -38 179 575 -107 callsubr
          4 -787 -95 callgsubr
        </CharString>
        <CharString name="gcommaaccent">
          -38 255 582 rmoveto
          -6 callsubr
          -27 -58 -65 -87 -20 12 -13 26 vhcurveto
          145 -57 -89 callsubr
        </CharString>
        <CharString name="gcommaaccent.ss01">
          -38 316 767 rmoveto
          -27 -58 -65 -87 -20 12 -13 26 hvcurveto
          -6 callsubr
          vhcurveto
          -133 -979 -95 callgsubr
        </CharString>
        <CharString name="gdotaccent">
          -38 262 -84 callsubr
          138 -74 -89 callsubr
        </CharString>
        <CharString name="gdotaccent.ss01">
          -38 276 -84 callsubr
          -93 -811 -95 callgsubr
        </CharString>
        <CharString name="germandbls">
          -29 87 -2 rmoveto
          16 hlineto
          30 14 9 16 3 hvcurveto
          52 505 rlineto
          58 6 30 33 46 hhcurveto
          40 27 -24 -71 -7 hvcurveto
          -68 -8 -36 -43 -41 hhcurveto
          -5 hlineto
          -14 -7 -11 -24 -3 hvcurveto
          -2 -14 rlineto
          -25 -2 5 -11 16 hhcurveto
          12 hlineto
          50 31 -42 -81 -9 hvcurveto
          -79 -8 -38 -41 -47 hhcurveto
          -17 hlineto
          -15 -8 -36 callsubr
          16 hhcurveto
          21 hlineto
          108 80 72 132 14 hvcurveto
          10 90 -27 64 -66 23 rrcurveto
          3 vlineto
          54 25 38 58 7 69 rrcurveto
          124 13 -76 47 -94 hhcurveto
          -114 -72 -75 -109 -11 hvcurveto
          -52 -500 rlineto
          -16 -3 12 -9 32 hhcurveto
          endchar
        </CharString>
        <CharString name="grave">
          -253 183 582 -96 callgsubr
          endchar
        </CharString>
        <CharString name="gravecomb">
          -509 22 582 -96 callgsubr
          endchar
        </CharString>
        <CharString name="greater">
          -61 9 38 rmoveto
          -2 -24 6 -13 22 11 349 174 rcurveline
          17 8 7 11 1 18 1 18 rcurveline
          1 18 -3 11 -15 8 -311 174 rcurveline
          -19 10 -8 -9 -3 -27 -2 -15 rcurveline
          -2 -24 3 -11 16 -8 239 -132 rcurveline
          -269 -136 -18 -9 -6 -15 -2 -24 rlinecurve
          endchar
        </CharString>
        <CharString name="greaterequal">
          -56 22 147 rmoveto
          -4 -33 7 -4 24 12 347 168 rcurveline
          16 8 9 10 1 18 2 18 rcurveline
          2 18 -6 11 -15 8 -311 167 rcurveline
          -22 11 -4 -6 -4 -30 -1 -13 rcurveline
          -3 -21 4 -12 15 -9 233 -133 rcurveline
          -262 -133 -17 -9 -6 -10 -2 -19 rlinecurve
          7 -164 17 callgsubr
          -7 12 -16 16 callsubr
          6 -11 17 hhcurveto
          endchar
        </CharString>
        <CharString name="guillemotleft">
          -38 116 253 rmoveto
          125 148 7 8 5 34 callgsubr
          -9 -7 -4 -8 -10 hvcurveto
          -138 -155 -23 -22 -5 -21 15 -23 17 callsubr
          2 hvcurveto
          6 -1 5 -4 6 vhcurveto
          201 352 rmoveto
          -9 -8 -4 -8 -9 hvcurveto
          -138 -155 -22 -21 -6 -20 15 -25 17 callsubr
          1 hvcurveto
          1 6 -2 5 -3 6 -82 147 rcurveline
          125 148 6 8 6 34 callgsubr
          endchar
        </CharString>
        <CharString name="guillemotright">
          -38 263 290 rmoveto
          -95 155 rlineto
          8 -6 -7 5 -8 hhcurveto
          -19 -24 -21 -11 -1 hvcurveto
          -1 -6 2 -5 3 -6 82 -147 rcurveline
          -125 -148 -6 -8 -6 -8 -1 -6 rlinecurve
          -18 -2 24 -17 13 hhcurveto
          9 8 4 8 9 hvcurveto
          138 155 22 21 6 20 -15 25 rlinecurve
          180 hmoveto
          -95 155 rlineto
          8 -6 -7 5 -8 hhcurveto
          -19 -24 -21 -11 -2 hvcurveto
          -6 1 -5 4 -6 vhcurveto
          82 -147 -125 -148 -7 -8 -5 -8 -1 -6 rlinecurve
          -18 -2 24 -17 13 hhcurveto
          9 7 4 8 10 hvcurveto
          138 155 23 22 5 21 -15 23 rlinecurve
          endchar
        </CharString>
        <CharString name="guilsinglleft">
          -262 144 58 rmoveto
          15 32 17 16 2 hvcurveto
          1 7 -2 7 -4 7 -76 146 rcurveline
          107 146 5 7 3 7 1 6 rlinecurve
          19 2 -30 15 -14 hhcurveto
          -8 -7 -3 -9 -8 hvcurveto
          -118 -155 -10 -13 -4 -8 -2 -12 rlinecurve
          -1 -12 3 -8 7 -13 86 -155 rcurveline
          -9 5 7 -3 8 hhcurveto
          endchar
        </CharString>
        <CharString name="guilsinglright">
          -262 69 58 rmoveto
          7 7 3 9 8 hvcurveto
          119 155 9 13 5 8 1 12 rlinecurve
          2 12 -4 8 -6 13 -87 155 rcurveline
          9 -5 -7 3 -7 hhcurveto
          -14 -33 -15 -19 -3 hvcurveto
          -1 -6 3 -7 3 -7 78 -146 rcurveline
          -109 -146 -4 -7 -4 -7 -1 -7 rlinecurve
          -16 -1 28 -17 16 hhcurveto
          endchar
        </CharString>
        <CharString name="h">
          -24 379 -4 -69 callsubr
          endchar
        </CharString>
        <CharString name="hbar">
          -24 442 85 rmoveto
          -49 callsubr
          26 18 21 185 7 61 hvcurveto
          105 11 -51 46 -68 hhcurveto
          -54 -46 -30 -38 -30 hvcurveto
          13 132 rlineto
          69 hlineto
          17 8 10 23 2 hvcurveto
          2 11 rlineto
          23 2 -5 10 -17 hhcurveto
          -70 hlineto
          6 57 rlineto
          16 3 -12 9 -30 hhcurveto
          -18 -11 callgsubr
          -6 -57 rlineto
          -35 hlineto
          -16 -7 -35 callgsubr
          -1 -11 rlineto
          -23 -2 6 -10 16 hhcurveto
          34 hlineto
          -60 -571 -65 callsubr
          17 hlineto
          30 -6 callgsubr
          37 360 rlineto
          21 11 34 38 42 hhcurveto
          43 16 -29 -50 -6 hvcurveto
          -20 -195 rlineto
          -4 -40 -2 -22 -12 vvcurveto
          -78 46 -20 41 47 27 23 43 12 -3 11 -8 vhcurveto
          endchar
        </CharString>
        <CharString name="hcircumflex">
          -24 74 782 -107 callsubr
          305 -786 -69 callsubr
          endchar
        </CharString>
        <CharString name="hookabovecomb">
          -509 -228 565 -91 callsubr
          endchar
        </CharString>
        <CharString name="hungarumlaut">
          -202 32 582 -82 callgsubr
          endchar
        </CharString>
        <CharString name="hyphen">
          -253 44 225 rmoveto
          160 -51 callsubr
          1 9 -47 callgsubr
          -161 -8 callgsubr
        </CharString>
        <CharString name="i">
          -255 153 -84 callsubr
          -17 -603 -98 callsubr
          endchar
        </CharString>
        <CharString name="i.loclTRK">
          -255 155 -84 callsubr
          -19 -603 -98 callsubr
          endchar
        </CharString>
        <CharString name="iacute">
          -255 128 582 rmoveto
          -105 callsubr
          8 -586 -98 callsubr
          endchar
        </CharString>
        <CharString name="iacute_j.loclNLD">
          -6 128 582 rmoveto
          -105 callsubr
          256 hmoveto
          -105 callsubr
          -248 -586 -98 callsubr
          125 -208 -87 callsubr
        </CharString>
        <CharString name="ibreve">
          -255 154 -86 callgsubr
          -18 -586 -98 callsubr
          endchar
        </CharString>
        <CharString name="icircumflex">
          -255 58 575 -107 callsubr
          78 -579 -98 callsubr
          endchar
        </CharString>
        <CharString name="idieresis">
          -255 86 599 -101 callgsubr
          -87 -603 -98 callsubr
          endchar
        </CharString>
        <CharString name="igrave">
          -255 169 582 -96 callgsubr
          -33 -586 -98 callsubr
          endchar
        </CharString>
        <CharString name="ij">
          -6 153 -84 callsubr
          255 hmoveto
          36 17 9 15 2 hvcurveto
          5 -36 callgsubr
          2 -15 9 -36 hhcurveto
          -37 -16 -10 -15 -1 hvcurveto
          -6 -54 -62 callgsubr
          14 -8 37 hhcurveto
          -272 -603 -98 callsubr
          125 -208 -87 callsubr
        </CharString>
        <CharString name="imacron">
          -255 58 608 -88 callgsubr
          78 -612 -98 callsubr
          endchar
        </CharString>
        <CharString name="infinity">
          121 478 445 rmoveto
          -64 -54 -45 -66 -35 hvcurveto
          74 -22 -43 37 -59 hhcurveto
          -83 -68 -69 -98 -10 hvcurveto
          -94 -10 49 -70 79 hhcurveto
          64 54 45 66 35 hvcurveto
          -74 21 43 -37 59 hhcurveto
          84 67 69 98 10 hvcurveto
          94 10 -48 70 -79 hhcurveto
          -304 -255 rmoveto
          -40 -18 39 51 5 hvcurveto
          53 6 30 39 39 hhcurveto
          32 27 -28 -68 16 hvcurveto
          -42 -22 -34 -44 -41 hhcurveto
          340 89 rmoveto
          -53 -5 -30 -39 -39 hhcurveto
          -32 -28 28 68 -15 hvcurveto
          42 21 34 44 41 hhcurveto
          40 18 -39 -51 -5 hvcurveto
          endchar
        </CharString>
        <CharString name="integral">
          -211 23 -162 rmoveto
          88 56 78 175 18 hvcurveto
          17 169 9 189 17 161 rrcurveto
          134 15 21 56 42 17 9 -7 5 hhcurveto
          12 13 18 25 3 hvcurveto
          32 3 -50 7 -22 hhcurveto
          -88 -56 -79 -175 -18 hvcurveto
          -18 -168 -8 -187 -17 -164 rrcurveto
          -134 -15 -22 -56 -42 -17 -8 7 -5 hhcurveto
          -13 -13 -18 -24 -2 hvcurveto
          -33 -4 50 -6 23 hhcurveto
          endchar
        </CharString>
        <CharString name="iogonek">
          -255 153 -84 callsubr
          99 -702 rmoveto
          -30 callsubr
          20 7 30 16 29 hvcurveto
          8 7 6 10 3 11 rrcurveto
          -44 callgsubr
          -7 -6 -4 -12 hhcurveto
          -14 -9 10 37 4 hvcurveto
          9 98 14 119 16 155 rrcurveto
          16 -12 9 -32 vhcurveto
          -10 hlineto
          -30 -17 -7 -18 -2 hvcurveto
          -3 -20 -18 -175 -12 -118 -2 -25 -2 -30 -3 -25 -5 -86 39 -21 38 -4 rrcurveto
          -15 -30 -5 -31 -19 -65 callgsubr
          endchar
        </CharString>
        <CharString name="itilde">
          -255 34 589 rmoveto
          -81 callgsubr
          111 -596 -98 callsubr
          endchar
        </CharString>
        <CharString name="j">
          -260 155 -84 callsubr
          -148 -811 -87 callsubr
        </CharString>
        <CharString name="jcircumflex">
          -260 60 575 -107 callsubr
          -53 -787 -87 callsubr
        </CharString>
        <CharString name="k">
          -48 callgsubr
          endchar
        </CharString>
        <CharString name="kcommaaccent">
          -48 callgsubr
          -195 -576 rmoveto
          -13 hlineto
          -30 -13 -14 -21 hvcurveto
          -78 -24 -34 -21 vvcurveto
          -14 20 -3 13 27 58 65 87 20 -12 13 -26 vhcurveto
          endchar
        </CharString>
        <CharString name="kgreenlandic">
          26 162 526 rmoveto
          -11 hlineto
          -33 -14 -22 callgsubr
          -50 -478 rlineto
          -16 10 -9 33 vhcurveto
          11 hlineto
          32 14 -40 callgsubr
          24 224 4 1 172 -235 rlineto
          -13 9 22 -2 24 hhcurveto
          15 hlineto
          36 13 4 13 3 -2 4 -5 8 hvcurveto
          -182 248 201 213 rlineto
          8 8 4 8 5 vvcurveto
          7 -13 6 -27 vhcurveto
          -14 hlineto
          -24 -22 -3 -12 -10 hvcurveto
          -200 -215 -4 1 22 205 rlineto
          16 -11 9 -33 vhcurveto
          endchar
        </CharString>
        <CharString name="l">
          -239 156 -7 -20 callgsubr
        </CharString>
        <CharString name="lacute">
          -239 152 779 rmoveto
          -105 callsubr
          4 -786 -20 callgsubr
        </CharString>
        <CharString name="lcaron">
          -239 156 -7 -77 callsubr
          135 530 -44 callsubr
          endchar
        </CharString>
        <CharString name="lcommaaccent">
          -239 156 -7 -77 callsubr
          -72 -229 -81 callsubr
          endchar
        </CharString>
        <CharString name="ldot">
          -239 156 -7 -77 callsubr
          104 310 -17 callsubr
        </CharString>
        <CharString name="less">
          -61 362 11 rmoveto
          17 -9 7 11 2 26 2 14 rcurveline
          2 22 -3 12 -16 10 -235 136 rcurveline
          263 135 16 9 8 12 2 23 rlinecurve
          2 15 2 24 -5 13 -22 -11 rlinecurve
          -350 -174 -15 -8 -8 -11 -2 -18 rlinecurve
          -2 -18 -2 -19 6 -11 14 -7 rlinecurve
          endchar
        </CharString>
        <CharString name="lessequal">
          -56 371 121 rmoveto
          19 -10 8 9 3 27 1 17 rcurveline
          2 19 -6 11 -13 8 -235 133 rcurveline
          263 133 14 9 9 10 2 25 rlinecurve
          1 11 4 30 -9 6 -20 -9 rlinecurve
          -347 -169 -16 -7 -8 -12 -2 -18 rlinecurve
          -2 -18 -1 -18 5 -11 14 -7 rlinecurve
          -28 -290 17 callgsubr
          -6 12 -17 16 callsubr
          7 -11 16 hhcurveto
          endchar
        </CharString>
        <CharString name="logicalnot">
          -60 345 76 rmoveto
          28 hlineto
          21 9 8 16 2 hvcurveto
          22 208 rlineto
          23 3 -8 10 -21 hhcurveto
          -345 hlineto
          -15 -15 callgsubr
          -11 4 callgsubr
          288 hlineto
          -16 -158 -62 callgsubr
          8 -8 20 hhcurveto
          endchar
        </CharString>
        <CharString name="longs">
          -236 100 -2 rmoveto
          11 hlineto
          32 -6 callgsubr
          62 592 rlineto
          48 5 17 9 22 18 8 -6 7 hhcurveto
          17 13 47 8 1 hvcurveto
          26 2 -46 10 -30 hhcurveto
          -56 -69 -27 -110 -11 hvcurveto
          -11 -97 rlineto
          -24 hlineto
          -16 -7 13 callsubr
          -2 -13 rlineto
          -25 -2 6 -11 16 hhcurveto
          24 hlineto
          -43 -415 rlineto
          -16 -3 15 callsubr
          endchar
        </CharString>
        <CharString name="lozenge">
          -63 419 368 rmoveto
          -99 326 rlineto
          17 -5 -15 5 -21 hhcurveto
          -13 hlineto
          -21 -17 -5 -17 -7 hvcurveto
          -169 -326 -5 -7 -1 -6 -1 -8 rlinecurve
          -1 -6 1 -7 3 -8 97 -324 rcurveline
          -16 5 15 -6 20 hhcurveto
          19 hlineto
          21 16 6 16 8 hvcurveto
          166 323 4 9 2 6 1 7 rlinecurve
          1 8 -2 6 -2 7 rrcurveto
          -211 -276 rmoveto
          -68 255 121 251 66 -251 rlineto
          endchar
        </CharString>
        <CharString name="lslash">
          -239 248 491 rmoveto
          -4 -3 -2 -2 -5 hvcurveto
          -41 -24 28 265 -37 callsubr
          -35 -330 -31 -19 rlineto
          -14 -9 -7 -10 -16 vvcurveto
          -10 vlineto
          -11 4 -5 5 3 4 2 3 5 vhcurveto
          25 15 -23 -215 rlineto
          -102 -11 57 -28 53 hhcurveto
          35 29 14 29 6 hvcurveto
          16 5 0 31 -13 -7 -7 -4 -16 hhcurveto
          -19 -13 10 40 4 hvcurveto
          29 274 47 28 rlineto
          14 8 7 10 16 vvcurveto
          10 vlineto
          11 -4 5 -5 vhcurveto
          endchar
        </CharString>
        <CharString name="m">
          211 677 85 rmoveto
          -7 -7 -18 callsubr
          -12 -9 8 26 1 hvcurveto
          13 16 142 10 104 vhcurveto
          110 11 -46 46 -68 hhcurveto
          -54 -49 -33 -42 -34 hvcurveto
          53 -13 -41 22 -48 hhcurveto
          -56 -47 -34 -42 -31 hvcurveto
          33 -3 4 35 -27 hhcurveto
          -14 -61 -6 -20 -2 hvcurveto
          -1 -9 6 -34 -9 -87 -37 -343 rcurveline
          -16 -1 12 -9 30 hhcurveto
          18 -20 callsubr
          38 360 rlineto
          21 9 33 38 41 hhcurveto
          42 15 -30 -53 -5 hvcurveto
          -36 -336 -4 callsubr
          18 8 callgsubr
          39 363 rlineto
          27 16 31 29 35 hhcurveto
          39 13 -30 -53 -5 hvcurveto
          -20 -197 -5 -48 -19 vvcurveto
          -79 46 -20 40 48 27 23 43 12 -3 11 -8 vhcurveto
          endchar
        </CharString>
        <CharString name="macron">
          -254 65 608 -88 callgsubr
          endchar
        </CharString>
        <CharString name="minus">
          -60 39 182 rmoveto
          355 hlineto
          16 7 13 callgsubr
          11 rlineto
          25 2 -4 11 -16 hhcurveto
          -355 hlineto
          -15 -9 9 callsubr
          -2 -11 rlineto
          -25 -2 6 -11 15 hhcurveto
          endchar
        </CharString>
        <CharString name="multiply">
          -61 405 433 rmoveto
          -17 15 -11 10 -10 8 -15 -17 rlinecurve
          -135 -160 -104 161 -9 15 -11 -7 -15 -11 rlinecurve
          -16 -13 -18 -14 3 -10 10 -15 rlinecurve
          105 -163 -140 -165 -13 -14 -3 -10 15 -14 rlinecurve
          14 -13 13 -12 9 -7 13 14 rlinecurve
          135 160 99 -158 11 -16 13 8 12 9 rlinecurve
          20 16 15 11 1 6 -13 19 rlinecurve
          -103 162 142 167 16 19 -1 8 -12 11 rlinecurve
          endchar
        </CharString>
        <CharString name="n">
          439 83 -98 callgsubr
          endchar
        </CharString>
        <CharString name="nacute">
          250 582 rmoveto
          -105 callsubr
          189 -499 -98 callgsubr
          endchar
        </CharString>
        <CharString name="nacute.loclPLK">
          259 582 -80 callsubr
          180 -499 -98 callgsubr
          endchar
        </CharString>
        <CharString name="napostrophe">
          55 536 -81 callsubr
          384 -453 -98 callgsubr
          endchar
        </CharString>
        <CharString name="ncaron">
          270 580 -103 callsubr
          169 -497 -98 callgsubr
          endchar
        </CharString>
        <CharString name="ncommaaccent">
          439 83 -98 callgsubr
          -255 -319 -81 callsubr
          endchar
        </CharString>
        <CharString name="nine">
          -50 81 -5 rmoveto
          49 278 135 322 34 hvcurveto
          164 17 -66 88 -119 hhcurveto
          -106 -99 -75 -139 -15 hvcurveto
          -133 -13 72 -71 87 hhcurveto
          40 37 11 19 31 hvcurveto
          -41 -109 -81 -88 -125 -48 rrcurveto
          -9 -3 -2 -5 -6 vvcurveto
          -14 -2 8 -48 25 hhcurveto
          161 376 rmoveto
          -51 -41 37 86 9 hvcurveto
          84 9 52 40 43 hhcurveto
          45 45 -32 -129 -13 hvcurveto
          -2 -19 -4 -20 -3 -19 rrcurveto
          -13 -22 -33 -15 -34 hhcurveto
          endchar
        </CharString>
        <CharString name="notequal">
          -60 400 348 rmoveto
          -56 hlineto
          33 52 rlineto
          25 15 -3 14 -36 hhcurveto
          -12 hlineto
          -21 -9 -9 -14 -9 hvcurveto
          -43 -68 rlineto
          -191 hlineto
          -16 -9 -11 -24 19 callgsubr
          6 -12 17 hhcurveto
          149 hlineto
          -58 -90 rlineto
          -100 hlineto
          -17 -9 -11 -25 19 callgsubr
          7 -12 16 hhcurveto
          59 hlineto
          -38 -59 rlineto
          -22 -13 3 -13 37 hhcurveto
          10 hlineto
          22 7 7 16 10 hvcurveto
          46 71 rlineto
          189 14 callsubr
          -148 hlineto
          58 90 rlineto
          99 14 callgsubr
          endchar
        </CharString>
        <CharString name="ntilde">
          143 589 rmoveto
          -104 callsubr
          306 -509 -98 callgsubr
          endchar
        </CharString>
        <CharString name="numbersign">
          5 84 -2 rmoveto
          11 hlineto
          28 12 8 16 4 hvcurveto
          42 170 rlineto
          92 hlineto
          -29 -120 -11 -46 -1 -6 rrcurveto
          -15 -2 10 -7 23 hhcurveto
          10 hlineto
          28 13 8 16 4 hvcurveto
          41 170 rlineto
          78 11 callsubr
          15 30 callsubr
          -65 hlineto
          33 136 rlineto
          73 11 callsubr
          15 30 callsubr
          -60 hlineto
          40 161 rlineto
          15 3 -10 8 -24 -15 callsubr
          -29 -12 -8 -16 -4 hvcurveto
          -39 -160 rlineto
          -93 hlineto
          40 161 rlineto
          15 3 -9 8 -25 hhcurveto
          -10 hlineto
          -29 -12 -8 -16 -4 hvcurveto
          -39 -160 rlineto
          -76 10 callsubr
          -15 rlineto
          -25 -3 6 -11 16 hhcurveto
          64 hlineto
          -34 -136 rlineto
          -74 10 callsubr
          -15 rlineto
          -25 -3 6 -11 16 hhcurveto
          61 hlineto
          -29 -115 -13 -52 -1 -6 rrcurveto
          -14 -1 10 -7 23 hhcurveto
          119 281 rmoveto
          33 136 rlineto
          93 hlineto
          -33 -136 rlineto
          endchar
        </CharString>
        <CharString name="o">
          -32 211 -7 -97 callgsubr
        </CharString>
        <CharString name="oacute">
          -32 247 582 rmoveto
          -105 callsubr
          -36 -589 -97 callgsubr
        </CharString>
        <CharString name="oacute.loclPLK">
          -32 256 582 -80 callsubr
          -45 -589 -97 callgsubr
        </CharString>
        <CharString name="obreve">
          -32 273 -86 callgsubr
          -62 -589 -97 callgsubr
        </CharString>
        <CharString name="ocircumflex">
          -55 callgsubr
          endchar
        </CharString>
        <CharString name="odieresis">
          -32 205 599 -101 callgsubr
          -131 -606 -97 callgsubr
        </CharString>
        <CharString name="oe">
          213 424 216 rmoveto
          -80 callgsubr
          -69 -53 -26 -44 -39 hvcurveto
          45 -27 -43 25 -60 hhcurveto
          -133 -73 -97 -173 -18 hvcurveto
          -173 -18 52 -94 134 hhcurveto
          60 49 23 44 35 hvcurveto
          -50 36 59 -17 61 hhcurveto
          38 72 15 35 27 hvcurveto
          12 16 4 20 18 vvcurveto
          16 -5 13 -11 vhcurveto
          -16 -37 -47 -71 hhcurveto
          -62 -41 29 106 3 hvcurveto
          -205 -135 rmoveto
          -62 -20 55 127 13 hvcurveto
          128 13 33 55 63 hhcurveto
          49 25 -32 -70 3 hvcurveto
          -12 -43 -6 -49 -51 vvcurveto
          -7 0 -7 1 -6 vhcurveto
          -69 -19 -32 -31 -49 hhcurveto
          330 365 6 callsubr
        </CharString>
        <CharString name="ogonek">
          -253 136 -183 rmoveto
          23 22 5 12 19 hvcurveto
          9 6 5 10 12 vvcurveto
          18 -8 8 -15 vhcurveto
          -30 callsubr
          20 7 30 16 29 hvcurveto
          -45 16 rlineto
          -32 -40 -9 -47 -26 vvcurveto
          -26 9 -64 84 vhcurveto
          endchar
        </CharString>
        <CharString name="ograve">
          -32 288 582 -96 callgsubr
          -77 -589 -97 callgsubr
        </CharString>
        <CharString name="ohorn">
          -32 495 547 -92 callsubr
          endchar
        </CharString>
        <CharString name="ohungarumlaut">
          -32 189 582 -82 callgsubr
          -116 -589 -97 callgsubr
        </CharString>
        <CharString name="omacron">
          -32 177 608 -88 callgsubr
          34 -615 -97 callgsubr
        </CharString>
        <CharString name="one">
          -50 46 hmoveto
          332 hlineto
          16 7 11 25 4 hvcurveto
          1 13 29 callsubr
          -105 hlineto
          63 596 rlineto
          12 1 -18 10 -15 hhcurveto
          -212 -44 -14 -3 -7 -7 -1 -12 rlinecurve
          -21 -3 2 -39 17 hhcurveto
          139 21 -54 -513 rlineto
          -126 10 callsubr
          -13 rlineto
          -25 -3 7 -11 16 hhcurveto
          endchar
        </CharString>
        <CharString name="oneeighth">
          119 144 -66 callgsubr
          -9 -17 callgsubr
          319 -3 rmoveto
          72 48 48 72 7 hvcurveto
          7 60 -26 28 -31 18 30 16 28 28 5 50 rrcurveto
          67 6 -43 34 -56 hhcurveto
          -62 -48 -38 -67 -7 hvcurveto
          -4 -48 17 -26 25 -18 -33 -16 -31 -31 -5 -59 rrcurveto
          -75 -8 41 -43 68 hhcurveto
          35 251 rmoveto
          -26 14 -22 16 4 38 rrcurveto
          35 4 22 16 24 hhcurveto
          24 18 -16 -36 -3 hvcurveto
          -4 -31 -17 -21 -24 -15 rrcurveto
          -30 -200 rmoveto
          -29 -21 21 49 5 hvcurveto
          4 40 18 22 25 16 33 -17 31 -15 -6 -49 rrcurveto
          -40 -3 -26 -27 -31 hhcurveto
          endchar
        </CharString>
        <CharString name="onehalf">
          132 144 -66 callgsubr
          -6 -297 rmoveto
          13 hlineto
          15 10 5 14 7 7 callsubr
          -14 -12 -5 -14 -5 hvcurveto
          -299 22 callgsubr
          222 1 -62 callsubr
          endchar
        </CharString>
        <CharString name="onequarter">
          77 144 -66 callgsubr
          -13 -297 rmoveto
          13 hlineto
          15 11 5 14 6 7 callsubr
          -13 -13 -5 -14 -5 hvcurveto
          -298 -665 rlineto
          -3 -4 -2 -5 -2 vvcurveto
          -6 6 -2 9 vhcurveto
          320 -43 callsubr
        </CharString>
        <CharString name="ordfeminine">
          -228 131 438 rmoveto
          26 22 14 28 14 hvcurveto
          -31 4 20 -10 21 hhcurveto
          34 14 15 23 6 -1 7 -4 hvcurveto
          -4 -3 -1 -5 hhcurveto
          -6 -4 3 13 hvcurveto
          2 26 7 56 6 51 rrcurveto
          2 19 4 30 7 vvcurveto
          7 -7 5 -15 vhcurveto
          -12 hlineto
          -20 -3 -9 -16 -5 hvcurveto
          11 -9 -16 16 -29 hhcurveto
          -53 -41 -47 -85 -10 hvcurveto
          -66 -8 15 -72 64 hhcurveto
          23 55 rmoveto
          -29 -3 41 43 5 hvcurveto
          53 6 15 24 30 hhcurveto
          16 9 -5 -4 6 hvcurveto
          -2 -7 -1 -11 -1 -13 -9 -81 rcurveline
          -28 -10 -17 -12 -15 hhcurveto
          endchar
        </CharString>
        <CharString name="ordmasculine">
          -217 166 440 rmoveto
          74 47 47 86 9 hvcurveto
          86 9 -36 49 -75 hhcurveto
          -75 -47 -49 -86 -9 hvcurveto
          -85 -9 36 -48 76 hhcurveto
          6 62 rmoveto
          -29 -12 22 50 6 hvcurveto
          50 5 15 22 30 hhcurveto
          29 11 -23 -49 -5 hvcurveto
          -50 -6 -14 -22 -30 hhcurveto
          endchar
        </CharString>
        <CharString name="oslash">
          -32 406 459 -57 callsubr
        </CharString>
        <CharString name="oslashacute">
          -32 246 582 rmoveto
          -105 callsubr
          160 -123 -57 callsubr
        </CharString>
        <CharString name="otilde">
          -32 140 589 rmoveto
          -104 callsubr
          81 -599 -97 callgsubr
        </CharString>
        <CharString name="p">
          -25 65 -207 rmoveto
          15 hlineto
          31 14 8 16 3 hvcurveto
          22 221 rlineto
          -25 21 28 -20 45 hhcurveto
          101 76 96 170 17 hvcurveto
          164 18 -50 107 -95 hhcurveto
          -46 -44 -26 -48 -33 hvcurveto
          31 -3 2 35 -27 hhcurveto
          -15 -59 -5 -20 -2 hvcurveto
          -1 -10 7 -34 -10 -88 -56 -548 rcurveline
          -16 -3 12 -8 32 hhcurveto
          162 287 rmoveto
          -29 -23 13 23 -16 hvcurveto
          28 266 rlineto
          38 25 31 23 30 hhcurveto
          52 19 -65 -119 -13 hvcurveto
          -120 -12 -35 -59 -57 hhcurveto
          endchar
        </CharString>
        <CharString name="paragraph">
          -43 186 -172 rmoveto
          25 callgsubr
          78 hlineto
          -82 -786 rlineto
          -16 -3 7 -8 18 hhcurveto
          25 callgsubr
          28 hlineto
          16 7 8 17 2 hvcurveto
          1 11 rlineto
          18 2 -6 8 -16 hhcurveto
          -205 hlineto
          -111 -101 -98 -142 -15 hvcurveto
          -14 -130 69 -95 97 -14 -38 -369 rcurveline
          -16 -3 7 -8 18 hhcurveto
          endchar
        </CharString>
        <CharString name="parenleft">
          -260 147 -211 rmoveto
          16 22 20 13 2 hvcurveto
          1 6 -2 7 -5 7 -72 114 -19 158 19 172 18 173 51 158 97 113 8 8 1 7 1 7 rrcurveto
          17 2 -22 14 -14 hhcurveto
          -8 -8 -4 -8 -8 hvcurveto
          -112 -110 -77 -179 -21 -196 -21 -196 39 -178 90 -110 rrcurveto
          -9 7 7 -4 8 hhcurveto
          endchar
        </CharString>
        <CharString name="parenright">
          -260 2 -211 rmoveto
          8 9 4 9 7 hvcurveto
          113 110 76 178 22 196 20 196 -38 179 -90 110 rrcurveto
          8 -7 -7 4 -8 hhcurveto
          -15 -25 -17 -15 -1 hvcurveto
          -1 -6 2 -7 5 -8 73 -113 18 -158 -18 -173 -19 -174 -53 -158 -96 -114 -5 -6 -3 -6 -1 -6 rrcurveto
          -14 -1 19 -19 16 hhcurveto
          endchar
        </CharString>
        <CharString name="partialdiff">
          -98 160 -7 rmoveto
          114 100 94 249 26 hvcurveto
          255 26 -73 146 -134 hhcurveto
          -74 -50 -32 -31 -3 hvcurveto
          -16 -2 20 -38 14 12 21 29 43 hhcurveto
          64 45 -96 -174 -13 hvcurveto
          27 -23 -34 12 -36 hhcurveto
          -89 -86 -86 -140 -15 hvcurveto
          -140 -15 72 -59 90 hhcurveto
          11 83 rmoveto
          -51 -11 55 61 6 hvcurveto
          73 8 41 67 50 hhcurveto
          31 20 -15 -29 19 hvcurveto
          -116 -12 -44 -96 -57 hhcurveto
          endchar
        </CharString>
        <CharString name="percent">
          177 -58 callsubr
          7 -3 callsubr
          endchar
        </CharString>
        <CharString name="period">
          -321 55 -2 29 callgsubr
          2 hvcurveto
          8 73 rlineto
          17 1 -11 8 -32 hhcurveto
          -22 -14 callsubr
          endchar
        </CharString>
        <CharString name="periodcentered">
          -295 114 303 -17 callsubr
        </CharString>
        <CharString name="perthousand">
          477 -58 callsubr
          302 hmoveto
          59 73 28 135 14 hvcurveto
          136 14 -66 29 -59 hhcurveto
          -61 -71 -29 -136 -14 hvcurveto
          -135 -14 67 -28 58 hhcurveto
          -295 -3 callsubr
          302 hmoveto
          -45 -2 49 50 5 7 callgsubr
          endchar
        </CharString>
        <CharString name="pi">
          -2 70 -2 rmoveto
          12 hlineto
          24 20 9 17 7 hvcurveto
          39 98 41 190 17 126 rrcurveto
          104 hlineto
          -33 -300 rlineto
          -88 -10 -3 -52 44 hhcurveto
          21 hlineto
          28 14 11 15 2 hvcurveto
          2 20 -3 37 8 73 29 284 rcurveline
          40 hlineto
          17 9 6 19 4 hvcurveto
          5 21 2 10 7 vvcurveto
          16 2 -8 6 -17 hhcurveto
          -324 hlineto
          -67 -57 -10 -36 -4 hvcurveto
          -18 -2 -2 -31 24 hhcurveto
          12 14 9 1 51 hvcurveto
          -19 -128 -41 -173 -40 -108 rrcurveto
          -1 -3 -1 -3 -3 vvcurveto
          -13 -2 15 -9 27 hhcurveto
          endchar
        </CharString>
        <CharString name="plus">
          -60 249 466 rmoveto
          -9 hlineto
          -28 -9 -7 -16 -2 hvcurveto
          -18 -172 rlineto
          -121 hlineto
          -19 -8 -20 -27 -21 3 -10 16 hvcurveto
          121 hlineto
          -18 -172 rlineto
          -16 7 -6 27 vhcurveto
          9 hlineto
          23 13 6 16 2 hvcurveto
          18 172 rlineto
          123 hlineto
          21 7 19 28 21 -4 10 -15 hvcurveto
          -124 hlineto
          18 172 rlineto
          16 -8 7 -25 vhcurveto
          endchar
        </CharString>
        <CharString name="plusminus">
          -60 264 596 rmoveto
          -9 hlineto
          -24 -13 -10 -20 -2 hvcurveto
          -17 -164 rlineto
          -121 hlineto
          -24 -11 -30 -21 -17 7 -11 20 hvcurveto
          120 hlineto
          -17 -163 rlineto
          -20 7 -10 26 vhcurveto
          9 hlineto
          24 13 10 20 2 hvcurveto
          17 163 rlineto
          120 hlineto
          26 9 30 20 18 -7 11 -20 hvcurveto
          -120 hlineto
          18 164 rlineto
          20 -7 10 -26 vhcurveto
          109 -513 rmoveto
          -335 hlineto
          -26 -10 -34 -21 -19 7 -9 20 hvcurveto
          335 hlineto
          24 11 32 23 18 -6 10 -20 hvcurveto
          endchar
        </CharString>
        <CharString name="product">
          91 611 700 rmoveto
          -526 hlineto
          -19 -10 -17 -39 -22 4 -11 16 hvcurveto
          73 hlineto
          -72 -690 rlineto
          -16 9 -9 33 vhcurveto
          12 hlineto
          29 18 -40 callgsubr
          72 690 rlineto
          172 hlineto
          -72 -690 rlineto
          -16 9 -9 34 vhcurveto
          11 hlineto
          30 17 -40 callgsubr
          72 690 rlineto
          75 hlineto
          18 10 18 38 22 -3 11 -16 hvcurveto
          endchar
        </CharString>
        <CharString name="q">
          -28 306 -207 rmoveto
          16 hlineto
          31 15 8 16 2 hvcurveto
          71 683 rlineto
          16 2 -12 9 -28 hhcurveto
          -8 hlineto
          -20 -13 -3 -13 -6 hvcurveto
          -6 -18 -5 -17 -5 -18 rrcurveto
          48 -23 -40 26 -45 hhcurveto
          -94 -74 -106 -165 -17 hvcurveto
          -171 -19 56 -95 101 hhcurveto
          47 31 20 25 26 hvcurveto
          -23 -221 -50 callsubr
          -8 30 hhcurveto
          -86 287 rmoveto
          -58 -21 57 121 12 hvcurveto
          121 13 33 64 52 hhcurveto
          30 25 -22 -37 18 hvcurveto
          -28 -268 rlineto
          -23 -21 -26 -13 -29 hhcurveto
          endchar
        </CharString>
        <CharString name="question">
          -118 134 208 rmoveto
          18 hlineto
          26 10 7 15 5 hvcurveto
          13 53 37 37 48 46 50 49 52 50 8 76 rrcurveto
          96 10 -68 70 -120 hhcurveto
          -69 -91 -25 -39 -4 hvcurveto
          -16 -2 21 -44 15 13 39 33 56 hhcurveto
          63 29 -30 -56 -6 hvcurveto
          -5 -48 -41 -40 -48 -49 -54 -55 -32 -57 -6 -48 rrcurveto
          -16 -1 9 -9 25 hhcurveto
          -25 -210 rmoveto
          22 hlineto
          32 14 9 16 3 hvcurveto
          7 73 rlineto
          17 2 -13 8 -32 hhcurveto
          -21 hlineto
          -32 -15 -8 -17 -2 hvcurveto
          -7 -73 rlineto
          -16 -3 15 callsubr
          endchar
        </CharString>
        <CharString name="questiondown">
          -118 281 525 rmoveto
          -22 hlineto
          -32 -45 callgsubr
          -3 hvcurveto
          -7 -73 rlineto
          -17 -2 13 -8 32 hhcurveto
          21 hlineto
          32 15 8 17 2 hvcurveto
          7 73 -7 callgsubr
          -25 -210 rmoveto
          -18 hlineto
          -26 -10 -7 -15 -5 hvcurveto
          -13 -53 -37 -37 -48 -46 -50 -49 -52 -50 -8 -76 rrcurveto
          -96 -10 68 -70 120 hhcurveto
          69 91 25 39 4 hvcurveto
          16 2 -21 44 -15 -13 -39 -33 -56 hhcurveto
          -63 -29 30 56 6 hvcurveto
          5 48 41 40 48 49 54 55 32 57 6 48 rrcurveto
          16 1 -9 9 -25 hhcurveto
          endchar
        </CharString>
        <CharString name="quotedbl">
          -200 105 470 rmoveto
          6 hlineto
          15 9 5 12 3 hvcurveto
          15 63 27 118 1 9 rrcurveto
          16 2 -1 callsubr
          135 hmoveto
          6 hlineto
          15 9 5 12 3 hvcurveto
          15 63 27 118 1 9 rrcurveto
          -52 callgsubr
          -33 hhcurveto
          -10 hlineto
          -32 12 callsubr
          -1 -10 3 -180 rlineto
          -12 2 7 -5 15 hhcurveto
          endchar
        </CharString>
        <CharString name="quotedblbase">
          -161 20 -118 -38 callsubr
        </CharString>
        <CharString name="quotedblleft">
          -161 98 504 rmoveto
          -35 callsubr
          148 hmoveto
          -35 callsubr
          endchar
        </CharString>
        <CharString name="quotedblright">
          -161 67 515 -38 callsubr
        </CharString>
        <CharString name="quoteleft">
          -299 103 504 rmoveto
          -35 callsubr
          endchar
        </CharString>
        <CharString name="quoteright">
          -299 92 515 -10 callgsubr
          endchar
        </CharString>
        <CharString name="quotesinglbase">
          -299 25 -118 -10 callgsubr
          endchar
        </CharString>
        <CharString name="quotesingle">
          -345 100 470 rmoveto
          6 hlineto
          16 9 5 12 2 hvcurveto
          16 63 27 118 1 9 rrcurveto
          16 1 -1 callsubr
          endchar
        </CharString>
        <CharString name="quotesingle.loclGUA">
          -338 83 392 rmoveto
          22 1 56 108 18 166 rrcurveto
          20 2 -13 13 -28 hhcurveto
          -12 hlineto
          -32 -15 -14 -21 -3 hvcurveto
          -27 -256 rlineto
          -13 -2 21 -4 13 hhcurveto
          endchar
        </CharString>
        <CharString name="r">
          -172 93 -2 -29 callsubr
        </CharString>
        <CharString name="racute">
          -172 183 580 rmoveto
          -105 callsubr
          -90 -582 -29 callsubr
        </CharString>
        <CharString name="radical">
          -15 261 -152 rmoveto
          23 hlineto
          23 15 9 15 4 hvcurveto
          178 917 rlineto
          9 vlineto
          9 -9 6 -23 vhcurveto
          -19 hlineto
          -24 -15 -8 -16 -3 hvcurveto
          -129 -723 -5 -23 -7 -45 -1 -14 rlinecurve
          -2 hlineto
          -2 14 -8 36 -11 35 -72 293 rcurveline
          15 -3 -9 7 -10 hhcurveto
          -14 -60 -31 -20 -37 hvcurveto
          -13 -6 -5 -5 -9 vvcurveto
          -5 1 -5 10 -24 vhcurveto
          -12 4 7 -5 8 hhcurveto
          6 9 4 17 33 hvcurveto
          117 -411 rlineto
          -17 5 16 -7 22 hhcurveto
          endchar
        </CharString>
        <CharString name="rcaron">
          -172 203 578 -103 callsubr
          -110 -580 -29 callsubr
        </CharString>
        <CharString name="rcommaaccent">
          -172 93 -2 -75 callgsubr
          -31 -236 -81 callsubr
          endchar
        </CharString>
        <CharString name="registered">
          -26 callgsubr
          -77 101 rmoveto
          12 hlineto
          18 7 5 10 hvcurveto
          160 24 vlineto
          31 10 -12 -39 12 hvcurveto
          35 -114 rlineto
          -6 2 9 -4 13 hhcurveto
          15 hlineto
          16 8 4 6 2 0 3 -2 4 hvcurveto
          -37 119 -11 34 -12 24 -14 8 rlinecurve
          3 vlineto
          31 15 23 33 49 vvcurveto
          71 -36 33 -77 vhcurveto
          -84 hlineto
          -12 -6 -6 -13 hvcurveto
          -374 vlineto
          -10 8 -5 17 vhcurveto
          37 228 rmoveto
          127 44 vlineto
          27 18 -20 -42 -35 -19 -30 -23 hvcurveto
          endchar
        </CharString>
        <CharString name="ring">
          -253 159 -46 callgsubr
          endchar
        </CharString>
        <CharString name="s">
          -39 callgsubr
          endchar
        </CharString>
        <CharString name="sacute">
          -156 186 582 rmoveto
          -105 callsubr
          -51 -591 -89 callgsubr
          endchar
        </CharString>
        <CharString name="sacute.loclPLK">
          -156 195 582 -80 callsubr
          -60 -591 -89 callgsubr
          endchar
        </CharString>
        <CharString name="scaron">
          -156 206 580 -103 callsubr
          -71 -589 -89 callgsubr
          endchar
        </CharString>
        <CharString name="scedilla">
          -156 218 444 rmoveto
          39 24 -23 6 hhcurveto
          13 26 44 18 36 callsubr
          -62 18 -53 hhcurveto
          -88 -70 -57 -90 -10 hvcurveto
          -7 -80 38 -37 58 -29 47 -25 29 -25 -5 -45 rrcurveto
          -42 -4 -27 -21 -41 -51 -26 35 -9 hhcurveto
          -14 -30 -42 -18 -2 hvcurveto
          -3 -26 53 -32 66 -5 rrcurveto
          -17 -52 -3 -11 -7 -70 callgsubr
          14 50 76 13 57 58 8 81 rlinecurve
          9 83 -39 40 -62 32 -38 22 -33 22 5 46 rrcurveto
          35 5 28 18 33 hhcurveto
          endchar
        </CharString>
        <CharString name="scircumflex">
          -156 116 575 -107 callsubr
          19 -584 -89 callgsubr
          endchar
        </CharString>
        <CharString name="scommaaccent">
          -39 callgsubr
          -26 -227 -81 callsubr
          endchar
        </CharString>
        <CharString name="section">
          -154 140 -7 rmoveto
          84 77 52 93 6 hvcurveto
          4 42 -14 32 -24 25 rrcurveto
          42 28 25 48 51 vvcurveto
          66 -31 34 -60 32 vhcurveto
          -36 18 -41 16 4 42 rrcurveto
          31 2 25 17 33 42 21 -23 9 hhcurveto
          15 26 47 16 29 -69 17 -42 -84 -75 -52 -91 -7 hvcurveto
          -3 -41 14 -32 24 -23 rrcurveto
          -46 -29 -24 -48 -53 vvcurveto
          -59 31 -37 54 -29 vhcurveto
          50 -28 36 -13 -3 -40 rrcurveto
          -30 -3 -23 -20 -37 -48 -22 30 -10 hhcurveto
          -12 -32 -44 -20 -30 71 -24 51 hvcurveto
          60 291 rmoveto
          -38 16 -32 16 4 46 4 33 20 16 21 8 38 -17 32 -16 -5 -44 -4 -34 -19 -17 -21 -7 rrcurveto
          endchar
        </CharString>
        <CharString name="semicolon">
          -321 93 402 rmoveto
          22 hlineto
          31 14 8 17 1 hvcurveto
          8 73 rlineto
          16 2 -11 9 -32 22 callsubr
          -1 12 -8 31 hhcurveto
          -127 -521 -13 callgsubr
        </CharString>
        <CharString name="seven">
          -50 90 -2 rmoveto
          19 hlineto
          23 18 5 12 6 hvcurveto
          308 611 2 3 1 4 1 5 rlinecurve
          23 2 -10 39 -9 hhcurveto
          -352 hlineto
          -16 -8 -36 callsubr
          16 hhcurveto
          260 hlineto
          -297 -583 rlineto
          -3 -6 -4 -7 -3 vvcurveto
          -13 -1 13 -5 32 hhcurveto
          endchar
        </CharString>
        <CharString name="six">
          -50 201 -6 rmoveto
          107 99 75 138 14 hvcurveto
          133 15 -74 72 -86 hhcurveto
          -40 -36 -11 -19 -32 hvcurveto
          41 109 82 88 125 48 9 3 1 5 1 6 rrcurveto
          14 1 -8 48 -25 hhcurveto
          -49 -279 -135 -322 -34 hvcurveto
          -164 -17 68 -88 117 hhcurveto
          12 85 rmoveto
          -45 -45 33 129 14 hvcurveto
          2 19 2 20 4 20 rrcurveto
          13 22 33 14 34 hhcurveto
          51 41 -38 -85 -9 hvcurveto
          -84 -9 -51 -41 -44 hhcurveto
          endchar
        </CharString>
        <CharString name="slash">
          -189 15 -19 callgsubr
        </CharString>
        <CharString name="space">
          -372 endchar
        </CharString>
        <CharString name="sterling">
          -98 12 hmoveto
          329 hlineto
          16 7 -9 callgsubr
          -222 hlineto
          25 17 33 31 12 117 8 81 rcurveline
          104 11 callsubr
          13 30 callsubr
          -103 hlineto
          9 88 rlineto
          83 8 32 36 63 28 25 -9 6 hhcurveto
          17 15 43 14 1 hvcurveto
          30 4 -63 6 -37 hhcurveto
          -126 -62 -78 -130 -14 hvcurveto
          -8 -83 rlineto
          -49 10 callsubr
          -13 rlineto
          -25 -3 6 -11 16 hhcurveto
          49 hlineto
          -18 -167 -8 -81 -82 9 -5 -42 rlinecurve
          -1 -17 rlineto
          -23 -3 7 -10 18 hhcurveto
          endchar
        </CharString>
        <CharString name="summation">
          -35 471 700 rmoveto
          -372 hlineto
          -21 -11 -9 -20 -1 hvcurveto
          -2 -12 -1 -14 3 -11 5 -11 rlinecurve
          143 -309 -217 -336 -8 -11 -4 -10 -2 -13 rlinecurve
          -1 -13 rlineto
          -22 -3 9 -11 20 hhcurveto
          393 hlineto
          16 9 -11 callsubr
          3 26 rlineto
          24 3 -7 12 -16 hhcurveto
          -278 hlineto
          -1 4 189 287 6 9 2 6 1 8 rlinecurve
          1 7 -2 7 -3 7 -127 276 rcurveline
          1 4 rlineto
          262 hlineto
          17 9 12 24 2 hvcurveto
          2 17 -2 callsubr
          -17 hhcurveto
          endchar
        </CharString>
        <CharString name="t">
          -211 178 -7 -73 callsubr
          endchar
        </CharString>
        <CharString name="tbar">
          -211 259 333 rmoveto
          -70 hlineto
          4 31 4 35 4 39 rrcurveto
          37 hlineto
          38 11 52 14 14 -3 5 -13 hvcurveto
          -60 20 callsubr
          -12 9 -31 vhcurveto
          -11 hlineto
          -30 -16 -7 -18 -2 hvcurveto
          -11 -102 rlineto
          -29 hlineto
          -25 -4 -34 -21 -19 5 -11 15 hvcurveto
          29 hlineto
          -4 -38 -4 -35 -3 -32 rrcurveto
          -32 hlineto
          -15 -8 -35 callgsubr
          -1 -11 rlineto
          -23 -2 6 -10 16 hhcurveto
          31 hlineto
          -9 -84 -4 -48 -16 1 callsubr
          28 4 43 8 69 hvcurveto
          70 hlineto
          16 7 10 23 2 hvcurveto
          2 11 8 callsubr
          endchar
        </CharString>
        <CharString name="tcaron">
          -211 307 574 -44 callsubr
          -129 -581 -73 callsubr
          endchar
        </CharString>
        <CharString name="thorn">
          -26 64 -207 rmoveto
          16 hlineto
          30 14 8 16 2 hvcurveto
          23 221 rlineto
          -25 21 27 -20 46 hhcurveto
          100 76 96 169 18 hvcurveto
          166 17 -52 106 -93 hhcurveto
          -42 -41 -22 -41 -32 hvcurveto
          27 261 rlineto
          16 2 -12 9 -32 hhcurveto
          -13 hlineto
          -32 -14 callgsubr
          -2 hvcurveto
          -95 -911 -50 callsubr
          -8 32 hhcurveto
          162 287 rmoveto
          -29 -23 13 23 -17 hvcurveto
          28 266 rlineto
          38 26 31 23 29 hhcurveto
          52 20 -65 -119 -13 hvcurveto
          -120 -13 -34 -59 -57 hhcurveto
          endchar
        </CharString>
        <CharString name="three">
          -50 173 -7 rmoveto
          118 100 73 135 15 hvcurveto
          10 103 -52 62 -62 20 rrcurveto
          4 vlineto
          57 22 50 45 9 77 rrcurveto
          108 11 -67 65 -118 hhcurveto
          -67 -97 -23 -36 -3 hvcurveto
          -19 -2 20 -40 14 14 31 32 68 hhcurveto
          78 17 -50 -42 -4 hvcurveto
          -47 -5 -39 -69 -86 hhcurveto
          -33 hlineto
          -16 -8 -21 callsubr
          -2 5 -11 17 hhcurveto
          38 hlineto
          83 47 -32 -90 -10 hvcurveto
          -97 -10 -71 -30 -56 -72 -36 36 -16 hhcurveto
          -14 -29 -38 -19 -2 hvcurveto
          -37 -3 94 -28 88 hhcurveto
          endchar
        </CharString>
        <CharString name="threequarters">
          118 134 291 -78 callgsubr
          48 -292 rmoveto
          13 hlineto
          15 10 5 14 6 hvcurveto
          299 665 rlineto
          2 4 2 4 3 vvcurveto
          6 -5 2 -10 vhcurveto
          -13 hlineto
          -14 -12 -5 -14 -6 hvcurveto
          -298 22 callgsubr
          332 -43 callsubr
        </CharString>
        <CharString name="tilde">
          -217 23 589 rmoveto
          -104 callsubr
          endchar
        </CharString>
        <CharString name="tildecomb">
          -509 -125 589 rmoveto
          -104 callsubr
          endchar
        </CharString>
        <CharString name="trademark">
          108 313 305 rmoveto
          10 hlineto
          18 7 5 9 hvcurveto
          251 5 vlineto
          69 -165 rlineto
          -6 3 5 -2 7 hhcurveto
          16 hlineto
          7 5 2 6 2 hvcurveto
          69 163 rlineto
          5 -249 hlineto
          -9 7 -5 18 vhcurveto
          10 hlineto
          17 8 5 9 hvcurveto
          368 vlineto
          9 -8 5 -17 vhcurveto
          -21 hlineto
          -12 -10 -3 -8 -3 hvcurveto
          -74 -176 -12 -32 -13 34 -71 174 rlineto
          8 -3 -10 3 -12 hhcurveto
          -22 hlineto
          -18 -7 -5 -9 hvcurveto
          -368 vlineto
          -9 7 -5 18 vhcurveto
          -171 hmoveto
          13 hlineto
          17 8 5 9 hvcurveto
          329 74 vlineto
          9 4 6 14 hvcurveto
          12 vlineto
          14 -4 6 -9 vhcurveto
          -211 hlineto
          -9 -4 -6 -14 hvcurveto
          -12 vlineto
          -14 4 -6 9 vhcurveto
          75 -329 hlineto
          -9 7 -5 17 vhcurveto
          endchar
        </CharString>
        <CharString name="two">
          -50 14 hmoveto
          350 hlineto
          16 8 11 25 3 hvcurveto
          1 13 rlineto
          25 2 -5 10 -16 hhcurveto
          -242 hlineto
          169 217 105 121 27 44 7 69 rlinecurve
          105 11 -70 67 -120 hhcurveto
          -77 -106 -35 -45 -5 hvcurveto
          -19 -2 20 -37 16 17 41 50 78 hhcurveto
          62 36 -33 -59 -6 hvcurveto
          -4 -39 -16 -28 -47 -60 -265 -329 rcurveline
          -2 -3 -2 -6 -1 -7 rrcurveto
          -22 -2 6 -35 13 hhcurveto
          endchar
        </CharString>
        <CharString name="u">
          440 85 rmoveto
          -72 callgsubr
          89 9 89 10 89 rrcurveto
          -76 callgsubr
          -17 -103 callgsubr
          hhcurveto
          endchar
        </CharString>
        <CharString name="uacute">
          245 582 rmoveto
          -105 callsubr
          195 -497 rmoveto
          -72 callgsubr
          89 9 89 10 89 rrcurveto
          -76 callgsubr
          -17 -103 callgsubr
          hhcurveto
          endchar
        </CharString>
        <CharString name="ubreve">
          271 -86 callgsubr
          169 -497 rmoveto
          -72 callgsubr
          89 9 89 10 89 rrcurveto
          -76 callgsubr
          -17 -103 callgsubr
          hhcurveto
          endchar
        </CharString>
        <CharString name="ucircumflex">
          175 575 -107 callsubr
          265 -490 rmoveto
          -72 callgsubr
          89 9 89 10 89 rrcurveto
          -76 callgsubr
          -17 -103 callgsubr
          hhcurveto
          endchar
        </CharString>
        <CharString name="udieresis">
          203 599 -101 callgsubr
          100 -514 rmoveto
          -72 callgsubr
          89 9 89 10 89 rrcurveto
          -76 callgsubr
          -17 -103 callgsubr
          hhcurveto
          endchar
        </CharString>
        <CharString name="ugrave">
          286 582 -96 callgsubr
          154 -497 rmoveto
          -72 callgsubr
          89 9 89 10 89 rrcurveto
          -76 callgsubr
          -17 -103 callgsubr
          hhcurveto
          endchar
        </CharString>
        <CharString name="uhorn">
          435 489 rmoveto
          61 6 27 35 49 vvcurveto
          -79 callsubr
          -37 -103 callgsubr
          -72 callgsubr
          86 8 85 10 86 rrcurveto
          endchar
        </CharString>
        <CharString name="uhungarumlaut">
          187 582 -82 callgsubr
          115 -497 rmoveto
          -72 callgsubr
          89 9 89 10 89 rrcurveto
          -76 callgsubr
          -17 -103 callgsubr
          hhcurveto
          endchar
        </CharString>
        <CharString name="umacron">
          175 608 -88 callgsubr
          265 -523 rmoveto
          -72 callgsubr
          89 9 89 10 89 rrcurveto
          -76 callgsubr
          -17 -103 callgsubr
          hhcurveto
          endchar
        </CharString>
        <CharString name="underscore">
          -82 -37 -139 rmoveto
          417 hlineto
          15 8 8 20 2 hvcurveto
          8 vlineto
          20 2 -5 9 -15 hhcurveto
          -417 hlineto
          -15 -9 -9 -20 -1 hvcurveto
          -1 -8 rlineto
          -20 -2 6 -8 15 hhcurveto
          endchar
        </CharString>
        <CharString name="uni00A0">
          -372 endchar
        </CharString>
        <CharString name="uni00AD">
          -253 45 225 rmoveto
          159 -34 callsubr
          2 hvcurveto
          1 9 rlineto
          25 3 -6 11 -15 hhcurveto
          -159 hlineto
          -15 -15 callgsubr
          -9 rlineto
          -25 -2 6 -11 15 hhcurveto
          endchar
        </CharString>
        <CharString name="uni00B2">
          -229 39 297 -62 callsubr
          endchar
        </CharString>
        <CharString name="uni00B3">
          -229 134 291 -78 callgsubr
          endchar
        </CharString>
        <CharString name="uni00B5">
          -56 -53 callgsubr
        </CharString>
        <CharString name="uni00B9">
          -229 152 -66 callgsubr
          endchar
        </CharString>
        <CharString name="uni0162">
          -55 461 700 rmoveto
          -377 hlineto
          -15 -8 9 callsubr
          -3 -20 rlineto
          -25 -2 5 -11 15 hhcurveto
          135 hlineto
          -62 -585 -2 -13 8 -9 21 -2 rlinecurve
          -20 -59 -3 -11 -8 -70 callgsubr
          16 54 23 3 10 8 1 14 rlinecurve
          -34 callgsubr
          endchar
        </CharString>
        <CharString name="uni0163">
          -211 238 438 rmoveto
          38 11 52 14 14 -3 5 -13 hvcurveto
          -60 20 callsubr
          -12 9 -31 vhcurveto
          -11 hlineto
          -30 -16 -7 -18 -2 hvcurveto
          -11 -102 rlineto
          -29 hlineto
          -25 -4 -34 -21 -19 5 -11 15 hvcurveto
          29 hlineto
          -21 -198 -11 -107 -25 vvcurveto
          -66 35 -33 40 -11 vhcurveto
          -19 -59 -3 -10 -8 -70 callgsubr
          14 49 rlineto
          41 3 28 18 43 vvcurveto
          15 -6 11 -10 vhcurveto
          -22 callsubr
          endchar
        </CharString>
        <CharString name="uni018F">
          51 236 -7 rmoveto
          146 92 97 247 25 hvcurveto
          260 29 -71 110 -164 hhcurveto
          -93 -106 -42 -35 -4 hvcurveto
          -15 -2 19 -43 15 15 57 48 81 hhcurveto
          91 45 -57 -196 -16 hvcurveto
          -303 hlineto
          -11 -30 -33 -13 -2 hvcurveto
          -220 -24 66 -108 145 hhcurveto
          9 86 rmoveto
          -86 -26 63 145 17 hvcurveto
          236 hlineto
          -156 -24 -46 -52 -71 hhcurveto
          endchar
        </CharString>
        <CharString name="uni01C4">
          575 880 757 -103 callsubr
          -806 -757 rmoveto
          174 hlineto
          157 106 98 252 26 hvcurveto
          251 26 -84 99 -157 hhcurveto
          -174 hlineto
          -21 -10 -10 -23 -2 hvcurveto
          -68 -634 rlineto
          -23 -2 8 -10 21 hhcurveto
          533 -59 callgsubr
          -443 92 rmoveto
          55 516 rlineto
          91 hlineto
          87 48 -70 -188 -19 hvcurveto
          -189 -20 -64 -69 -87 hhcurveto
          endchar
        </CharString>
        <CharString name="uni01C5">
          473 812 580 -103 callsubr
          -738 -580 rmoveto
          -72 callsubr
          351 -92 rmoveto
          -94 callgsubr
          endchar
        </CharString>
        <CharString name="uni01C6">
          377 -82 callsubr
          548 587 -103 callsubr
          -206 -580 rmoveto
          -94 callgsubr
          -303 80 -24 callsubr
        </CharString>
        <CharString name="uni01C7">
          209 178 702 rmoveto
          -16 hlineto
          -31 -16 -22 callgsubr
          -68 -646 rlineto
          -22 6 -9 24 vhcurveto
          266 hlineto
          26 3 33 32 19 -6 8 -14 hvcurveto
          -191 hlineto
          61 585 rlineto
          19 -18 6 -25 vhcurveto
          447 hmoveto
          -16 -19 callsubr
          -67 -628 rlineto
          -82 -9 -38 -36 -84 -41 -15 9 -9 hhcurveto
          -8 -8 -14 -56 -29 48 -7 42 148 68 85 126 13 hvcurveto
          67 632 rlineto
          19 -18 6 -25 vhcurveto
          endchar
        </CharString>
        <CharString name="uni01C8">
          148 76 hmoveto
          -71 callgsubr
          486 -84 callsubr
          -147 -811 -87 callsubr
        </CharString>
        <CharString name="uni01C9">
          10 156 -7 -77 callsubr
          269 606 -105 callgsubr
          -148 -811 -87 callsubr
        </CharString>
        <CharString name="uni01CA">
          436 -71 callsubr
          576 -5 -70 callsubr
        </CharString>
        <CharString name="uni01CB">
          330 -71 callsubr
          661 601 -105 callgsubr
          -147 -811 -87 callsubr
        </CharString>
        <CharString name="uni01CC">
          222 637 -84 callsubr
          -198 -516 -98 callgsubr
          50 -295 -87 callsubr
        </CharString>
        <CharString name="uni01EA">
          90 346 707 rmoveto
          -165 -99 -110 -246 -26 hvcurveto
          -245 -26 92 -113 150 hhcurveto
          16 hlineto
          -16 -31 -5 -31 -20 -65 callgsubr
          -30 callsubr
          19 6 27 14 28 hvcurveto
          120 32 72 112 21 204 rrcurveto
          245 26 -92 111 -151 hhcurveto
          106 -356 -8 callsubr
        </CharString>
        <CharString name="uni01EB">
          -32 267 530 rmoveto
          -127 -79 -97 -173 -18 hvcurveto
          -17 -168 54 -94 120 -5 rrcurveto
          -19 -34 -6 -35 -21 -65 callgsubr
          -30 callsubr
          20 7 29 15 28 hvcurveto
          99 22 59 90 16 150 rrcurveto
          174 18 -57 96 -128 hhcurveto
          61 -269 rmoveto
          -127 -14 -34 -55 -61 hhcurveto
          -62 -20 55 127 13 hvcurveto
          128 13 33 55 62 hhcurveto
          62 21 -56 -127 -13 hvcurveto
          endchar
        </CharString>
        <CharString name="uni01F1">
          575 74 hmoveto
          174 hlineto
          157 106 98 252 26 hvcurveto
          251 26 -84 99 -157 hhcurveto
          -174 hlineto
          -21 -10 -10 -23 -2 hvcurveto
          -68 -634 rlineto
          -23 -2 8 -10 21 hhcurveto
          533 -59 callgsubr
          -443 92 rmoveto
          55 516 rlineto
          91 hlineto
          87 48 -70 -188 -19 hvcurveto
          -189 -20 -64 -69 -87 hhcurveto
          endchar
        </CharString>
        <CharString name="uni01F2">
          473 -24 callgsubr
          351 -92 rmoveto
          -94 callgsubr
          endchar
        </CharString>
        <CharString name="uni01F3">
          377 -82 callsubr
          342 7 rmoveto
          -94 callgsubr
          -303 80 -24 callsubr
        </CharString>
        <CharString name="uni021A">
          -55 188 -2 -66 callsubr
          -28 -234 -81 callsubr
          endchar
        </CharString>
        <CharString name="uni021B">
          -211 178 -7 -73 callsubr
          -49 -229 -81 callsubr
          endchar
        </CharString>
        <CharString name="uni0237">
          -260 7 -212 -87 callsubr
        </CharString>
        <CharString name="uni0259">
          -55 218 530 rmoveto
          -38 -72 -15 -35 -27 hvcurveto
          -12 -16 -4 -20 -18 vvcurveto
          -16 5 -13 11 vhcurveto
          16 37 47 71 hhcurveto
          62 41 -29 -106 -3 hvcurveto
          -2 vlineto
          4 -18 -22 2 -29 hhcurveto
          -121 -91 -64 -119 hvcurveto
          -51 -1 31 -86 117 hhcurveto
          165 75 149 182 162 -93 44 -100 hvcurveto
          -38 -451 rmoveto
          -36 -20 26 35 73 66 23 63 hvcurveto
          47 hlineto
          -86 -12 -33 -71 -75 hhcurveto
          endchar
        </CharString>
        <CharString name="uni02BC">
          -419 57 536 -81 callsubr
          endchar
        </CharString>
        <CharString name="uni02C9">
          -253 65 608 -88 callgsubr
          endchar
        </CharString>
        <CharString name="uni0302">
          -509 -59 575 -107 callsubr
          endchar
        </CharString>
        <CharString name="uni0304">
          -509 -63 608 -88 callgsubr
          endchar
        </CharString>
        <CharString name="uni0306">
          -509 34 -86 callgsubr
          endchar
        </CharString>
        <CharString name="uni0307">
          -509 36 -84 callsubr
          endchar
        </CharString>
        <CharString name="uni0308">
          -509 -35 599 -101 callgsubr
          endchar
        </CharString>
        <CharString name="uni030A">
          -509 31 -46 callgsubr
          endchar
        </CharString>
        <CharString name="uni030B">
          -509 -114 582 -82 callgsubr
          endchar
        </CharString>
        <CharString name="uni030C">
          -509 33 580 -103 callsubr
          endchar
        </CharString>
        <CharString name="uni0326">
          -509 -169 -236 -81 callsubr
          endchar
        </CharString>
        <CharString name="uni0327">
          -509 11 -56 rmoveto
          17 59 rlineto
          -48 hlineto
          -21 -63 -3 -11 -8 -70 callgsubr
          endchar
        </CharString>
        <CharString name="uni0394">
          72 -33 callgsubr
        </CharString>
        <CharString name="uni03A9">
          90 -57 callgsubr
        </CharString>
        <CharString name="uni03BC">
          -42 -53 callgsubr
        </CharString>
        <CharString name="uni1E0C">
          -25 callgsubr
          -27 -275 -105 callgsubr
          endchar
        </CharString>
        <CharString name="uni1E0D">
          -28 -82 callsubr
          39 87 -51 callgsubr
          50 -263 -105 callgsubr
          endchar
        </CharString>
        <CharString name="uni1E24">
          -41 callgsubr
          167 -181 -105 callgsubr
          endchar
        </CharString>
        <CharString name="uni1E25">
          -24 379 -4 -69 callsubr
          -180 -179 -105 callgsubr
          endchar
        </CharString>
        <CharString name="uni1E44">
          81 347 776 -105 callgsubr
          -264 -778 -99 callsubr
          endchar
        </CharString>
        <CharString name="uni1E45">
          277 -84 callsubr
          162 -516 -98 callgsubr
          endchar
        </CharString>
        <CharString name="uni1E5A">
          4 86 -2 -88 callsubr
          -69 -572 -105 callgsubr
          endchar
        </CharString>
        <CharString name="uni1E5B">
          -172 93 -2 -75 callgsubr
          -10 -183 -105 callgsubr
          endchar
        </CharString>
        <CharString name="uni1E62">
          -46 callsubr
          -15 -177 -105 callgsubr
          endchar
        </CharString>
        <CharString name="uni1E63">
          -39 callgsubr
          -5 -174 -105 callgsubr
          endchar
        </CharString>
        <CharString name="uni1E6C">
          -55 188 -2 -66 callsubr
          -7 -181 -105 callgsubr
          endchar
        </CharString>
        <CharString name="uni1E6D">
          -211 178 -7 -73 callsubr
          -28 -176 -105 callgsubr
          endchar
        </CharString>
        <CharString name="uni1E92">
          -2 30 -59 callgsubr
          182 -183 -105 callgsubr
          endchar
        </CharString>
        <CharString name="uni1E93">
          -104 29 hmoveto
          -94 callgsubr
          129 -183 -105 callgsubr
          endchar
        </CharString>
        <CharString name="uni1E9E">
          84 337 -7 rmoveto
          96 104 61 151 16 hvcurveto
          13 125 -57 59 -76 22 130 190 rcurveline
          2 3 1 3 5 vvcurveto
          3 22 -12 40 -11 3 -46 13 -73 15 -77 1 -154 1 -90 -87 -19 -177 -43 -420 rcurveline
          -16 -3 15 callsubr
          16 hlineto
          32 -6 callgsubr
          43 419 rlineto
          120 13 46 52 90 hhcurveto
          40 34 -6 -8 25 hvcurveto
          -133 -197 -2 -3 -1 -4 -1 -5 rlinecurve
          -22 -3 13 -41 12 hhcurveto
          29 hlineto
          63 38 -32 -89 -10 hvcurveto
          -99 -10 -57 -29 -45 -50 -18 32 -21 hhcurveto
          -14 -29 -39 -18 -2 hvcurveto
          -31 -3 72 -30 67 hhcurveto
          endchar
        </CharString>
        <CharString name="uni1EA0">
          -4 22 -2 -106 callgsubr
          -124 -437 -105 callgsubr
          endchar
        </CharString>
        <CharString name="uni1EA1">
          -28 168 -8 -107 callgsubr
          -13 -262 -105 callgsubr
          endchar
        </CharString>
        <CharString name="uni1EA2">
          -4 311 742 -91 callsubr
          -289 -744 -106 callgsubr
          endchar
        </CharString>
        <CharString name="uni1EA3">
          -28 274 565 -91 callsubr
          -106 -573 -106 callsubr
        </CharString>
        <CharString name="uni1EA4">
          -4 414 850 -43 callgsubr
          -197 -68 callsubr
          -195 -754 -106 callgsubr
          endchar
        </CharString>
        <CharString name="uni1EA5">
          -28 370 718 rmoveto
          -105 callsubr
          -190 -143 -84 callgsubr
        </CharString>
        <CharString name="uni1EA6">
          -4 452 850 -42 callgsubr
          -235 -68 callsubr
          -195 -754 -106 callgsubr
          endchar
        </CharString>
        <CharString name="uni1EA7">
          -28 411 718 -96 callgsubr
          -231 -143 -84 callgsubr
        </CharString>
        <CharString name="uni1EA8">
          -4 428 -53 callsubr
          -195 -754 -106 callgsubr
          endchar
        </CharString>
        <CharString name="uni1EA9">
          -28 401 701 -91 callsubr
          -221 -126 -84 callgsubr
        </CharString>
        <CharString name="uni1EAA">
          -4 205 881 -90 callsubr
          22 -55 callsubr
          -195 -754 -106 callgsubr
          endchar
        </CharString>
        <CharString name="uni1EAB">
          -28 173 759 -90 callsubr
          10 -187 -107 callsubr
          -5 -83 callgsubr
        </CharString>
        <CharString name="uni1EAC">
          -4 210 752 -107 callsubr
          -188 -754 -106 callgsubr
          -124 -437 -105 callgsubr
          endchar
        </CharString>
        <CharString name="uni1EAD">
          -28 173 575 -107 callsubr
          -5 -583 -107 callgsubr
          -13 -262 -105 callgsubr
          endchar
        </CharString>
        <CharString name="uni1EAE">
          -4 302 851 -43 callgsubr
          3 -92 rmoveto
          73 52 42 53 6 hvcurveto
          19 2 -9 6 -14 hhcurveto
          -15 -5 -9 -13 -6 hvcurveto
          -16 -9 -23 -24 -45 hhcurveto
          -45 -18 23 16 -6 hvcurveto
          15 -6 -3 8 -14 hhcurveto
          -15 -8 -6 -19 -2 hvcurveto
          -53 -6 43 -42 73 hhcurveto
          -283 -761 -106 callgsubr
          endchar
        </CharString>
        <CharString name="uni1EAF">
          -28 260 734 rmoveto
          -105 callsubr
          9 -152 -100 callsubr
          -101 -590 -106 callsubr
        </CharString>
        <CharString name="uni1EB0">
          -4 340 851 -42 callgsubr
          -35 -92 rmoveto
          73 52 42 53 6 hvcurveto
          19 2 -9 6 -14 hhcurveto
          -15 -5 -9 -13 -6 hvcurveto
          -16 -9 -23 -24 -45 hhcurveto
          -45 -18 23 16 -6 hvcurveto
          15 -6 -3 8 -14 hhcurveto
          -15 -8 -6 -19 -2 hvcurveto
          -53 -6 43 -42 73 hhcurveto
          -283 -761 -106 callgsubr
          endchar
        </CharString>
        <CharString name="uni1EB1">
          -28 301 734 -96 callgsubr
          -32 -152 -100 callsubr
          -101 -590 -106 callsubr
        </CharString>
        <CharString name="uni1EB2">
          -4 316 858 -59 callsubr
          -11 -99 rmoveto
          73 52 42 53 6 hvcurveto
          19 2 -9 6 -14 hhcurveto
          -15 -5 -9 -13 -6 hvcurveto
          -16 -9 -23 -24 -45 hhcurveto
          -45 -18 23 16 -6 hvcurveto
          15 -6 -3 8 -14 hhcurveto
          -15 -8 -6 -19 -2 hvcurveto
          -53 -6 43 -42 73 hhcurveto
          -283 -761 -106 callgsubr
          endchar
        </CharString>
        <CharString name="uni1EB3">
          -28 291 717 -91 callsubr
          -22 -135 -100 callsubr
          -101 -590 -106 callsubr
        </CharString>
        <CharString name="uni1EB4">
          -4 210 927 -90 callsubr
          105 -171 rmoveto
          73 52 42 53 6 hvcurveto
          19 2 -9 6 -14 hhcurveto
          -15 -5 -9 -13 -6 hvcurveto
          -16 -9 -23 -24 -45 hhcurveto
          -45 -18 23 16 -6 hvcurveto
          15 -6 -3 8 -14 hhcurveto
          -15 -8 -6 -19 -2 hvcurveto
          -53 -6 43 -42 73 hhcurveto
          -283 -761 -106 callgsubr
          endchar
        </CharString>
        <CharString name="uni1EB5">
          -28 174 763 -90 callsubr
          104 -184 -100 callsubr
          -100 -590 -106 callsubr
        </CharString>
        <CharString name="uni1EB6">
          -4 306 759 -100 callsubr
          -284 -761 -106 callgsubr
          -124 -437 -105 callgsubr
          endchar
        </CharString>
        <CharString name="uni1EB7">
          -28 269 -86 callgsubr
          -101 -590 -107 callgsubr
          -13 -262 -105 callgsubr
          endchar
        </CharString>
        <CharString name="uni1EB8">
          -52 76 hmoveto
          -104 callgsubr
          124 -183 -105 callgsubr
          endchar
        </CharString>
        <CharString name="uni1EB9">
          -55 149 216 -100 callgsubr
          -43 -524 -69 callgsubr
        </CharString>
        <CharString name="uni1EBA">
          -52 306 742 -91 callsubr
          -230 -742 rmoveto
          -104 callgsubr
          endchar
        </CharString>
        <CharString name="uni1EBB">
          -55 229 684 -64 callsubr
          -80 -468 -100 callgsubr
          endchar
        </CharString>
        <CharString name="uni1EBC">
          -52 168 766 rmoveto
          -104 callsubr
          -82 -769 rmoveto
          -104 callgsubr
          endchar
        </CharString>
        <CharString name="uni1EBD">
          -55 137 592 rmoveto
          10 -3 rlineto
          -104 callsubr
          12 -376 -100 callgsubr
          endchar
        </CharString>
        <CharString name="uni1EBE">
          -52 408 850 -43 callgsubr
          -196 -61 callsubr
        </CharString>
        <CharString name="uni1EBF">
          -55 472 869 rmoveto
          -30 -16 callsubr
          -10 hvcurveto
          -39 -80 -12 -22 -10 vvcurveto
          -9 6 -3 18 31 14 7 13 9 vhcurveto
          73 99 8 7 11 vvcurveto
          11 -15 3 -30 vhcurveto
          -281 -294 -102 callgsubr
          92 -74 callsubr
        </CharString>
        <CharString name="uni1EC0">
          -52 446 850 -42 callgsubr
          -234 -61 callsubr
        </CharString>
        <CharString name="uni1EC1">
          -55 395 842 rmoveto
          20 -10 -23 7 -30 hhcurveto
          -31 -15 -3 -11 -11 7 -7 75 -99 hvcurveto
          -12 8 15 -8 31 hhcurveto
          18 5 3 9 10 -11 22 -39 80 hvcurveto
          -204 -267 -102 callgsubr
          92 -74 callsubr
        </CharString>
        <CharString name="uni1EC2">
          -52 423 -53 callsubr
          -136 -752 rmoveto
          -104 callgsubr
          endchar
        </CharString>
        <CharString name="uni1EC3">
          -55 409 886 rmoveto
          -35 -44 -18 -13 -11 18 -24 8 hvcurveto
          6 10 12 29 hhcurveto
          19 16 -8 -17 hvcurveto
          -44 -63 -18 -25 vvcurveto
          -9 26 -10 13 -54 callgsubr
          vhcurveto
          -218 -311 -102 callgsubr
          92 -74 callsubr
        </CharString>
        <CharString name="uni1EC4">
          -52 199 881 -90 callsubr
          23 -55 callsubr
          -136 -752 rmoveto
          -104 callgsubr
          endchar
        </CharString>
        <CharString name="uni1EC5">
          -55 424 857 rmoveto
          -8 3 rlineto
          2 -4 -3 1 -3 hhcurveto
          -8 -6 -5 -11 -6 hvcurveto
          -18 -11 -9 -5 -11 hhcurveto
          1 -30 -46 36 -37 hhcurveto
          -35 -26 -22 -47 -16 hvcurveto
          -2 -5 -1 -5 -4 vvcurveto
          -6 3 -6 9 -4 vhcurveto
          10 -3 rlineto
          -1 4 3 -1 3 hhcurveto
          7 5 4 10 7 hvcurveto
          19 10 9 5 10 30 47 -37 38 hhcurveto
          34 26 23 46 17 hvcurveto
          2 5 1 4 5 vvcurveto
          8 -3 4 -10 4 vhcurveto
          -219 -282 rmoveto
          15 11 5 10 9 hvcurveto
          45 65 33 -65 rlineto
          -10 5 11 -5 15 -25 callsubr
          13 7 5 8 1 hvcurveto
          5 -2 6 -3 6 vhcurveto
          -45 92 rlineto
          15 -9 -13 6 -22 -15 callsubr
          -21 -17 -6 -15 -11 hvcurveto
          -64 -92 -3 -6 -5 -8 -1 -4 rlinecurve
          -7 6 -5 13 vhcurveto
          99 -74 callsubr
        </CharString>
        <CharString name="uni1EC6">
          -52 205 752 -107 callsubr
          -129 -752 rmoveto
          -104 callgsubr
          124 -183 -105 callgsubr
          endchar
        </CharString>
        <CharString name="uni1EC7">
          -55 184 575 -107 callsubr
          -35 -359 -100 callgsubr
          -43 -524 -69 callgsubr
        </CharString>
        <CharString name="uni1EC8">
          -247 189 742 -91 callsubr
          -97 -744 -85 callsubr
          endchar
        </CharString>
        <CharString name="uni1EC9">
          -255 159 565 -91 callsubr
          -23 -569 -98 callsubr
          endchar
        </CharString>
        <CharString name="uni1ECA">
          -247 92 -2 -85 callsubr
          -7 -181 -105 callgsubr
          endchar
        </CharString>
        <CharString name="uni1ECB">
          -255 153 -84 callsubr
          -17 -603 -98 callsubr
          -31 -179 -105 callgsubr
          endchar
        </CharString>
        <CharString name="uni1ECC">
          90 272 -7 -102 callsubr
          -27 -268 -105 callgsubr
          endchar
        </CharString>
        <CharString name="uni1ECD">
          -32 211 -7 -101 callsubr
          -23 -262 -105 callgsubr
          endchar
        </CharString>
        <CharString name="uni1ECE">
          90 359 742 -91 callsubr
          -87 -749 -102 callsubr
          endchar
        </CharString>
        <CharString name="uni1ECF">
          -32 278 565 -91 callsubr
          -67 -572 -97 callgsubr
        </CharString>
        <CharString name="uni1ED0">
          90 461 850 -43 callgsubr
          -196 -56 callsubr
        </CharString>
        <CharString name="uni1ED1">
          -32 375 718 rmoveto
          -105 callsubr
          -191 -143 -74 callgsubr
        </CharString>
        <CharString name="uni1ED2">
          90 499 850 -42 callgsubr
          -234 -56 callsubr
        </CharString>
        <CharString name="uni1ED3">
          -32 415 718 -96 callgsubr
          -231 -143 -74 callgsubr
        </CharString>
        <CharString name="uni1ED4">
          90 476 -53 callsubr
          7 -759 -102 callsubr
          endchar
        </CharString>
        <CharString name="uni1ED5">
          -32 405 701 -91 callsubr
          -221 -126 -74 callgsubr
        </CharString>
        <CharString name="uni1ED6">
          90 252 881 -90 callsubr
          23 -55 callsubr
          7 -759 -102 callsubr
          endchar
        </CharString>
        <CharString name="uni1ED7">
          -32 177 759 -90 callsubr
          10 -187 -107 callsubr
          34 -68 callgsubr
        </CharString>
        <CharString name="uni1ED8">
          90 258 752 -107 callsubr
          14 -759 -102 callsubr
          -27 -268 -105 callgsubr
          endchar
        </CharString>
        <CharString name="uni1ED9">
          -55 callgsubr
          -23 -262 -105 callgsubr
          endchar
        </CharString>
        <CharString name="uni1EDA">
          90 336 759 rmoveto
          -105 callsubr
          284 -48 -92 callgsubr
          endchar
        </CharString>
        <CharString name="uni1EDB">
          -32 247 582 rmoveto
          -105 callsubr
          248 -35 -92 callsubr
          endchar
        </CharString>
        <CharString name="uni1EDC">
          90 369 759 -96 callgsubr
          251 -48 -92 callgsubr
          endchar
        </CharString>
        <CharString name="uni1EDD">
          -32 288 582 -96 callgsubr
          207 -35 -92 callsubr
          endchar
        </CharString>
        <CharString name="uni1EDE">
          90 359 742 -91 callsubr
          261 -31 -92 callgsubr
          endchar
        </CharString>
        <CharString name="uni1EDF">
          -32 278 565 -91 callsubr
          217 -18 -92 callsubr
          endchar
        </CharString>
        <CharString name="uni1EE0">
          90 234 766 rmoveto
          -81 callgsubr
          395 -58 -92 callgsubr
          endchar
        </CharString>
        <CharString name="uni1EE1">
          -32 153 589 rmoveto
          -81 callgsubr
          351 -45 -92 callsubr
          endchar
        </CharString>
        <CharString name="uni1EE2">
          90 620 711 -92 callgsubr
          -197 -534 -105 callgsubr
          endchar
        </CharString>
        <CharString name="uni1EE3">
          -32 495 547 -92 callsubr
          -23 -262 -105 callgsubr
          endchar
        </CharString>
        <CharString name="uni1EE4">
          74 264 -7 rmoveto
          -45 callsubr
          51 479 -77 callgsubr
          -21 -99 callgsubr
          -17 -176 -105 callgsubr
          endchar
        </CharString>
        <CharString name="uni1EE5">
          440 85 rmoveto
          -72 callgsubr
          89 9 89 10 89 rrcurveto
          -76 callgsubr
          -17 -103 callgsubr
          hhcurveto
          -258 -268 -105 callgsubr
          endchar
        </CharString>
        <CharString name="uni1EE6">
          74 350 742 -91 callsubr
          -86 -749 rmoveto
          -45 callsubr
          51 479 -77 callgsubr
          -21 -99 callgsubr
          endchar
        </CharString>
        <CharString name="uni1EE7">
          276 565 -91 callsubr
          164 -480 rmoveto
          -72 callgsubr
          89 9 89 10 89 rrcurveto
          -76 callgsubr
          -17 -103 callgsubr
          hhcurveto
          endchar
        </CharString>
        <CharString name="uni1EE8">
          74 319 759 rmoveto
          -105 callsubr
          327 -2 rmoveto
          -79 callsubr
          -36 -99 callgsubr
          -45 callsubr
          50 469 rlineto
          57 8 26 34 48 vvcurveto
          endchar
        </CharString>
        <CharString name="uni1EE9">
          245 582 rmoveto
          -105 callsubr
          190 -93 rmoveto
          61 6 27 35 49 vvcurveto
          -79 callsubr
          -37 -103 callgsubr
          -72 callgsubr
          86 8 85 10 86 rrcurveto
          endchar
        </CharString>
        <CharString name="uni1EEA">
          74 360 759 -96 callgsubr
          286 -2 rmoveto
          -79 callsubr
          -36 -99 callgsubr
          -45 callsubr
          50 469 rlineto
          57 8 26 34 48 vvcurveto
          endchar
        </CharString>
        <CharString name="uni1EEB">
          285 582 -96 callgsubr
          150 -93 rmoveto
          61 6 27 35 49 vvcurveto
          -79 callsubr
          -37 -103 callgsubr
          -72 callgsubr
          86 8 85 10 86 rrcurveto
          endchar
        </CharString>
        <CharString name="uni1EEC">
          74 294 861 -64 callsubr
          352 -104 rmoveto
          -79 callsubr
          -36 -99 callgsubr
          -45 callsubr
          50 469 rlineto
          57 8 26 34 48 vvcurveto
          endchar
        </CharString>
        <CharString name="uni1EED">
          220 684 -64 callsubr
          215 -195 rmoveto
          61 6 27 35 49 vvcurveto
          -79 callsubr
          -37 -103 callgsubr
          -72 callgsubr
          86 8 85 10 86 rrcurveto
          endchar
        </CharString>
        <CharString name="uni1EEE">
          74 202 769 rmoveto
          10 -3 rlineto
          -104 callsubr
          444 -12 rmoveto
          -79 callsubr
          -36 -99 callgsubr
          -45 callsubr
          50 469 rlineto
          57 8 26 34 48 vvcurveto
          endchar
        </CharString>
        <CharString name="uni1EEF">
          142 592 rmoveto
          9 -3 rlineto
          -81 callgsubr
          293 -103 rmoveto
          61 6 27 35 49 vvcurveto
          -79 callsubr
          -37 -103 callgsubr
          -72 callgsubr
          86 8 85 10 86 rrcurveto
          endchar
        </CharString>
        <CharString name="uni1EF0">
          74 646 757 rmoveto
          -79 callsubr
          -36 -99 callgsubr
          -45 callsubr
          50 469 rlineto
          57 8 26 34 48 vvcurveto
          -388 -837 -69 callgsubr
        </CharString>
        <CharString name="uni1EF1">
          435 489 rmoveto
          61 6 27 35 49 vvcurveto
          -79 callsubr
          -37 -103 callgsubr
          -72 callgsubr
          86 8 85 10 86 rrcurveto
          -242 -569 -69 callgsubr
        </CharString>
        <CharString name="uni1EF4">
          -25 204 -2 -91 callgsubr
          -7 -181 -105 callgsubr
          endchar
        </CharString>
        <CharString name="uni1EF4.loclGUA">
          -11 441 702 -97 callsubr
          -218 -782 -69 callgsubr
        </CharString>
        <CharString name="uni1EF5">
          -107 369 525 -96 callsubr
          -104 -640 -69 callgsubr
        </CharString>
        <CharString name="uni1EF5.loclGUA">
          435 500 rmoveto
          16 3 -13 9 -32 hhcurveto
          -95 callsubr
          39 -167 -69 callgsubr
        </CharString>
        <CharString name="uni1EF6">
          -25 300 742 -91 callsubr
          -96 -744 -91 callgsubr
          endchar
        </CharString>
        <CharString name="uni1EF6.loclGUA">
          -11 252 861 -64 callsubr
          189 -159 -97 callsubr
          endchar
        </CharString>
        <CharString name="uni1EF7">
          -107 181 684 -64 callsubr
          188 -159 -96 callsubr
          endchar
        </CharString>
        <CharString name="uni1EF7.loclGUA">
          221 684 -64 callsubr
          172 -159 rmoveto
          -95 callsubr
          45 427 -7 callgsubr
          endchar
        </CharString>
        <CharString name="uni1EF8">
          -25 162 766 rmoveto
          -104 callsubr
          52 -771 -91 callgsubr
          endchar
        </CharString>
        <CharString name="uni1EF8.loclGUA">
          -11 160 769 rmoveto
          10 -3 rlineto
          -104 callsubr
          281 -67 -97 callsubr
          endchar
        </CharString>
        <CharString name="uni1EF9">
          -107 89 592 rmoveto
          10 -3 rlineto
          -104 callsubr
          280 -67 -96 callsubr
          endchar
        </CharString>
        <CharString name="uni1EF9.loclGUA">
          129 592 rmoveto
          10 -3 rlineto
          -104 callsubr
          264 -67 rmoveto
          -95 callsubr
          45 427 -7 callgsubr
          endchar
        </CharString>
        <CharString name="uni2002">
          -23 endchar
        </CharString>
        <CharString name="uni2003">
          377 endchar
        </CharString>
        <CharString name="uni2004">
          -176 endchar
        </CharString>
        <CharString name="uni2005">
          -259 endchar
        </CharString>
        <CharString name="uni20B2">
          -54 callsubr
          -108 -29 107 158 17 hvcurveto
          167 17 53 92 113 hhcurveto
          endchar
        </CharString>
        <CharString name="uni20B2.bold">
          -54 callsubr
          -5 -5 0 1 -4 hvcurveto
          55 522 rlineto
          1 7 7 0 8 hhcurveto
          -132 -503 rmoveto
          -51 38 -13 89 13 117 12 120 31 82 59 36 rrcurveto
          endchar
        </CharString>
        <CharString name="uni2113">
          -166 146 -7 rmoveto
          40 60 13 33 4 hvcurveto
          9 1 -4 45 -15 -11 -16 -14 -28 hhcurveto
          -22 -12 13 47 5 hvcurveto
          16 151 99 85 76 137 12 117 rlinecurve
          70 7 -24 56 -71 hhcurveto
          -61 -97 -27 -272 -29 hvcurveto
          -16 -162 -19 -14 -20 -12 -18 -12 rlinecurve
          -12 -8 -6 -11 -1 -10 -1 -7 1 -6 3 -6 rrcurveto
          -13 8 6 -6 9 hhcurveto
          5 5 2 4 7 hvcurveto
          24 16 -8 -77 rlineto
          -111 -12 51 -30 64 hhcurveto
          28 393 rmoveto
          278 29 36 13 22 hhcurveto
          21 7 -20 -30 -3 hvcurveto
          -9 -81 -48 -94 -55 -66 rrcurveto
          endchar
        </CharString>
        <CharString name="uni2126">
          76 -57 callgsubr
        </CharString>
        <CharString name="uni2153">
          125 144 -66 callgsubr
          -10 -17 callgsubr
          318 -6 -78 callgsubr
          endchar
        </CharString>
        <CharString name="uni2154">
          183 39 299 -62 callsubr
          168 -300 rmoveto
          13 hlineto
          15 11 5 14 6 hvcurveto
          298 665 rlineto
          3 4 2 4 3 vvcurveto
          6 -5 2 -10 vhcurveto
          -13 hlineto
          -14 -12 -5 -14 -7 hvcurveto
          -298 -665 rlineto
          -1 -4 -3 -5 -2 vvcurveto
          -6 6 -2 9 vhcurveto
          330 -6 -78 callgsubr
          endchar
        </CharString>
        <CharString name="uni2206">
          57 -33 callgsubr
        </CharString>
        <CharString name="uni2215">
          -288 -17 -19 callgsubr
        </CharString>
        <CharString name="uni2219">
          -284 117 303 rmoveto
          34 21 25 32 3 hvcurveto
          32 4 -16 25 -33 hhcurveto
          -33 -22 -25 -32 -4 hvcurveto
          -32 -3 17 -25 32 hhcurveto
          endchar
        </CharString>
        <CharString name="uogonek">
          478 -97 rmoveto
          -30 callsubr
          16 4 22 10 22 hvcurveto
          21 7 15 14 4 20 rrcurveto
          -44 callgsubr
          -72 callgsubr
          89 9 89 10 89 rrcurveto
          -76 callgsubr
          -17 hlineto
          -30 -14 -8 -17 -2 hvcurveto
          -38 -360 rlineto
          -34 -21 -32 -25 -34 hhcurveto
          -41 -17 27 47 5 hvcurveto
          37 345 -77 callgsubr
          -17 -75 callsubr
          -1 hvcurveto
          -39 -363 rlineto
          -91 -9 39 -53 82 hhcurveto
          53 48 32 45 34 hvcurveto
          7 -43 23 -19 26 -7 rrcurveto
          -14 -30 -5 -29 -19 -65 callgsubr
          endchar
        </CharString>
        <CharString name="uring">
          266 -46 callgsubr
          169 -518 rmoveto
          -72 callgsubr
          89 9 89 10 89 rrcurveto
          -76 callgsubr
          -17 -103 callgsubr
          hhcurveto
          endchar
        </CharString>
        <CharString name="utilde">
          138 589 rmoveto
          -104 callsubr
          312 -507 rmoveto
          -72 callgsubr
          89 9 89 10 89 rrcurveto
          -76 callgsubr
          -17 -103 callgsubr
          hhcurveto
          endchar
        </CharString>
        <CharString name="v">
          -97 156 -2 rmoveto
          44 hlineto
          21 18 4 13 4 hvcurveto
          172 476 rlineto
          3 7 1 4 5 vvcurveto
          11 2 -12 7 -28 hhcurveto
          -20 hlineto
          -22 -18 -4 -13 -4 hvcurveto
          -88 -273 -13 -41 -11 -49 -11 -43 rlinecurve
          -6 hlineto
          -2 43 -2 48 -6 42 -30 273 rcurveline
          13 -2 -16 4 -21 hhcurveto
          -20 hlineto
          -30 -14 -7 -11 -2 hvcurveto
          -16 vlineto
          74 -476 rlineto
          -13 3 15 -4 21 hhcurveto
          endchar
        </CharString>
        <CharString name="w">
          107 132 -2 -94 callsubr
        </CharString>
        <CharString name="wacute">
          107 316 582 rmoveto
          -105 callsubr
          -184 -584 -94 callsubr
        </CharString>
        <CharString name="wcircumflex">
          107 246 575 -107 callsubr
          -114 -577 -94 callsubr
        </CharString>
        <CharString name="wdieresis">
          107 274 599 -101 callgsubr
          -279 -601 -94 callsubr
        </CharString>
        <CharString name="wgrave">
          107 357 582 -96 callgsubr
          -225 -584 -94 callsubr
        </CharString>
        <CharString name="x">
          -105 23 hmoveto
          43 hlineto
          16 13 0 14 8 hvcurveto
          79 149 6 12 4 10 5 10 rlinecurve
          3 -10 4 -10 5 -14 58 -148 rcurveline
          -14 6 14 1 22 hhcurveto
          34 hlineto
          15 13 4 11 1 hvcurveto
          5 -3 7 -4 9 vhcurveto
          -108 226 141 225 5 9 4 6 1 6 rlinecurve
          11 1 -12 6 -32 hhcurveto
          -19 hlineto
          -21 -18 -1 -15 -7 hvcurveto
          -73 -134 -17 -36 -3 12 -4 11 -6 14 rlinecurve
          -52 134 rlineto
          14 -5 -15 1 -22 hhcurveto
          -16 hlineto
          -33 -11 -6 -11 -1 hvcurveto
          -1 -6 2 -7 4 -8 104 -216 rcurveline
          -149 -236 -5 -9 -4 -8 -1 -6 rlinecurve
          -8 9 -4 22 vhcurveto
          endchar
        </CharString>
        <CharString name="y">
          -107 369 525 -96 callsubr
          endchar
        </CharString>
        <CharString name="y.loclGUA">
          393 525 rmoveto
          -95 callsubr
          45 427 -7 callgsubr
          endchar
        </CharString>
        <CharString name="yacute">
          -107 206 582 rmoveto
          -105 callsubr
          163 -57 -96 callsubr
          endchar
        </CharString>
        <CharString name="yacute.loclGUA">
          246 582 rmoveto
          -105 callsubr
          147 -57 rmoveto
          -95 callsubr
          45 427 -7 callgsubr
          endchar
        </CharString>
        <CharString name="ycircumflex">
          -107 136 575 -107 callsubr
          233 -50 -96 callsubr
          endchar
        </CharString>
        <CharString name="ycircumflex.loclGUA">
          176 575 -107 callsubr
          217 -50 rmoveto
          -95 callsubr
          45 427 -7 callgsubr
          endchar
        </CharString>
        <CharString name="ydieresis">
          -107 164 599 -101 callgsubr
          68 -74 -96 callsubr
          endchar
        </CharString>
        <CharString name="ydieresis.loclGUA">
          204 599 -101 callgsubr
          52 -74 rmoveto
          -95 callsubr
          45 427 -7 callgsubr
          endchar
        </CharString>
        <CharString name="yen">
          -39 470 702 rmoveto
          -23 hlineto
          -22 -17 -2 -13 -7 hvcurveto
          -146 -284 -83 283 rlineto
          13 -4 -16 3 -22 hhcurveto
          -25 hlineto
          -33 -13 -7 -11 -1 hvcurveto
          -5 2 -7 4 -8 vhcurveto
          92 -250 rlineto
          -75 hlineto
          -15 -8 -9 -21 -2 hvcurveto
          -1 -10 rlineto
          -21 -2 6 -9 15 hhcurveto
          108 hlineto
          11 -31 -6 -56 rlineto
          -122 hlineto
          -15 -8 -9 -21 -2 hvcurveto
          -2 -10 rlineto
          -21 -2 6 -9 15 hhcurveto
          123 hlineto
          -18 -164 -10 callsubr
          21 -7 callsubr
          18 164 rlineto
          110 hlineto
          15 8 9 21 2 hvcurveto
          1 10 rlineto
          21 2 -6 9 -15 hhcurveto
          -110 hlineto
          6 53 19 34 rlineto
          94 hlineto
          15 8 9 21 2 hvcurveto
          2 10 rlineto
          21 2 -6 9 -15 hhcurveto
          -61 hlineto
          143 250 rlineto
          5 8 3 7 5 vvcurveto
          1 11 -12 6 -32 1 rrcurveto
          endchar
        </CharString>
        <CharString name="ygrave">
          -107 247 582 -96 callgsubr
          122 -57 -96 callsubr
          endchar
        </CharString>
        <CharString name="ygrave.loclGUA">
          287 582 -96 callgsubr
          106 -57 rmoveto
          -95 callsubr
          45 427 -7 callgsubr
          endchar
        </CharString>
        <CharString name="z">
          -104 29 hmoveto
          -94 callgsubr
          endchar
        </CharString>
        <CharString name="zacute">
          -104 215 582 rmoveto
          -105 callsubr
          -186 -582 rmoveto
          -94 callgsubr
          endchar
        </CharString>
        <CharString name="zacute.loclPLK">
          -104 224 582 -80 callsubr
          -195 -582 rmoveto
          -94 callgsubr
          endchar
        </CharString>
        <CharString name="zcaron">
          -104 235 580 -103 callsubr
          -206 -580 rmoveto
          -94 callgsubr
          endchar
        </CharString>
        <CharString name="zdotaccent">
          -104 242 -84 callsubr
          -213 -599 rmoveto
          -94 callgsubr
          endchar
        </CharString>
        <CharString name="zero">
          -50 200 -7 rmoveto
          120 91 111 246 25 hvcurveto
          246 26 -67 111 -120 hhcurveto
          -118 -90 -111 -246 -27 hvcurveto
          -246 -25 67 -111 118 hhcurveto
          9 86 rmoveto
          -52 -32 60 211 22 hvcurveto
          211 22 46 60 52 hhcurveto
          51 34 -60 -211 -22 hvcurveto
          -211 -22 -47 -60 -52 hhcurveto
          endchar
        </CharString>
      <CharString index="0">
        rmoveto
        48 44 24 63 32 hvcurveto
        -69 5 43 -17 37 hhcurveto
        47 27 23 42 13 -3 12 -8 hvcurveto
        -6 -7 -18 callsubr
        -14 -10 9 32 2 hvcurveto
        7 68 12 106 10 97 rrcurveto
        4 37 8 63 12 vvcurveto
        14 -9 8 -26 vhcurveto
        -8 hlineto
        -34 -6 -18 -31 -10 hvcurveto
        23 -18 -32 31 -56 hhcurveto
        -100 -76 -98 -167 -17 hvcurveto
        -132 -14 26 -141 113 hhcurveto
        36 87 rmoveto
        -62 -5 99 89 10 hvcurveto
        111 12 31 66 66 hhcurveto
        36 20 -19 -15 13 hvcurveto
        -3 -15 -3 -19 -3 -21 -17 -166 rcurveline
        -79 -23 -38 -31 -34 hhcurveto
        return
      </CharString>
      <CharString index="1">
        rmoveto
        -76 callsubr
        23 -152 rlineto
        -13 1 16 -4 19 hhcurveto
        27 hlineto
        26 13 7 11 1 hvcurveto
        1 5 -1 4 -1 6 -109 649 rcurveline
        15 -2 -14 7 -28 hhcurveto
        -36 hlineto
        -27 -16 -7 -15 -6 hvcurveto
        -242 -649 rlineto
        -2 -6 -2 -4 -5 35 callgsubr
        -7 28 hhcurveto
        149 256 rmoveto
        93 262 7 21 7 24 6 20 rlinecurve
        5 hlineto
        1 -20 2 -24 3 -21 37 -262 rcurveline
        return
      </CharString>
</ttFont>
